%TF.GenerationSoftware,KiCad,Pcbnew,10.0.6*%
%TF.CreationDate,2026-09-17T11:36:35-07:00*%
%TF.ProjectId,pogostick,706f676f-7374-4696-936b-2e6b69636164,rev?*%
%TF.SameCoordinates,Original*%
%TF.FileFunction,Copper,L1,Top*%
%TF.FilePolarity,Positive*%
%FSLAX46Y46*%
G04 Gerber Fmt 4.6, Leading zero omitted, Abs format (unit mm)*
G04 Created by KiCad (PCBNEW 10.0.6) date 2026-09-17 11:36:35*
%MOMM*%
%LPD*%
G01*
G04 APERTURE LIST*
%TA.AperFunction,SMDPad,CuDef*%
%ADD10C,1.830000*%
%TD*%
%TA.AperFunction,ConnectorPad*%
%ADD11C,5.700000*%
%TD*%
%TA.AperFunction,ComponentPad*%
%ADD12C,3.600000*%
%TD*%
%TA.AperFunction,Conductor*%
%ADD13C,1.800000*%
%TD*%
G04 APERTURE END LIST*
D10*
%TO.P,J24,1,Pin_1_1*%
%TO.N,/pogo*%
X94500000Y-13000000D03*
%TD*%
D11*
%TO.P,H1,1,1_1*%
%TO.N,/pogo*%
X5000000Y0D03*
D12*
X5000000Y0D03*
%TD*%
D10*
%TO.P,J50,1,Pin_1_1*%
%TO.N,/pogo*%
X190500000Y-13000000D03*
%TD*%
%TO.P,J57,1,Pin_1_1*%
%TO.N,/pogo*%
X175500000Y-13000000D03*
%TD*%
%TO.P,J54,1,Pin_1_1*%
%TO.N,/pogo*%
X157500000Y-13000000D03*
%TD*%
%TO.P,J9,1,Pin_1_1*%
%TO.N,/pogo*%
X40500000Y-13000000D03*
%TD*%
%TO.P,J29,1,Pin_1_1*%
%TO.N,/pogo*%
X124500000Y-13000000D03*
%TD*%
%TO.P,J22,1,Pin_1_1*%
%TO.N,/pogo*%
X82500000Y-13000000D03*
%TD*%
%TO.P,J49,1,Pin_1_1*%
%TO.N,/pogo*%
X184500000Y-13000000D03*
%TD*%
%TO.P,J52,1,Pin_1_1*%
%TO.N,/pogo*%
X145500000Y-13000000D03*
%TD*%
%TO.P,J35,1,Pin_1_1*%
%TO.N,/pogo*%
X103500000Y-13000000D03*
%TD*%
%TO.P,J15,1,Pin_1_1*%
%TO.N,/pogo*%
X58500000Y-13000000D03*
%TD*%
%TO.P,J32,1,Pin_1_1*%
%TO.N,/pogo*%
X85625000Y-13000000D03*
%TD*%
%TO.P,J42,1,Pin_1_1*%
%TO.N,/pogo*%
X142500000Y-13000000D03*
%TD*%
%TO.P,J47,1,Pin_1_1*%
%TO.N,/pogo*%
X172500000Y-13000000D03*
%TD*%
%TO.P,J16,1,Pin_1_1*%
%TO.N,/pogo*%
X61500000Y-13000000D03*
%TD*%
%TO.P,J34,1,Pin_1_1*%
%TO.N,/pogo*%
X97500000Y-13000000D03*
%TD*%
%TO.P,J13,1,Pin_1_1*%
%TO.N,/pogo*%
X52500000Y-13000000D03*
%TD*%
%TO.P,J59,1,Pin_1_1*%
%TO.N,/pogo*%
X187500000Y-13000000D03*
%TD*%
%TO.P,J11,1,Pin_1_1*%
%TO.N,/pogo*%
X46500000Y-13000000D03*
%TD*%
%TO.P,J20,1,Pin_1_1*%
%TO.N,/pogo*%
X73500000Y-13000000D03*
%TD*%
%TO.P,J39,1,Pin_1_1*%
%TO.N,/pogo*%
X127500000Y-13000000D03*
%TD*%
%TO.P,J7,1,Pin_1_1*%
%TO.N,/pogo*%
X34500000Y-13000000D03*
%TD*%
%TO.P,J46,1,Pin_1_1*%
%TO.N,/pogo*%
X166500000Y-13000000D03*
%TD*%
%TO.P,J5,1,Pin_1_1*%
%TO.N,/pogo*%
X28500000Y-13000000D03*
%TD*%
%TO.P,J41,1,Pin_1_1*%
%TO.N,/pogo*%
X136500000Y-13000000D03*
%TD*%
%TO.P,J43,1,Pin_1_1*%
%TO.N,/pogo*%
X148500000Y-13000000D03*
%TD*%
%TO.P,J37,1,Pin_1_1*%
%TO.N,/pogo*%
X115500000Y-13000000D03*
%TD*%
%TO.P,J30,1,Pin_1_1*%
%TO.N,/pogo*%
X130500000Y-13000000D03*
%TD*%
%TO.P,J1,1,Pin_1_1*%
%TO.N,/pogo*%
X16500000Y-13000000D03*
%TD*%
%TO.P,J19,1,Pin_1_1*%
%TO.N,/pogo*%
X70500000Y-13000000D03*
%TD*%
%TO.P,J21,1,Pin_1_1*%
%TO.N,/pogo*%
X76500000Y-13000000D03*
%TD*%
%TO.P,J17,1,Pin_1_1*%
%TO.N,/pogo*%
X64500000Y-13000000D03*
%TD*%
%TO.P,J26,1,Pin_1_1*%
%TO.N,/pogo*%
X106500000Y-13000000D03*
%TD*%
%TO.P,J14,1,Pin_1_1*%
%TO.N,/pogo*%
X55500000Y-13000000D03*
%TD*%
%TO.P,J10,1,Pin_1_1*%
%TO.N,/pogo*%
X43500000Y-13000000D03*
%TD*%
%TO.P,J40,1,Pin_1_1*%
%TO.N,/pogo*%
X133500000Y-13000000D03*
%TD*%
%TO.P,J48,1,Pin_1_1*%
%TO.N,/pogo*%
X178500000Y-13000000D03*
%TD*%
%TO.P,J23,1,Pin_1_1*%
%TO.N,/pogo*%
X88500000Y-13000000D03*
%TD*%
%TO.P,J33,1,Pin_1_1*%
%TO.N,/pogo*%
X91500000Y-13000000D03*
%TD*%
%TO.P,J2,1,Pin_1_1*%
%TO.N,/pogo*%
X19500000Y-13000000D03*
%TD*%
%TO.P,J55,1,Pin_1_1*%
%TO.N,/pogo*%
X163500000Y-13000000D03*
%TD*%
%TO.P,J6,1,Pin_1_1*%
%TO.N,/pogo*%
X31500000Y-13000000D03*
%TD*%
%TO.P,J12,1,Pin_1_1*%
%TO.N,/pogo*%
X49500000Y-13000000D03*
%TD*%
D11*
%TO.P,H2,1,1_1*%
%TO.N,/pogo*%
X205000000Y0D03*
D12*
X205000000Y0D03*
%TD*%
D10*
%TO.P,J3,1,Pin_1_1*%
%TO.N,/pogo*%
X22500000Y-13000000D03*
%TD*%
%TO.P,J45,1,Pin_1_1*%
%TO.N,/pogo*%
X160500000Y-13000000D03*
%TD*%
%TO.P,J8,1,Pin_1_1*%
%TO.N,/pogo*%
X37500000Y-13000000D03*
%TD*%
%TO.P,J27,1,Pin_1_1*%
%TO.N,/pogo*%
X112500000Y-13000000D03*
%TD*%
%TO.P,J36,1,Pin_1_1*%
%TO.N,/pogo*%
X109500000Y-13000000D03*
%TD*%
%TO.P,J31,1,Pin_1_1*%
%TO.N,/pogo*%
X79500000Y-13000000D03*
%TD*%
%TO.P,J25,1,Pin_1_1*%
%TO.N,/pogo*%
X100500000Y-13000000D03*
%TD*%
%TO.P,J58,1,Pin_1_1*%
%TO.N,/pogo*%
X181500000Y-13000000D03*
%TD*%
%TO.P,J4,1,Pin_1_1*%
%TO.N,/pogo*%
X25500000Y-13000000D03*
%TD*%
%TO.P,J60,1,Pin_1_1*%
%TO.N,/pogo*%
X193500000Y-13000000D03*
%TD*%
%TO.P,J44,1,Pin_1_1*%
%TO.N,/pogo*%
X154500000Y-13000000D03*
%TD*%
%TO.P,J53,1,Pin_1_1*%
%TO.N,/pogo*%
X151500000Y-13000000D03*
%TD*%
%TO.P,J28,1,Pin_1_1*%
%TO.N,/pogo*%
X118500000Y-13000000D03*
%TD*%
%TO.P,J38,1,Pin_1_1*%
%TO.N,/pogo*%
X121500000Y-13000000D03*
%TD*%
%TO.P,J18,1,Pin_1_1*%
%TO.N,/pogo*%
X67500000Y-13000000D03*
%TD*%
%TO.P,J56,1,Pin_1_1*%
%TO.N,/pogo*%
X169500000Y-13000000D03*
%TD*%
%TO.P,J51,1,Pin_1_1*%
%TO.N,/pogo*%
X139500000Y-13000000D03*
%TD*%
%TO.N,/pogo*%
D13*
X5000000Y-9000000D02*
X9000000Y-13000000D01*
X205000000Y0D02*
X205000000Y-9000000D01*
X5000000Y0D02*
X5000000Y-9000000D01*
X205000000Y-9000000D02*
X201000000Y-13000000D01*
X9000000Y-13000000D02*
X193500000Y-13000000D01*
X201000000Y-13000000D02*
X193500000Y-13000000D01*
%TD*%
%TA.AperFunction,NonConductor*%
G36*
X9442539Y4479815D02*
G01*
X9488294Y4427011D01*
X9499500Y4375500D01*
X9499500Y-10065891D01*
X9533608Y-10193187D01*
X9566554Y-10250250D01*
X9599500Y-10307314D01*
X9692686Y-10400500D01*
X9806814Y-10466392D01*
X9934108Y-10500500D01*
X9934110Y-10500500D01*
X200065890Y-10500500D01*
X200065892Y-10500500D01*
X200193186Y-10466392D01*
X200307314Y-10400500D01*
X200400500Y-10307314D01*
X200466392Y-10193186D01*
X200500500Y-10065892D01*
X200500500Y4375500D01*
X200520185Y4442539D01*
X200572989Y4488294D01*
X200624500Y4499500D01*
X209375500Y4499500D01*
X209442539Y4479815D01*
X209488294Y4427011D01*
X209499500Y4375500D01*
X209499500Y-34375500D01*
X209479815Y-34442539D01*
X209427011Y-34488294D01*
X209375500Y-34499500D01*
X624500Y-34499500D01*
X557461Y-34479815D01*
X511706Y-34427011D01*
X500500Y-34375500D01*
X500500Y-29878711D01*
X103149500Y-29878711D01*
X103149500Y-30121288D01*
X103181161Y-30361785D01*
X103243947Y-30596104D01*
X103336773Y-30820205D01*
X103336776Y-30820212D01*
X103458064Y-31030289D01*
X103458066Y-31030292D01*
X103458067Y-31030293D01*
X103605733Y-31222736D01*
X103605739Y-31222743D01*
X103777256Y-31394260D01*
X103777262Y-31394265D01*
X103969711Y-31541936D01*
X104179788Y-31663224D01*
X104403900Y-31756054D01*
X104638211Y-31818838D01*
X104818586Y-31842584D01*
X104878711Y-31850500D01*
X104878712Y-31850500D01*
X105121289Y-31850500D01*
X105169388Y-31844167D01*
X105361789Y-31818838D01*
X105596100Y-31756054D01*
X105820212Y-31663224D01*
X106030289Y-31541936D01*
X106222738Y-31394265D01*
X106394265Y-31222738D01*
X106541936Y-31030289D01*
X106663224Y-30820212D01*
X106756054Y-30596100D01*
X106818838Y-30361789D01*
X106850500Y-30121288D01*
X106850500Y-29878712D01*
X106818838Y-29638211D01*
X106756054Y-29403900D01*
X106663224Y-29179788D01*
X106541936Y-28969711D01*
X106394265Y-28777262D01*
X106394260Y-28777256D01*
X106222743Y-28605739D01*
X106222736Y-28605733D01*
X106030293Y-28458067D01*
X106030292Y-28458066D01*
X106030289Y-28458064D01*
X105820212Y-28336776D01*
X105820205Y-28336773D01*
X105596104Y-28243947D01*
X105361785Y-28181161D01*
X105121289Y-28149500D01*
X105121288Y-28149500D01*
X104878712Y-28149500D01*
X104878711Y-28149500D01*
X104638214Y-28181161D01*
X104403895Y-28243947D01*
X104179794Y-28336773D01*
X104179785Y-28336777D01*
X103969706Y-28458067D01*
X103777263Y-28605733D01*
X103777256Y-28605739D01*
X103605739Y-28777256D01*
X103605733Y-28777263D01*
X103458067Y-28969706D01*
X103336777Y-29179785D01*
X103336773Y-29179794D01*
X103243947Y-29403895D01*
X103181161Y-29638214D01*
X103149500Y-29878711D01*
X500500Y-29878711D01*
X500500Y-19878711D01*
X3149500Y-19878711D01*
X3149500Y-20121288D01*
X3181161Y-20361785D01*
X3243947Y-20596104D01*
X3336773Y-20820205D01*
X3336776Y-20820212D01*
X3458064Y-21030289D01*
X3458066Y-21030292D01*
X3458067Y-21030293D01*
X3605733Y-21222736D01*
X3605739Y-21222743D01*
X3777256Y-21394260D01*
X3777262Y-21394265D01*
X3969711Y-21541936D01*
X4179788Y-21663224D01*
X4403900Y-21756054D01*
X4638211Y-21818838D01*
X4818586Y-21842584D01*
X4878711Y-21850500D01*
X4878712Y-21850500D01*
X5121289Y-21850500D01*
X5169388Y-21844167D01*
X5361789Y-21818838D01*
X5596100Y-21756054D01*
X5820212Y-21663224D01*
X6030289Y-21541936D01*
X6222738Y-21394265D01*
X6394265Y-21222738D01*
X6541936Y-21030289D01*
X6663224Y-20820212D01*
X6756054Y-20596100D01*
X6818838Y-20361789D01*
X6850500Y-20121288D01*
X6850500Y-19878712D01*
X6850500Y-19878711D01*
X203149500Y-19878711D01*
X203149500Y-20121288D01*
X203181161Y-20361785D01*
X203243947Y-20596104D01*
X203336773Y-20820205D01*
X203336776Y-20820212D01*
X203458064Y-21030289D01*
X203458066Y-21030292D01*
X203458067Y-21030293D01*
X203605733Y-21222736D01*
X203605739Y-21222743D01*
X203777256Y-21394260D01*
X203777262Y-21394265D01*
X203969711Y-21541936D01*
X204179788Y-21663224D01*
X204403900Y-21756054D01*
X204638211Y-21818838D01*
X204818586Y-21842584D01*
X204878711Y-21850500D01*
X204878712Y-21850500D01*
X205121289Y-21850500D01*
X205169388Y-21844167D01*
X205361789Y-21818838D01*
X205596100Y-21756054D01*
X205820212Y-21663224D01*
X206030289Y-21541936D01*
X206222738Y-21394265D01*
X206394265Y-21222738D01*
X206541936Y-21030289D01*
X206663224Y-20820212D01*
X206756054Y-20596100D01*
X206818838Y-20361789D01*
X206850500Y-20121288D01*
X206850500Y-19878712D01*
X206818838Y-19638211D01*
X206756054Y-19403900D01*
X206663224Y-19179788D01*
X206541936Y-18969711D01*
X206394265Y-18777262D01*
X206394260Y-18777256D01*
X206222743Y-18605739D01*
X206222736Y-18605733D01*
X206030293Y-18458067D01*
X206030292Y-18458066D01*
X206030289Y-18458064D01*
X205820212Y-18336776D01*
X205820205Y-18336773D01*
X205596104Y-18243947D01*
X205361785Y-18181161D01*
X205121289Y-18149500D01*
X205121288Y-18149500D01*
X204878712Y-18149500D01*
X204878711Y-18149500D01*
X204638214Y-18181161D01*
X204403895Y-18243947D01*
X204179794Y-18336773D01*
X204179785Y-18336777D01*
X203969706Y-18458067D01*
X203777263Y-18605733D01*
X203777256Y-18605739D01*
X203605739Y-18777256D01*
X203605733Y-18777263D01*
X203458067Y-18969706D01*
X203336777Y-19179785D01*
X203336773Y-19179794D01*
X203243947Y-19403895D01*
X203181161Y-19638214D01*
X203149500Y-19878711D01*
X6850500Y-19878711D01*
X6818838Y-19638211D01*
X6756054Y-19403900D01*
X6663224Y-19179788D01*
X6541936Y-18969711D01*
X6394265Y-18777262D01*
X6394260Y-18777256D01*
X6222743Y-18605739D01*
X6222736Y-18605733D01*
X6030293Y-18458067D01*
X6030292Y-18458066D01*
X6030289Y-18458064D01*
X5820212Y-18336776D01*
X5820205Y-18336773D01*
X5596104Y-18243947D01*
X5361785Y-18181161D01*
X5121289Y-18149500D01*
X5121288Y-18149500D01*
X4878712Y-18149500D01*
X4878711Y-18149500D01*
X4638214Y-18181161D01*
X4403895Y-18243947D01*
X4179794Y-18336773D01*
X4179785Y-18336777D01*
X3969706Y-18458067D01*
X3777263Y-18605733D01*
X3777256Y-18605739D01*
X3605739Y-18777256D01*
X3605733Y-18777263D01*
X3458067Y-18969706D01*
X3336777Y-19179785D01*
X3336773Y-19179794D01*
X3243947Y-19403895D01*
X3181161Y-19638214D01*
X3149500Y-19878711D01*
X500500Y-19878711D01*
X500500Y164596D01*
X1649500Y164596D01*
X1649500Y-164596D01*
X1681765Y-492201D01*
X1681768Y-492218D01*
X1745984Y-815066D01*
X1745987Y-815077D01*
X1841552Y-1130112D01*
X1967528Y-1434244D01*
X1967535Y-1434258D01*
X2122707Y-1724567D01*
X2122718Y-1724585D01*
X2305601Y-1998289D01*
X2305611Y-1998303D01*
X2514453Y-2252777D01*
X2747222Y-2485546D01*
X2747227Y-2485550D01*
X2747228Y-2485551D01*
X3001702Y-2694393D01*
X3275421Y-2877286D01*
X3533954Y-3015474D01*
X3583797Y-3064435D01*
X3599500Y-3124831D01*
X3599500Y-8885362D01*
X3599499Y-8885377D01*
X3599499Y-9110220D01*
X3633985Y-9327952D01*
X3702103Y-9537603D01*
X3702104Y-9537606D01*
X3802187Y-9734025D01*
X3931751Y-9912357D01*
X3931755Y-9912361D01*
X3931758Y-9912365D01*
X4085283Y-10065890D01*
X4091965Y-10072572D01*
X4091976Y-10072582D01*
X7928632Y-13909238D01*
X7928646Y-13909253D01*
X7931757Y-13912364D01*
X7931758Y-13912365D01*
X8087635Y-14068242D01*
X8087638Y-14068244D01*
X8087642Y-14068248D01*
X8249372Y-14185750D01*
X8265978Y-14197815D01*
X8394375Y-14263237D01*
X8462393Y-14297895D01*
X8462396Y-14297896D01*
X8567221Y-14331955D01*
X8672049Y-14366015D01*
X8889778Y-14400500D01*
X16284134Y-14400500D01*
X16303531Y-14402026D01*
X16318112Y-14404336D01*
X16388594Y-14415500D01*
X16388598Y-14415500D01*
X16611406Y-14415500D01*
X16681887Y-14404336D01*
X16696468Y-14402026D01*
X16715866Y-14400500D01*
X19284134Y-14400500D01*
X19303531Y-14402026D01*
X19318112Y-14404336D01*
X19388594Y-14415500D01*
X19388598Y-14415500D01*
X19611406Y-14415500D01*
X19681887Y-14404336D01*
X19696468Y-14402026D01*
X19715866Y-14400500D01*
X22284134Y-14400500D01*
X22303531Y-14402026D01*
X22318112Y-14404336D01*
X22388594Y-14415500D01*
X22388598Y-14415500D01*
X22611406Y-14415500D01*
X22681887Y-14404336D01*
X22696468Y-14402026D01*
X22715866Y-14400500D01*
X25284134Y-14400500D01*
X25303531Y-14402026D01*
X25318112Y-14404336D01*
X25388594Y-14415500D01*
X25388598Y-14415500D01*
X25611406Y-14415500D01*
X25681887Y-14404336D01*
X25696468Y-14402026D01*
X25715866Y-14400500D01*
X28284134Y-14400500D01*
X28303531Y-14402026D01*
X28318112Y-14404336D01*
X28388594Y-14415500D01*
X28388598Y-14415500D01*
X28611406Y-14415500D01*
X28681887Y-14404336D01*
X28696468Y-14402026D01*
X28715866Y-14400500D01*
X31284134Y-14400500D01*
X31303531Y-14402026D01*
X31318112Y-14404336D01*
X31388594Y-14415500D01*
X31388598Y-14415500D01*
X31611406Y-14415500D01*
X31681887Y-14404336D01*
X31696468Y-14402026D01*
X31715866Y-14400500D01*
X34284134Y-14400500D01*
X34303531Y-14402026D01*
X34318112Y-14404336D01*
X34388594Y-14415500D01*
X34388598Y-14415500D01*
X34611406Y-14415500D01*
X34681887Y-14404336D01*
X34696468Y-14402026D01*
X34715866Y-14400500D01*
X37284134Y-14400500D01*
X37303531Y-14402026D01*
X37318112Y-14404336D01*
X37388594Y-14415500D01*
X37388598Y-14415500D01*
X37611406Y-14415500D01*
X37681887Y-14404336D01*
X37696468Y-14402026D01*
X37715866Y-14400500D01*
X40284134Y-14400500D01*
X40303531Y-14402026D01*
X40318112Y-14404336D01*
X40388594Y-14415500D01*
X40388598Y-14415500D01*
X40611406Y-14415500D01*
X40681887Y-14404336D01*
X40696468Y-14402026D01*
X40715866Y-14400500D01*
X43284134Y-14400500D01*
X43303531Y-14402026D01*
X43318112Y-14404336D01*
X43388594Y-14415500D01*
X43388598Y-14415500D01*
X43611406Y-14415500D01*
X43681887Y-14404336D01*
X43696468Y-14402026D01*
X43715866Y-14400500D01*
X46284134Y-14400500D01*
X46303531Y-14402026D01*
X46318112Y-14404336D01*
X46388594Y-14415500D01*
X46388598Y-14415500D01*
X46611406Y-14415500D01*
X46681887Y-14404336D01*
X46696468Y-14402026D01*
X46715866Y-14400500D01*
X49284134Y-14400500D01*
X49303531Y-14402026D01*
X49318112Y-14404336D01*
X49388594Y-14415500D01*
X49388598Y-14415500D01*
X49611406Y-14415500D01*
X49681887Y-14404336D01*
X49696468Y-14402026D01*
X49715866Y-14400500D01*
X52284134Y-14400500D01*
X52303531Y-14402026D01*
X52318112Y-14404336D01*
X52388594Y-14415500D01*
X52388598Y-14415500D01*
X52611406Y-14415500D01*
X52681887Y-14404336D01*
X52696468Y-14402026D01*
X52715866Y-14400500D01*
X55284134Y-14400500D01*
X55303531Y-14402026D01*
X55318112Y-14404336D01*
X55388594Y-14415500D01*
X55388598Y-14415500D01*
X55611406Y-14415500D01*
X55681887Y-14404336D01*
X55696468Y-14402026D01*
X55715866Y-14400500D01*
X58284134Y-14400500D01*
X58303531Y-14402026D01*
X58318112Y-14404336D01*
X58388594Y-14415500D01*
X58388598Y-14415500D01*
X58611406Y-14415500D01*
X58681887Y-14404336D01*
X58696468Y-14402026D01*
X58715866Y-14400500D01*
X61284134Y-14400500D01*
X61303531Y-14402026D01*
X61318112Y-14404336D01*
X61388594Y-14415500D01*
X61388598Y-14415500D01*
X61611406Y-14415500D01*
X61681887Y-14404336D01*
X61696468Y-14402026D01*
X61715866Y-14400500D01*
X64284134Y-14400500D01*
X64303531Y-14402026D01*
X64318112Y-14404336D01*
X64388594Y-14415500D01*
X64388598Y-14415500D01*
X64611406Y-14415500D01*
X64681887Y-14404336D01*
X64696468Y-14402026D01*
X64715866Y-14400500D01*
X67284134Y-14400500D01*
X67303531Y-14402026D01*
X67318112Y-14404336D01*
X67388594Y-14415500D01*
X67388598Y-14415500D01*
X67611406Y-14415500D01*
X67681887Y-14404336D01*
X67696468Y-14402026D01*
X67715866Y-14400500D01*
X70284134Y-14400500D01*
X70303531Y-14402026D01*
X70318112Y-14404336D01*
X70388594Y-14415500D01*
X70388598Y-14415500D01*
X70611406Y-14415500D01*
X70681887Y-14404336D01*
X70696468Y-14402026D01*
X70715866Y-14400500D01*
X73284134Y-14400500D01*
X73303531Y-14402026D01*
X73318112Y-14404336D01*
X73388594Y-14415500D01*
X73388598Y-14415500D01*
X73611406Y-14415500D01*
X73681887Y-14404336D01*
X73696468Y-14402026D01*
X73715866Y-14400500D01*
X76284134Y-14400500D01*
X76303531Y-14402026D01*
X76318112Y-14404336D01*
X76388594Y-14415500D01*
X76388598Y-14415500D01*
X76611406Y-14415500D01*
X76681887Y-14404336D01*
X76696468Y-14402026D01*
X76715866Y-14400500D01*
X79284134Y-14400500D01*
X79303531Y-14402026D01*
X79318112Y-14404336D01*
X79388594Y-14415500D01*
X79388598Y-14415500D01*
X79611406Y-14415500D01*
X79681887Y-14404336D01*
X79696468Y-14402026D01*
X79715866Y-14400500D01*
X82284134Y-14400500D01*
X82303531Y-14402026D01*
X82318112Y-14404336D01*
X82388594Y-14415500D01*
X82388598Y-14415500D01*
X82611406Y-14415500D01*
X82681887Y-14404336D01*
X82696468Y-14402026D01*
X82715866Y-14400500D01*
X85409134Y-14400500D01*
X85428531Y-14402026D01*
X85443112Y-14404336D01*
X85513594Y-14415500D01*
X85513598Y-14415500D01*
X85736406Y-14415500D01*
X85806887Y-14404336D01*
X85821468Y-14402026D01*
X85840866Y-14400500D01*
X88284134Y-14400500D01*
X88303531Y-14402026D01*
X88318112Y-14404336D01*
X88388594Y-14415500D01*
X88388598Y-14415500D01*
X88611406Y-14415500D01*
X88681887Y-14404336D01*
X88696468Y-14402026D01*
X88715866Y-14400500D01*
X91284134Y-14400500D01*
X91303531Y-14402026D01*
X91318112Y-14404336D01*
X91388594Y-14415500D01*
X91388598Y-14415500D01*
X91611406Y-14415500D01*
X91681887Y-14404336D01*
X91696468Y-14402026D01*
X91715866Y-14400500D01*
X94284134Y-14400500D01*
X94303531Y-14402026D01*
X94318112Y-14404336D01*
X94388594Y-14415500D01*
X94388598Y-14415500D01*
X94611406Y-14415500D01*
X94681887Y-14404336D01*
X94696468Y-14402026D01*
X94715866Y-14400500D01*
X97284134Y-14400500D01*
X97303531Y-14402026D01*
X97318112Y-14404336D01*
X97388594Y-14415500D01*
X97388598Y-14415500D01*
X97611406Y-14415500D01*
X97681887Y-14404336D01*
X97696468Y-14402026D01*
X97715866Y-14400500D01*
X100284134Y-14400500D01*
X100303531Y-14402026D01*
X100318112Y-14404336D01*
X100388594Y-14415500D01*
X100388598Y-14415500D01*
X100611406Y-14415500D01*
X100681887Y-14404336D01*
X100696468Y-14402026D01*
X100715866Y-14400500D01*
X103284134Y-14400500D01*
X103303531Y-14402026D01*
X103318112Y-14404336D01*
X103388594Y-14415500D01*
X103388598Y-14415500D01*
X103611406Y-14415500D01*
X103681887Y-14404336D01*
X103696468Y-14402026D01*
X103715866Y-14400500D01*
X106284134Y-14400500D01*
X106303531Y-14402026D01*
X106318112Y-14404336D01*
X106388594Y-14415500D01*
X106388598Y-14415500D01*
X106611406Y-14415500D01*
X106681887Y-14404336D01*
X106696468Y-14402026D01*
X106715866Y-14400500D01*
X109284134Y-14400500D01*
X109303531Y-14402026D01*
X109318112Y-14404336D01*
X109388594Y-14415500D01*
X109388598Y-14415500D01*
X109611406Y-14415500D01*
X109681887Y-14404336D01*
X109696468Y-14402026D01*
X109715866Y-14400500D01*
X112284134Y-14400500D01*
X112303531Y-14402026D01*
X112318112Y-14404336D01*
X112388594Y-14415500D01*
X112388598Y-14415500D01*
X112611406Y-14415500D01*
X112681887Y-14404336D01*
X112696468Y-14402026D01*
X112715866Y-14400500D01*
X115284134Y-14400500D01*
X115303531Y-14402026D01*
X115318112Y-14404336D01*
X115388594Y-14415500D01*
X115388598Y-14415500D01*
X115611406Y-14415500D01*
X115681887Y-14404336D01*
X115696468Y-14402026D01*
X115715866Y-14400500D01*
X118284134Y-14400500D01*
X118303531Y-14402026D01*
X118318112Y-14404336D01*
X118388594Y-14415500D01*
X118388598Y-14415500D01*
X118611406Y-14415500D01*
X118681887Y-14404336D01*
X118696468Y-14402026D01*
X118715866Y-14400500D01*
X121284134Y-14400500D01*
X121303531Y-14402026D01*
X121318112Y-14404336D01*
X121388594Y-14415500D01*
X121388598Y-14415500D01*
X121611406Y-14415500D01*
X121681887Y-14404336D01*
X121696468Y-14402026D01*
X121715866Y-14400500D01*
X124284134Y-14400500D01*
X124303531Y-14402026D01*
X124318112Y-14404336D01*
X124388594Y-14415500D01*
X124388598Y-14415500D01*
X124611406Y-14415500D01*
X124681887Y-14404336D01*
X124696468Y-14402026D01*
X124715866Y-14400500D01*
X127284134Y-14400500D01*
X127303531Y-14402026D01*
X127318112Y-14404336D01*
X127388594Y-14415500D01*
X127388598Y-14415500D01*
X127611406Y-14415500D01*
X127681887Y-14404336D01*
X127696468Y-14402026D01*
X127715866Y-14400500D01*
X130284134Y-14400500D01*
X130303531Y-14402026D01*
X130318112Y-14404336D01*
X130388594Y-14415500D01*
X130388598Y-14415500D01*
X130611406Y-14415500D01*
X130681887Y-14404336D01*
X130696468Y-14402026D01*
X130715866Y-14400500D01*
X133284134Y-14400500D01*
X133303531Y-14402026D01*
X133318112Y-14404336D01*
X133388594Y-14415500D01*
X133388598Y-14415500D01*
X133611406Y-14415500D01*
X133681887Y-14404336D01*
X133696468Y-14402026D01*
X133715866Y-14400500D01*
X136284134Y-14400500D01*
X136303531Y-14402026D01*
X136318112Y-14404336D01*
X136388594Y-14415500D01*
X136388598Y-14415500D01*
X136611406Y-14415500D01*
X136681887Y-14404336D01*
X136696468Y-14402026D01*
X136715866Y-14400500D01*
X139284134Y-14400500D01*
X139303531Y-14402026D01*
X139318112Y-14404336D01*
X139388594Y-14415500D01*
X139388598Y-14415500D01*
X139611406Y-14415500D01*
X139681887Y-14404336D01*
X139696468Y-14402026D01*
X139715866Y-14400500D01*
X142284134Y-14400500D01*
X142303531Y-14402026D01*
X142318112Y-14404336D01*
X142388594Y-14415500D01*
X142388598Y-14415500D01*
X142611406Y-14415500D01*
X142681887Y-14404336D01*
X142696468Y-14402026D01*
X142715866Y-14400500D01*
X145284134Y-14400500D01*
X145303531Y-14402026D01*
X145318112Y-14404336D01*
X145388594Y-14415500D01*
X145388598Y-14415500D01*
X145611406Y-14415500D01*
X145681887Y-14404336D01*
X145696468Y-14402026D01*
X145715866Y-14400500D01*
X148284134Y-14400500D01*
X148303531Y-14402026D01*
X148318112Y-14404336D01*
X148388594Y-14415500D01*
X148388598Y-14415500D01*
X148611406Y-14415500D01*
X148681887Y-14404336D01*
X148696468Y-14402026D01*
X148715866Y-14400500D01*
X151284134Y-14400500D01*
X151303531Y-14402026D01*
X151318112Y-14404336D01*
X151388594Y-14415500D01*
X151388598Y-14415500D01*
X151611406Y-14415500D01*
X151681887Y-14404336D01*
X151696468Y-14402026D01*
X151715866Y-14400500D01*
X154284134Y-14400500D01*
X154303531Y-14402026D01*
X154318112Y-14404336D01*
X154388594Y-14415500D01*
X154388598Y-14415500D01*
X154611406Y-14415500D01*
X154681887Y-14404336D01*
X154696468Y-14402026D01*
X154715866Y-14400500D01*
X157284134Y-14400500D01*
X157303531Y-14402026D01*
X157318112Y-14404336D01*
X157388594Y-14415500D01*
X157388598Y-14415500D01*
X157611406Y-14415500D01*
X157681887Y-14404336D01*
X157696468Y-14402026D01*
X157715866Y-14400500D01*
X160284134Y-14400500D01*
X160303531Y-14402026D01*
X160318112Y-14404336D01*
X160388594Y-14415500D01*
X160388598Y-14415500D01*
X160611406Y-14415500D01*
X160681887Y-14404336D01*
X160696468Y-14402026D01*
X160715866Y-14400500D01*
X163284134Y-14400500D01*
X163303531Y-14402026D01*
X163318112Y-14404336D01*
X163388594Y-14415500D01*
X163388598Y-14415500D01*
X163611406Y-14415500D01*
X163681887Y-14404336D01*
X163696468Y-14402026D01*
X163715866Y-14400500D01*
X166284134Y-14400500D01*
X166303531Y-14402026D01*
X166318112Y-14404336D01*
X166388594Y-14415500D01*
X166388598Y-14415500D01*
X166611406Y-14415500D01*
X166681887Y-14404336D01*
X166696468Y-14402026D01*
X166715866Y-14400500D01*
X169284134Y-14400500D01*
X169303531Y-14402026D01*
X169318112Y-14404336D01*
X169388594Y-14415500D01*
X169388598Y-14415500D01*
X169611406Y-14415500D01*
X169681887Y-14404336D01*
X169696468Y-14402026D01*
X169715866Y-14400500D01*
X172284134Y-14400500D01*
X172303531Y-14402026D01*
X172318112Y-14404336D01*
X172388594Y-14415500D01*
X172388598Y-14415500D01*
X172611406Y-14415500D01*
X172681887Y-14404336D01*
X172696468Y-14402026D01*
X172715866Y-14400500D01*
X175284134Y-14400500D01*
X175303531Y-14402026D01*
X175318112Y-14404336D01*
X175388594Y-14415500D01*
X175388598Y-14415500D01*
X175611406Y-14415500D01*
X175681887Y-14404336D01*
X175696468Y-14402026D01*
X175715866Y-14400500D01*
X178284134Y-14400500D01*
X178303531Y-14402026D01*
X178318112Y-14404336D01*
X178388594Y-14415500D01*
X178388598Y-14415500D01*
X178611406Y-14415500D01*
X178681887Y-14404336D01*
X178696468Y-14402026D01*
X178715866Y-14400500D01*
X181284134Y-14400500D01*
X181303531Y-14402026D01*
X181318112Y-14404336D01*
X181388594Y-14415500D01*
X181388598Y-14415500D01*
X181611406Y-14415500D01*
X181681887Y-14404336D01*
X181696468Y-14402026D01*
X181715866Y-14400500D01*
X184284134Y-14400500D01*
X184303531Y-14402026D01*
X184318112Y-14404336D01*
X184388594Y-14415500D01*
X184388598Y-14415500D01*
X184611406Y-14415500D01*
X184681887Y-14404336D01*
X184696468Y-14402026D01*
X184715866Y-14400500D01*
X187284134Y-14400500D01*
X187303531Y-14402026D01*
X187318112Y-14404336D01*
X187388594Y-14415500D01*
X187388598Y-14415500D01*
X187611406Y-14415500D01*
X187681887Y-14404336D01*
X187696468Y-14402026D01*
X187715866Y-14400500D01*
X190284134Y-14400500D01*
X190303531Y-14402026D01*
X190318112Y-14404336D01*
X190388594Y-14415500D01*
X190388598Y-14415500D01*
X190611406Y-14415500D01*
X190681887Y-14404336D01*
X190696468Y-14402026D01*
X190715866Y-14400500D01*
X193284134Y-14400500D01*
X193303531Y-14402026D01*
X193318112Y-14404336D01*
X193388594Y-14415500D01*
X193388598Y-14415500D01*
X193611406Y-14415500D01*
X193681887Y-14404336D01*
X193696468Y-14402026D01*
X193715866Y-14400500D01*
X200884643Y-14400500D01*
X200884667Y-14400501D01*
X200889778Y-14400501D01*
X201110221Y-14400501D01*
X201110222Y-14400501D01*
X201327951Y-14366015D01*
X201537606Y-14297895D01*
X201734022Y-14197815D01*
X201912365Y-14068242D01*
X202068242Y-13912365D01*
X202068243Y-13912363D01*
X202075303Y-13905303D01*
X202075309Y-13905296D01*
X205905296Y-10075309D01*
X205905303Y-10075303D01*
X205912363Y-10068243D01*
X205912365Y-10068242D01*
X206068242Y-9912365D01*
X206197815Y-9734022D01*
X206297895Y-9537606D01*
X206366015Y-9327951D01*
X206400500Y-9110222D01*
X206400500Y-3124831D01*
X206420185Y-3057792D01*
X206466045Y-3015474D01*
X206724579Y-2877286D01*
X206998298Y-2694393D01*
X207252772Y-2485551D01*
X207485551Y-2252772D01*
X207694393Y-1998298D01*
X207877286Y-1724579D01*
X208032469Y-1434251D01*
X208158448Y-1130111D01*
X208254010Y-815087D01*
X208254012Y-815077D01*
X208254015Y-815066D01*
X208282916Y-669760D01*
X208318233Y-492213D01*
X208350500Y-164600D01*
X208350500Y164600D01*
X208318233Y492213D01*
X208282916Y669760D01*
X208254015Y815066D01*
X208254012Y815077D01*
X208254011Y815077D01*
X208254010Y815087D01*
X208158448Y1130111D01*
X208032469Y1434251D01*
X207877286Y1724579D01*
X207694393Y1998298D01*
X207485551Y2252772D01*
X207252772Y2485551D01*
X206998298Y2694393D01*
X206724579Y2877286D01*
X206434251Y3032469D01*
X206130111Y3158448D01*
X205815087Y3254010D01*
X205815077Y3254012D01*
X205815066Y3254015D01*
X205669760Y3282916D01*
X205492213Y3318233D01*
X205164600Y3350500D01*
X204835400Y3350500D01*
X204507787Y3318233D01*
X204365361Y3289903D01*
X204184933Y3254015D01*
X204184922Y3254012D01*
X204184919Y3254011D01*
X204184913Y3254010D01*
X203869889Y3158448D01*
X203565749Y3032469D01*
X203275421Y2877286D01*
X203001702Y2694393D01*
X203001696Y2694388D01*
X202747222Y2485546D01*
X202514453Y2252777D01*
X202305611Y1998303D01*
X202305601Y1998289D01*
X202122718Y1724585D01*
X202122707Y1724567D01*
X202015030Y1523117D01*
X201967531Y1434251D01*
X201967528Y1434245D01*
X201967528Y1434244D01*
X201841552Y1130112D01*
X201745987Y815077D01*
X201745984Y815066D01*
X201681768Y492218D01*
X201681765Y492201D01*
X201649500Y164596D01*
X201649500Y-164596D01*
X201681765Y-492201D01*
X201681768Y-492218D01*
X201745984Y-815066D01*
X201745987Y-815077D01*
X201841552Y-1130112D01*
X201967528Y-1434244D01*
X201967535Y-1434258D01*
X202122707Y-1724567D01*
X202122718Y-1724585D01*
X202305601Y-1998289D01*
X202305611Y-1998303D01*
X202514453Y-2252777D01*
X202747222Y-2485546D01*
X202747227Y-2485550D01*
X202747228Y-2485551D01*
X203001702Y-2694393D01*
X203275421Y-2877286D01*
X203533954Y-3015474D01*
X203583797Y-3064435D01*
X203599500Y-3124831D01*
X203599500Y-8368532D01*
X203579815Y-8435571D01*
X203563181Y-8456213D01*
X200456213Y-11563181D01*
X200394890Y-11596666D01*
X200368532Y-11599500D01*
X193715866Y-11599500D01*
X193696468Y-11597973D01*
X193681887Y-11595663D01*
X193611406Y-11584500D01*
X193611402Y-11584500D01*
X193388598Y-11584500D01*
X193388594Y-11584500D01*
X193318112Y-11595663D01*
X193303531Y-11597973D01*
X193284134Y-11599500D01*
X190715866Y-11599500D01*
X190696468Y-11597973D01*
X190681887Y-11595663D01*
X190611406Y-11584500D01*
X190611402Y-11584500D01*
X190388598Y-11584500D01*
X190388594Y-11584500D01*
X190318112Y-11595663D01*
X190303531Y-11597973D01*
X190284134Y-11599500D01*
X187715866Y-11599500D01*
X187696468Y-11597973D01*
X187681887Y-11595663D01*
X187611406Y-11584500D01*
X187611402Y-11584500D01*
X187388598Y-11584500D01*
X187388594Y-11584500D01*
X187318112Y-11595663D01*
X187303531Y-11597973D01*
X187284134Y-11599500D01*
X184715866Y-11599500D01*
X184696468Y-11597973D01*
X184681887Y-11595663D01*
X184611406Y-11584500D01*
X184611402Y-11584500D01*
X184388598Y-11584500D01*
X184388594Y-11584500D01*
X184318112Y-11595663D01*
X184303531Y-11597973D01*
X184284134Y-11599500D01*
X181715866Y-11599500D01*
X181696468Y-11597973D01*
X181681887Y-11595663D01*
X181611406Y-11584500D01*
X181611402Y-11584500D01*
X181388598Y-11584500D01*
X181388594Y-11584500D01*
X181318112Y-11595663D01*
X181303531Y-11597973D01*
X181284134Y-11599500D01*
X178715866Y-11599500D01*
X178696468Y-11597973D01*
X178681887Y-11595663D01*
X178611406Y-11584500D01*
X178611402Y-11584500D01*
X178388598Y-11584500D01*
X178388594Y-11584500D01*
X178318112Y-11595663D01*
X178303531Y-11597973D01*
X178284134Y-11599500D01*
X175715866Y-11599500D01*
X175696468Y-11597973D01*
X175681887Y-11595663D01*
X175611406Y-11584500D01*
X175611402Y-11584500D01*
X175388598Y-11584500D01*
X175388594Y-11584500D01*
X175318112Y-11595663D01*
X175303531Y-11597973D01*
X175284134Y-11599500D01*
X172715866Y-11599500D01*
X172696468Y-11597973D01*
X172681887Y-11595663D01*
X172611406Y-11584500D01*
X172611402Y-11584500D01*
X172388598Y-11584500D01*
X172388594Y-11584500D01*
X172318112Y-11595663D01*
X172303531Y-11597973D01*
X172284134Y-11599500D01*
X169715866Y-11599500D01*
X169696468Y-11597973D01*
X169681887Y-11595663D01*
X169611406Y-11584500D01*
X169611402Y-11584500D01*
X169388598Y-11584500D01*
X169388594Y-11584500D01*
X169318112Y-11595663D01*
X169303531Y-11597973D01*
X169284134Y-11599500D01*
X166715866Y-11599500D01*
X166696468Y-11597973D01*
X166681887Y-11595663D01*
X166611406Y-11584500D01*
X166611402Y-11584500D01*
X166388598Y-11584500D01*
X166388594Y-11584500D01*
X166318112Y-11595663D01*
X166303531Y-11597973D01*
X166284134Y-11599500D01*
X163715866Y-11599500D01*
X163696468Y-11597973D01*
X163681887Y-11595663D01*
X163611406Y-11584500D01*
X163611402Y-11584500D01*
X163388598Y-11584500D01*
X163388594Y-11584500D01*
X163318112Y-11595663D01*
X163303531Y-11597973D01*
X163284134Y-11599500D01*
X160715866Y-11599500D01*
X160696468Y-11597973D01*
X160681887Y-11595663D01*
X160611406Y-11584500D01*
X160611402Y-11584500D01*
X160388598Y-11584500D01*
X160388594Y-11584500D01*
X160318112Y-11595663D01*
X160303531Y-11597973D01*
X160284134Y-11599500D01*
X157715866Y-11599500D01*
X157696468Y-11597973D01*
X157681887Y-11595663D01*
X157611406Y-11584500D01*
X157611402Y-11584500D01*
X157388598Y-11584500D01*
X157388594Y-11584500D01*
X157318112Y-11595663D01*
X157303531Y-11597973D01*
X157284134Y-11599500D01*
X154715866Y-11599500D01*
X154696468Y-11597973D01*
X154681887Y-11595663D01*
X154611406Y-11584500D01*
X154611402Y-11584500D01*
X154388598Y-11584500D01*
X154388594Y-11584500D01*
X154318112Y-11595663D01*
X154303531Y-11597973D01*
X154284134Y-11599500D01*
X151715866Y-11599500D01*
X151696468Y-11597973D01*
X151681887Y-11595663D01*
X151611406Y-11584500D01*
X151611402Y-11584500D01*
X151388598Y-11584500D01*
X151388594Y-11584500D01*
X151318112Y-11595663D01*
X151303531Y-11597973D01*
X151284134Y-11599500D01*
X148715866Y-11599500D01*
X148696468Y-11597973D01*
X148681887Y-11595663D01*
X148611406Y-11584500D01*
X148611402Y-11584500D01*
X148388598Y-11584500D01*
X148388594Y-11584500D01*
X148318112Y-11595663D01*
X148303531Y-11597973D01*
X148284134Y-11599500D01*
X145715866Y-11599500D01*
X145696468Y-11597973D01*
X145681887Y-11595663D01*
X145611406Y-11584500D01*
X145611402Y-11584500D01*
X145388598Y-11584500D01*
X145388594Y-11584500D01*
X145318112Y-11595663D01*
X145303531Y-11597973D01*
X145284134Y-11599500D01*
X142715866Y-11599500D01*
X142696468Y-11597973D01*
X142681887Y-11595663D01*
X142611406Y-11584500D01*
X142611402Y-11584500D01*
X142388598Y-11584500D01*
X142388594Y-11584500D01*
X142318112Y-11595663D01*
X142303531Y-11597973D01*
X142284134Y-11599500D01*
X139715866Y-11599500D01*
X139696468Y-11597973D01*
X139681887Y-11595663D01*
X139611406Y-11584500D01*
X139611402Y-11584500D01*
X139388598Y-11584500D01*
X139388594Y-11584500D01*
X139318112Y-11595663D01*
X139303531Y-11597973D01*
X139284134Y-11599500D01*
X136715866Y-11599500D01*
X136696468Y-11597973D01*
X136681887Y-11595663D01*
X136611406Y-11584500D01*
X136611402Y-11584500D01*
X136388598Y-11584500D01*
X136388594Y-11584500D01*
X136318112Y-11595663D01*
X136303531Y-11597973D01*
X136284134Y-11599500D01*
X133715866Y-11599500D01*
X133696468Y-11597973D01*
X133681887Y-11595663D01*
X133611406Y-11584500D01*
X133611402Y-11584500D01*
X133388598Y-11584500D01*
X133388594Y-11584500D01*
X133318112Y-11595663D01*
X133303531Y-11597973D01*
X133284134Y-11599500D01*
X130715866Y-11599500D01*
X130696468Y-11597973D01*
X130681887Y-11595663D01*
X130611406Y-11584500D01*
X130611402Y-11584500D01*
X130388598Y-11584500D01*
X130388594Y-11584500D01*
X130318112Y-11595663D01*
X130303531Y-11597973D01*
X130284134Y-11599500D01*
X127715866Y-11599500D01*
X127696468Y-11597973D01*
X127681887Y-11595663D01*
X127611406Y-11584500D01*
X127611402Y-11584500D01*
X127388598Y-11584500D01*
X127388594Y-11584500D01*
X127318112Y-11595663D01*
X127303531Y-11597973D01*
X127284134Y-11599500D01*
X124715866Y-11599500D01*
X124696468Y-11597973D01*
X124681887Y-11595663D01*
X124611406Y-11584500D01*
X124611402Y-11584500D01*
X124388598Y-11584500D01*
X124388594Y-11584500D01*
X124318112Y-11595663D01*
X124303531Y-11597973D01*
X124284134Y-11599500D01*
X121715866Y-11599500D01*
X121696468Y-11597973D01*
X121681887Y-11595663D01*
X121611406Y-11584500D01*
X121611402Y-11584500D01*
X121388598Y-11584500D01*
X121388594Y-11584500D01*
X121318112Y-11595663D01*
X121303531Y-11597973D01*
X121284134Y-11599500D01*
X118715866Y-11599500D01*
X118696468Y-11597973D01*
X118681887Y-11595663D01*
X118611406Y-11584500D01*
X118611402Y-11584500D01*
X118388598Y-11584500D01*
X118388594Y-11584500D01*
X118318112Y-11595663D01*
X118303531Y-11597973D01*
X118284134Y-11599500D01*
X115715866Y-11599500D01*
X115696468Y-11597973D01*
X115681887Y-11595663D01*
X115611406Y-11584500D01*
X115611402Y-11584500D01*
X115388598Y-11584500D01*
X115388594Y-11584500D01*
X115318112Y-11595663D01*
X115303531Y-11597973D01*
X115284134Y-11599500D01*
X112715866Y-11599500D01*
X112696468Y-11597973D01*
X112681887Y-11595663D01*
X112611406Y-11584500D01*
X112611402Y-11584500D01*
X112388598Y-11584500D01*
X112388594Y-11584500D01*
X112318112Y-11595663D01*
X112303531Y-11597973D01*
X112284134Y-11599500D01*
X109715866Y-11599500D01*
X109696468Y-11597973D01*
X109681887Y-11595663D01*
X109611406Y-11584500D01*
X109611402Y-11584500D01*
X109388598Y-11584500D01*
X109388594Y-11584500D01*
X109318112Y-11595663D01*
X109303531Y-11597973D01*
X109284134Y-11599500D01*
X106715866Y-11599500D01*
X106696468Y-11597973D01*
X106681887Y-11595663D01*
X106611406Y-11584500D01*
X106611402Y-11584500D01*
X106388598Y-11584500D01*
X106388594Y-11584500D01*
X106318112Y-11595663D01*
X106303531Y-11597973D01*
X106284134Y-11599500D01*
X103715866Y-11599500D01*
X103696468Y-11597973D01*
X103681887Y-11595663D01*
X103611406Y-11584500D01*
X103611402Y-11584500D01*
X103388598Y-11584500D01*
X103388594Y-11584500D01*
X103318112Y-11595663D01*
X103303531Y-11597973D01*
X103284134Y-11599500D01*
X100715866Y-11599500D01*
X100696468Y-11597973D01*
X100681887Y-11595663D01*
X100611406Y-11584500D01*
X100611402Y-11584500D01*
X100388598Y-11584500D01*
X100388594Y-11584500D01*
X100318112Y-11595663D01*
X100303531Y-11597973D01*
X100284134Y-11599500D01*
X97715866Y-11599500D01*
X97696468Y-11597973D01*
X97681887Y-11595663D01*
X97611406Y-11584500D01*
X97611402Y-11584500D01*
X97388598Y-11584500D01*
X97388594Y-11584500D01*
X97318112Y-11595663D01*
X97303531Y-11597973D01*
X97284134Y-11599500D01*
X94715866Y-11599500D01*
X94696468Y-11597973D01*
X94681887Y-11595663D01*
X94611406Y-11584500D01*
X94611402Y-11584500D01*
X94388598Y-11584500D01*
X94388594Y-11584500D01*
X94318112Y-11595663D01*
X94303531Y-11597973D01*
X94284134Y-11599500D01*
X91715866Y-11599500D01*
X91696468Y-11597973D01*
X91681887Y-11595663D01*
X91611406Y-11584500D01*
X91611402Y-11584500D01*
X91388598Y-11584500D01*
X91388594Y-11584500D01*
X91318112Y-11595663D01*
X91303531Y-11597973D01*
X91284134Y-11599500D01*
X88715866Y-11599500D01*
X88696468Y-11597973D01*
X88681887Y-11595663D01*
X88611406Y-11584500D01*
X88611402Y-11584500D01*
X88388598Y-11584500D01*
X88388594Y-11584500D01*
X88318112Y-11595663D01*
X88303531Y-11597973D01*
X88284134Y-11599500D01*
X85840866Y-11599500D01*
X85821468Y-11597973D01*
X85806887Y-11595663D01*
X85736406Y-11584500D01*
X85736402Y-11584500D01*
X85513598Y-11584500D01*
X85513594Y-11584500D01*
X85443112Y-11595663D01*
X85428531Y-11597973D01*
X85409134Y-11599500D01*
X82715866Y-11599500D01*
X82696468Y-11597973D01*
X82681887Y-11595663D01*
X82611406Y-11584500D01*
X82611402Y-11584500D01*
X82388598Y-11584500D01*
X82388594Y-11584500D01*
X82318112Y-11595663D01*
X82303531Y-11597973D01*
X82284134Y-11599500D01*
X79715866Y-11599500D01*
X79696468Y-11597973D01*
X79681887Y-11595663D01*
X79611406Y-11584500D01*
X79611402Y-11584500D01*
X79388598Y-11584500D01*
X79388594Y-11584500D01*
X79318112Y-11595663D01*
X79303531Y-11597973D01*
X79284134Y-11599500D01*
X76715866Y-11599500D01*
X76696468Y-11597973D01*
X76681887Y-11595663D01*
X76611406Y-11584500D01*
X76611402Y-11584500D01*
X76388598Y-11584500D01*
X76388594Y-11584500D01*
X76318112Y-11595663D01*
X76303531Y-11597973D01*
X76284134Y-11599500D01*
X73715866Y-11599500D01*
X73696468Y-11597973D01*
X73681887Y-11595663D01*
X73611406Y-11584500D01*
X73611402Y-11584500D01*
X73388598Y-11584500D01*
X73388594Y-11584500D01*
X73318112Y-11595663D01*
X73303531Y-11597973D01*
X73284134Y-11599500D01*
X70715866Y-11599500D01*
X70696468Y-11597973D01*
X70681887Y-11595663D01*
X70611406Y-11584500D01*
X70611402Y-11584500D01*
X70388598Y-11584500D01*
X70388594Y-11584500D01*
X70318112Y-11595663D01*
X70303531Y-11597973D01*
X70284134Y-11599500D01*
X67715866Y-11599500D01*
X67696468Y-11597973D01*
X67681887Y-11595663D01*
X67611406Y-11584500D01*
X67611402Y-11584500D01*
X67388598Y-11584500D01*
X67388594Y-11584500D01*
X67318112Y-11595663D01*
X67303531Y-11597973D01*
X67284134Y-11599500D01*
X64715866Y-11599500D01*
X64696468Y-11597973D01*
X64681887Y-11595663D01*
X64611406Y-11584500D01*
X64611402Y-11584500D01*
X64388598Y-11584500D01*
X64388594Y-11584500D01*
X64318112Y-11595663D01*
X64303531Y-11597973D01*
X64284134Y-11599500D01*
X61715866Y-11599500D01*
X61696468Y-11597973D01*
X61681887Y-11595663D01*
X61611406Y-11584500D01*
X61611402Y-11584500D01*
X61388598Y-11584500D01*
X61388594Y-11584500D01*
X61318112Y-11595663D01*
X61303531Y-11597973D01*
X61284134Y-11599500D01*
X58715866Y-11599500D01*
X58696468Y-11597973D01*
X58681887Y-11595663D01*
X58611406Y-11584500D01*
X58611402Y-11584500D01*
X58388598Y-11584500D01*
X58388594Y-11584500D01*
X58318112Y-11595663D01*
X58303531Y-11597973D01*
X58284134Y-11599500D01*
X55715866Y-11599500D01*
X55696468Y-11597973D01*
X55681887Y-11595663D01*
X55611406Y-11584500D01*
X55611402Y-11584500D01*
X55388598Y-11584500D01*
X55388594Y-11584500D01*
X55318112Y-11595663D01*
X55303531Y-11597973D01*
X55284134Y-11599500D01*
X52715866Y-11599500D01*
X52696468Y-11597973D01*
X52681887Y-11595663D01*
X52611406Y-11584500D01*
X52611402Y-11584500D01*
X52388598Y-11584500D01*
X52388594Y-11584500D01*
X52318112Y-11595663D01*
X52303531Y-11597973D01*
X52284134Y-11599500D01*
X49715866Y-11599500D01*
X49696468Y-11597973D01*
X49681887Y-11595663D01*
X49611406Y-11584500D01*
X49611402Y-11584500D01*
X49388598Y-11584500D01*
X49388594Y-11584500D01*
X49318112Y-11595663D01*
X49303531Y-11597973D01*
X49284134Y-11599500D01*
X46715866Y-11599500D01*
X46696468Y-11597973D01*
X46681887Y-11595663D01*
X46611406Y-11584500D01*
X46611402Y-11584500D01*
X46388598Y-11584500D01*
X46388594Y-11584500D01*
X46318112Y-11595663D01*
X46303531Y-11597973D01*
X46284134Y-11599500D01*
X43715866Y-11599500D01*
X43696468Y-11597973D01*
X43681887Y-11595663D01*
X43611406Y-11584500D01*
X43611402Y-11584500D01*
X43388598Y-11584500D01*
X43388594Y-11584500D01*
X43318112Y-11595663D01*
X43303531Y-11597973D01*
X43284134Y-11599500D01*
X40715866Y-11599500D01*
X40696468Y-11597973D01*
X40681887Y-11595663D01*
X40611406Y-11584500D01*
X40611402Y-11584500D01*
X40388598Y-11584500D01*
X40388594Y-11584500D01*
X40318112Y-11595663D01*
X40303531Y-11597973D01*
X40284134Y-11599500D01*
X37715866Y-11599500D01*
X37696468Y-11597973D01*
X37681887Y-11595663D01*
X37611406Y-11584500D01*
X37611402Y-11584500D01*
X37388598Y-11584500D01*
X37388594Y-11584500D01*
X37318112Y-11595663D01*
X37303531Y-11597973D01*
X37284134Y-11599500D01*
X34715866Y-11599500D01*
X34696468Y-11597973D01*
X34681887Y-11595663D01*
X34611406Y-11584500D01*
X34611402Y-11584500D01*
X34388598Y-11584500D01*
X34388594Y-11584500D01*
X34318112Y-11595663D01*
X34303531Y-11597973D01*
X34284134Y-11599500D01*
X31715866Y-11599500D01*
X31696468Y-11597973D01*
X31681887Y-11595663D01*
X31611406Y-11584500D01*
X31611402Y-11584500D01*
X31388598Y-11584500D01*
X31388594Y-11584500D01*
X31318112Y-11595663D01*
X31303531Y-11597973D01*
X31284134Y-11599500D01*
X28715866Y-11599500D01*
X28696468Y-11597973D01*
X28681887Y-11595663D01*
X28611406Y-11584500D01*
X28611402Y-11584500D01*
X28388598Y-11584500D01*
X28388594Y-11584500D01*
X28318112Y-11595663D01*
X28303531Y-11597973D01*
X28284134Y-11599500D01*
X25715866Y-11599500D01*
X25696468Y-11597973D01*
X25681887Y-11595663D01*
X25611406Y-11584500D01*
X25611402Y-11584500D01*
X25388598Y-11584500D01*
X25388594Y-11584500D01*
X25318112Y-11595663D01*
X25303531Y-11597973D01*
X25284134Y-11599500D01*
X22715866Y-11599500D01*
X22696468Y-11597973D01*
X22681887Y-11595663D01*
X22611406Y-11584500D01*
X22611402Y-11584500D01*
X22388598Y-11584500D01*
X22388594Y-11584500D01*
X22318112Y-11595663D01*
X22303531Y-11597973D01*
X22284134Y-11599500D01*
X19715866Y-11599500D01*
X19696468Y-11597973D01*
X19681887Y-11595663D01*
X19611406Y-11584500D01*
X19611402Y-11584500D01*
X19388598Y-11584500D01*
X19388594Y-11584500D01*
X19318112Y-11595663D01*
X19303531Y-11597973D01*
X19284134Y-11599500D01*
X16715866Y-11599500D01*
X16696468Y-11597973D01*
X16681887Y-11595663D01*
X16611406Y-11584500D01*
X16611402Y-11584500D01*
X16388598Y-11584500D01*
X16388594Y-11584500D01*
X16318112Y-11595663D01*
X16303531Y-11597973D01*
X16284134Y-11599500D01*
X9631468Y-11599500D01*
X9564429Y-11579815D01*
X9543787Y-11563181D01*
X6436819Y-8456213D01*
X6403334Y-8394890D01*
X6400500Y-8368532D01*
X6400500Y-3124831D01*
X6420185Y-3057792D01*
X6466045Y-3015474D01*
X6724579Y-2877286D01*
X6998298Y-2694393D01*
X7252772Y-2485551D01*
X7485551Y-2252772D01*
X7694393Y-1998298D01*
X7877286Y-1724579D01*
X8032469Y-1434251D01*
X8158448Y-1130111D01*
X8254010Y-815087D01*
X8254012Y-815077D01*
X8254015Y-815066D01*
X8282916Y-669760D01*
X8318233Y-492213D01*
X8350500Y-164600D01*
X8350500Y164600D01*
X8318233Y492213D01*
X8282916Y669760D01*
X8254015Y815066D01*
X8254012Y815077D01*
X8254011Y815077D01*
X8254010Y815087D01*
X8158448Y1130111D01*
X8032469Y1434251D01*
X7877286Y1724579D01*
X7694393Y1998298D01*
X7485551Y2252772D01*
X7252772Y2485551D01*
X6998298Y2694393D01*
X6724579Y2877286D01*
X6434251Y3032469D01*
X6130111Y3158448D01*
X5815087Y3254010D01*
X5815077Y3254012D01*
X5815066Y3254015D01*
X5669760Y3282916D01*
X5492213Y3318233D01*
X5164600Y3350500D01*
X4835400Y3350500D01*
X4507787Y3318233D01*
X4365361Y3289903D01*
X4184933Y3254015D01*
X4184922Y3254012D01*
X4184919Y3254011D01*
X4184913Y3254010D01*
X3869889Y3158448D01*
X3565749Y3032469D01*
X3275421Y2877286D01*
X3001702Y2694393D01*
X3001696Y2694388D01*
X2747222Y2485546D01*
X2514453Y2252777D01*
X2305611Y1998303D01*
X2305601Y1998289D01*
X2122718Y1724585D01*
X2122707Y1724567D01*
X2015030Y1523117D01*
X1967531Y1434251D01*
X1967528Y1434245D01*
X1967528Y1434244D01*
X1841552Y1130112D01*
X1745987Y815077D01*
X1745984Y815066D01*
X1681768Y492218D01*
X1681765Y492201D01*
X1649500Y164596D01*
X500500Y164596D01*
X500500Y4375500D01*
X520185Y4442539D01*
X572989Y4488294D01*
X624500Y4499500D01*
X9375500Y4499500D01*
X9442539Y4479815D01*
G37*
%TD.AperFunction*%
M02*
