%TF.GenerationSoftware,KiCad,Pcbnew,10.0.6*%
%TF.CreationDate,2026-09-17T17:40:52-07:00*%
%TF.ProjectId,pogostick,706f676f-7374-4696-936b-2e6b69636164,rev?*%
%TF.SameCoordinates,Original*%
%TF.FileFunction,Drillmap*%
%TF.FilePolarity,Positive*%
%FSLAX45Y45*%
G04 Gerber Fmt 4.5, Leading zero omitted, Abs format (unit mm)*
G04 Created by KiCad (PCBNEW 10.0.6) date 2026-09-17 17:40:52*
%MOMM*%
%LPD*%
G01*
G04 APERTURE LIST*
%ADD10C,0.050000*%
%ADD11C,0.200000*%
G04 APERTURE END LIST*
D10*
X5536605Y-6400000D02*
G75*
G02*
X5336605Y-6200000I0J200000D01*
G01*
X24336605Y-6200000D02*
G75*
G02*
X24136605Y-6400000I-200000J0D01*
G01*
X24336605Y-5100000D02*
G75*
G02*
X24536605Y-4900000I200000J0D01*
G01*
X25136605Y-4900000D02*
G75*
G02*
X25336605Y-5100000I0J-200000D01*
G01*
X25336605Y-8700000D02*
G75*
G02*
X25136605Y-8900000I-200000J0D01*
G01*
X4536605Y-8900000D02*
G75*
G02*
X4336605Y-8700000I0J200000D01*
G01*
X5136605Y-4900000D02*
G75*
G02*
X5336605Y-5100000I0J-200000D01*
G01*
X4336605Y-5100000D02*
G75*
G02*
X4536605Y-4900000I200000J0D01*
G01*
X4336605Y-5100000D02*
X4336605Y-8700000D01*
X4536605Y-8900000D02*
X25136605Y-8900000D01*
X5136605Y-4900000D02*
X4536605Y-4900000D01*
X5336605Y-5100000D02*
X5336605Y-6200000D01*
X24336605Y-5100000D02*
X24336605Y-6200000D01*
X24136605Y-6400000D02*
X5536605Y-6400000D01*
X25136605Y-4900000D02*
X24536605Y-4900000D01*
X25336605Y-8700000D02*
X25336605Y-5100000D01*
D11*
X4594882Y-9213984D02*
X4594882Y-9013984D01*
X4594882Y-9013984D02*
X4642501Y-9013984D01*
X4642501Y-9013984D02*
X4671073Y-9023508D01*
X4671073Y-9023508D02*
X4690120Y-9042555D01*
X4690120Y-9042555D02*
X4699644Y-9061603D01*
X4699644Y-9061603D02*
X4709168Y-9099698D01*
X4709168Y-9099698D02*
X4709168Y-9128270D01*
X4709168Y-9128270D02*
X4699644Y-9166365D01*
X4699644Y-9166365D02*
X4690120Y-9185412D01*
X4690120Y-9185412D02*
X4671073Y-9204460D01*
X4671073Y-9204460D02*
X4642501Y-9213984D01*
X4642501Y-9213984D02*
X4594882Y-9213984D01*
X4794882Y-9213984D02*
X4794882Y-9080650D01*
X4794882Y-9118746D02*
X4804406Y-9099698D01*
X4804406Y-9099698D02*
X4813930Y-9090174D01*
X4813930Y-9090174D02*
X4832977Y-9080650D01*
X4832977Y-9080650D02*
X4852025Y-9080650D01*
X4918692Y-9213984D02*
X4918692Y-9080650D01*
X4918692Y-9013984D02*
X4909168Y-9023508D01*
X4909168Y-9023508D02*
X4918692Y-9033031D01*
X4918692Y-9033031D02*
X4928216Y-9023508D01*
X4928216Y-9023508D02*
X4918692Y-9013984D01*
X4918692Y-9013984D02*
X4918692Y-9033031D01*
X5042501Y-9213984D02*
X5023454Y-9204460D01*
X5023454Y-9204460D02*
X5013930Y-9185412D01*
X5013930Y-9185412D02*
X5013930Y-9013984D01*
X5147263Y-9213984D02*
X5128216Y-9204460D01*
X5128216Y-9204460D02*
X5118692Y-9185412D01*
X5118692Y-9185412D02*
X5118692Y-9013984D01*
X5375835Y-9213984D02*
X5375835Y-9013984D01*
X5375835Y-9013984D02*
X5442501Y-9156841D01*
X5442501Y-9156841D02*
X5509168Y-9013984D01*
X5509168Y-9013984D02*
X5509168Y-9213984D01*
X5690120Y-9213984D02*
X5690120Y-9109222D01*
X5690120Y-9109222D02*
X5680596Y-9090174D01*
X5680596Y-9090174D02*
X5661549Y-9080650D01*
X5661549Y-9080650D02*
X5623454Y-9080650D01*
X5623454Y-9080650D02*
X5604406Y-9090174D01*
X5690120Y-9204460D02*
X5671073Y-9213984D01*
X5671073Y-9213984D02*
X5623454Y-9213984D01*
X5623454Y-9213984D02*
X5604406Y-9204460D01*
X5604406Y-9204460D02*
X5594882Y-9185412D01*
X5594882Y-9185412D02*
X5594882Y-9166365D01*
X5594882Y-9166365D02*
X5604406Y-9147317D01*
X5604406Y-9147317D02*
X5623454Y-9137793D01*
X5623454Y-9137793D02*
X5671073Y-9137793D01*
X5671073Y-9137793D02*
X5690120Y-9128270D01*
X5785358Y-9080650D02*
X5785358Y-9280650D01*
X5785358Y-9090174D02*
X5804406Y-9080650D01*
X5804406Y-9080650D02*
X5842501Y-9080650D01*
X5842501Y-9080650D02*
X5861549Y-9090174D01*
X5861549Y-9090174D02*
X5871073Y-9099698D01*
X5871073Y-9099698D02*
X5880596Y-9118746D01*
X5880596Y-9118746D02*
X5880596Y-9175889D01*
X5880596Y-9175889D02*
X5871073Y-9194936D01*
X5871073Y-9194936D02*
X5861549Y-9204460D01*
X5861549Y-9204460D02*
X5842501Y-9213984D01*
X5842501Y-9213984D02*
X5804406Y-9213984D01*
X5804406Y-9213984D02*
X5785358Y-9204460D01*
X5966311Y-9194936D02*
X5975835Y-9204460D01*
X5975835Y-9204460D02*
X5966311Y-9213984D01*
X5966311Y-9213984D02*
X5956787Y-9204460D01*
X5956787Y-9204460D02*
X5966311Y-9194936D01*
X5966311Y-9194936D02*
X5966311Y-9213984D01*
X5966311Y-9090174D02*
X5975835Y-9099698D01*
X5975835Y-9099698D02*
X5966311Y-9109222D01*
X5966311Y-9109222D02*
X5956787Y-9099698D01*
X5956787Y-9099698D02*
X5966311Y-9090174D01*
X5966311Y-9090174D02*
X5966311Y-9109222D01*
M02*
