%TF.GenerationSoftware,KiCad,Pcbnew,10.0.6*%
%TF.CreationDate,2026-09-17T17:40:53-07:00*%
%TF.ProjectId,pogostick,706f676f-7374-4696-936b-2e6b69636164,rev?*%
%TF.SameCoordinates,Original*%
%TF.FileFunction,Copper,L1,Top*%
%TF.FilePolarity,Positive*%
%FSLAX46Y46*%
G04 Gerber Fmt 4.6, Leading zero omitted, Abs format (unit mm)*
G04 Created by KiCad (PCBNEW 10.0.6) date 2026-09-17 17:40:53*
%MOMM*%
%LPD*%
G01*
G04 APERTURE LIST*
%TA.AperFunction,ComponentPad*%
%ADD10C,3.600000*%
%TD*%
%TA.AperFunction,ConnectorPad*%
%ADD11C,5.700000*%
%TD*%
%TA.AperFunction,SMDPad,CuDef*%
%ADD12C,1.830000*%
%TD*%
%TA.AperFunction,Conductor*%
%ADD13C,1.800000*%
%TD*%
G04 APERTURE END LIST*
D10*
%TO.P,H5,1*%
%TO.N,N/C*%
X148366054Y-84000000D03*
D11*
X148366054Y-84000000D03*
%TD*%
D10*
%TO.P,H4,1*%
%TO.N,N/C*%
X248366054Y-74000000D03*
D11*
X248366054Y-74000000D03*
%TD*%
D10*
%TO.P,H3,1*%
%TO.N,N/C*%
X48366054Y-74000000D03*
D11*
X48366054Y-74000000D03*
%TD*%
D12*
%TO.P,J24,1,Pin_1_1*%
%TO.N,/pogo*%
X137116054Y-67000000D03*
%TD*%
D10*
%TO.P,H1,1,1_1*%
%TO.N,/pogo*%
X48366054Y-54000000D03*
D11*
X48366054Y-54000000D03*
%TD*%
D12*
%TO.P,J50,1,Pin_1_1*%
%TO.N,/pogo*%
X233116054Y-67000000D03*
%TD*%
%TO.P,J57,1,Pin_1_1*%
%TO.N,/pogo*%
X218116054Y-67000000D03*
%TD*%
%TO.P,J54,1,Pin_1_1*%
%TO.N,/pogo*%
X200116054Y-67000000D03*
%TD*%
%TO.P,J9,1,Pin_1_1*%
%TO.N,/pogo*%
X83116054Y-67000000D03*
%TD*%
%TO.P,J29,1,Pin_1_1*%
%TO.N,/pogo*%
X167116054Y-67000000D03*
%TD*%
%TO.P,J22,1,Pin_1_1*%
%TO.N,/pogo*%
X125116054Y-67000000D03*
%TD*%
%TO.P,J49,1,Pin_1_1*%
%TO.N,/pogo*%
X227116054Y-67000000D03*
%TD*%
%TO.P,J52,1,Pin_1_1*%
%TO.N,/pogo*%
X188116054Y-67000000D03*
%TD*%
%TO.P,J35,1,Pin_1_1*%
%TO.N,/pogo*%
X146116054Y-67000000D03*
%TD*%
%TO.P,J15,1,Pin_1_1*%
%TO.N,/pogo*%
X101116054Y-67000000D03*
%TD*%
%TO.P,J32,1,Pin_1_1*%
%TO.N,/pogo*%
X128241054Y-67000000D03*
%TD*%
%TO.P,J42,1,Pin_1_1*%
%TO.N,/pogo*%
X185116054Y-67000000D03*
%TD*%
%TO.P,J47,1,Pin_1_1*%
%TO.N,/pogo*%
X215116054Y-67000000D03*
%TD*%
%TO.P,J16,1,Pin_1_1*%
%TO.N,/pogo*%
X104116054Y-67000000D03*
%TD*%
%TO.P,J34,1,Pin_1_1*%
%TO.N,/pogo*%
X140116054Y-67000000D03*
%TD*%
%TO.P,J13,1,Pin_1_1*%
%TO.N,/pogo*%
X95116054Y-67000000D03*
%TD*%
%TO.P,J59,1,Pin_1_1*%
%TO.N,/pogo*%
X230116054Y-67000000D03*
%TD*%
%TO.P,J11,1,Pin_1_1*%
%TO.N,/pogo*%
X89116054Y-67000000D03*
%TD*%
%TO.P,J20,1,Pin_1_1*%
%TO.N,/pogo*%
X116116054Y-67000000D03*
%TD*%
%TO.P,J39,1,Pin_1_1*%
%TO.N,/pogo*%
X170116054Y-67000000D03*
%TD*%
%TO.P,J7,1,Pin_1_1*%
%TO.N,/pogo*%
X77116054Y-67000000D03*
%TD*%
%TO.P,J46,1,Pin_1_1*%
%TO.N,/pogo*%
X209116054Y-67000000D03*
%TD*%
%TO.P,J5,1,Pin_1_1*%
%TO.N,/pogo*%
X71116054Y-67000000D03*
%TD*%
%TO.P,J41,1,Pin_1_1*%
%TO.N,/pogo*%
X179116054Y-67000000D03*
%TD*%
%TO.P,J43,1,Pin_1_1*%
%TO.N,/pogo*%
X191116054Y-67000000D03*
%TD*%
%TO.P,J37,1,Pin_1_1*%
%TO.N,/pogo*%
X158116054Y-67000000D03*
%TD*%
%TO.P,J30,1,Pin_1_1*%
%TO.N,/pogo*%
X173116054Y-67000000D03*
%TD*%
%TO.P,J1,1,Pin_1_1*%
%TO.N,/pogo*%
X59116054Y-67000000D03*
%TD*%
%TO.P,J19,1,Pin_1_1*%
%TO.N,/pogo*%
X113116054Y-67000000D03*
%TD*%
%TO.P,J21,1,Pin_1_1*%
%TO.N,/pogo*%
X119116054Y-67000000D03*
%TD*%
%TO.P,J17,1,Pin_1_1*%
%TO.N,/pogo*%
X107116054Y-67000000D03*
%TD*%
%TO.P,J26,1,Pin_1_1*%
%TO.N,/pogo*%
X149116054Y-67000000D03*
%TD*%
%TO.P,J14,1,Pin_1_1*%
%TO.N,/pogo*%
X98116054Y-67000000D03*
%TD*%
%TO.P,J10,1,Pin_1_1*%
%TO.N,/pogo*%
X86116054Y-67000000D03*
%TD*%
%TO.P,J40,1,Pin_1_1*%
%TO.N,/pogo*%
X176116054Y-67000000D03*
%TD*%
%TO.P,J48,1,Pin_1_1*%
%TO.N,/pogo*%
X221116054Y-67000000D03*
%TD*%
%TO.P,J23,1,Pin_1_1*%
%TO.N,/pogo*%
X131116054Y-67000000D03*
%TD*%
%TO.P,J33,1,Pin_1_1*%
%TO.N,/pogo*%
X134116054Y-67000000D03*
%TD*%
%TO.P,J2,1,Pin_1_1*%
%TO.N,/pogo*%
X62116054Y-67000000D03*
%TD*%
%TO.P,J55,1,Pin_1_1*%
%TO.N,/pogo*%
X206116054Y-67000000D03*
%TD*%
%TO.P,J6,1,Pin_1_1*%
%TO.N,/pogo*%
X74116054Y-67000000D03*
%TD*%
%TO.P,J12,1,Pin_1_1*%
%TO.N,/pogo*%
X92116054Y-67000000D03*
%TD*%
D10*
%TO.P,H2,1,1_1*%
%TO.N,/pogo*%
X248366054Y-54000000D03*
D11*
X248366054Y-54000000D03*
%TD*%
D12*
%TO.P,J3,1,Pin_1_1*%
%TO.N,/pogo*%
X65116054Y-67000000D03*
%TD*%
%TO.P,J45,1,Pin_1_1*%
%TO.N,/pogo*%
X203116054Y-67000000D03*
%TD*%
%TO.P,J8,1,Pin_1_1*%
%TO.N,/pogo*%
X80116054Y-67000000D03*
%TD*%
%TO.P,J27,1,Pin_1_1*%
%TO.N,/pogo*%
X155116054Y-67000000D03*
%TD*%
%TO.P,J36,1,Pin_1_1*%
%TO.N,/pogo*%
X152116054Y-67000000D03*
%TD*%
%TO.P,J31,1,Pin_1_1*%
%TO.N,/pogo*%
X122116054Y-67000000D03*
%TD*%
%TO.P,J25,1,Pin_1_1*%
%TO.N,/pogo*%
X143116054Y-67000000D03*
%TD*%
%TO.P,J58,1,Pin_1_1*%
%TO.N,/pogo*%
X224116054Y-67000000D03*
%TD*%
%TO.P,J4,1,Pin_1_1*%
%TO.N,/pogo*%
X68116054Y-67000000D03*
%TD*%
%TO.P,J60,1,Pin_1_1*%
%TO.N,/pogo*%
X236116054Y-67000000D03*
%TD*%
%TO.P,J44,1,Pin_1_1*%
%TO.N,/pogo*%
X197116054Y-67000000D03*
%TD*%
%TO.P,J53,1,Pin_1_1*%
%TO.N,/pogo*%
X194116054Y-67000000D03*
%TD*%
%TO.P,J28,1,Pin_1_1*%
%TO.N,/pogo*%
X161116054Y-67000000D03*
%TD*%
%TO.P,J38,1,Pin_1_1*%
%TO.N,/pogo*%
X164116054Y-67000000D03*
%TD*%
%TO.P,J18,1,Pin_1_1*%
%TO.N,/pogo*%
X110116054Y-67000000D03*
%TD*%
%TO.P,J56,1,Pin_1_1*%
%TO.N,/pogo*%
X212116054Y-67000000D03*
%TD*%
%TO.P,J51,1,Pin_1_1*%
%TO.N,/pogo*%
X182116054Y-67000000D03*
%TD*%
%TO.N,/pogo*%
D13*
X236116054Y-67000000D02*
X244366054Y-67000000D01*
X236116054Y-67000000D02*
X52366054Y-67000000D01*
X48366054Y-63000000D02*
X52366054Y-67000000D01*
X248366054Y-54000000D02*
X248366054Y-63000000D01*
X48366054Y-54000000D02*
X48366054Y-63000000D01*
X248366054Y-63000000D02*
X244366054Y-67000000D01*
%TD*%
%TA.AperFunction,NonConductor*%
G36*
X51370472Y-49500816D02*
G01*
X51570615Y-49515130D01*
X51588117Y-49517647D01*
X51779849Y-49559355D01*
X51796814Y-49564336D01*
X51980665Y-49632909D01*
X51996748Y-49640253D01*
X52113549Y-49704032D01*
X52168962Y-49734290D01*
X52183845Y-49743855D01*
X52340918Y-49861438D01*
X52354289Y-49873024D01*
X52493029Y-50011764D01*
X52504615Y-50025135D01*
X52622198Y-50182208D01*
X52631763Y-50197091D01*
X52725797Y-50369300D01*
X52733147Y-50385394D01*
X52801715Y-50569234D01*
X52806699Y-50586209D01*
X52848405Y-50777931D01*
X52850923Y-50795442D01*
X52865238Y-50995580D01*
X52865554Y-51004427D01*
X52865554Y-61934108D01*
X52865554Y-62000000D01*
X52865554Y-62151252D01*
X52902017Y-62451551D01*
X52944254Y-62622915D01*
X52974412Y-62745271D01*
X53029217Y-62889778D01*
X53081681Y-63028113D01*
X53222261Y-63295968D01*
X53394104Y-63544924D01*
X53394106Y-63544926D01*
X53394108Y-63544929D01*
X53594700Y-63771351D01*
X53594702Y-63771353D01*
X53821124Y-63971945D01*
X53821130Y-63971950D01*
X54070086Y-64143793D01*
X54337941Y-64284373D01*
X54533837Y-64358666D01*
X54620782Y-64391641D01*
X54620784Y-64391641D01*
X54620788Y-64391643D01*
X54914503Y-64464037D01*
X55165715Y-64494539D01*
X55214800Y-64500500D01*
X55214802Y-64500500D01*
X241517308Y-64500500D01*
X241562684Y-64494990D01*
X241817605Y-64464037D01*
X242111320Y-64391643D01*
X242394167Y-64284373D01*
X242662022Y-64143793D01*
X242910978Y-63971950D01*
X243137406Y-63771352D01*
X243338004Y-63544924D01*
X243509847Y-63295968D01*
X243650427Y-63028113D01*
X243757697Y-62745266D01*
X243830091Y-62451551D01*
X243866554Y-62151252D01*
X243866554Y-62000000D01*
X243866554Y-61934108D01*
X243866554Y-51004427D01*
X243866870Y-50995581D01*
X243877372Y-50848748D01*
X243881184Y-50795436D01*
X243883700Y-50777938D01*
X243925410Y-50586200D01*
X243930389Y-50569242D01*
X243998965Y-50385382D01*
X244006305Y-50369310D01*
X244100348Y-50197083D01*
X244109904Y-50182214D01*
X244227497Y-50025128D01*
X244239071Y-50011771D01*
X244377825Y-49873017D01*
X244391182Y-49861443D01*
X244548268Y-49743850D01*
X244563137Y-49734294D01*
X244735364Y-49640251D01*
X244751436Y-49632911D01*
X244935296Y-49564335D01*
X244952254Y-49559356D01*
X245143992Y-49517646D01*
X245161490Y-49515130D01*
X245361636Y-49500816D01*
X245370482Y-49500500D01*
X245431946Y-49500500D01*
X251300162Y-49500500D01*
X251361626Y-49500500D01*
X251370472Y-49500816D01*
X251570615Y-49515130D01*
X251588117Y-49517647D01*
X251779849Y-49559355D01*
X251796814Y-49564336D01*
X251980665Y-49632909D01*
X251996748Y-49640253D01*
X252113549Y-49704032D01*
X252168962Y-49734290D01*
X252183845Y-49743855D01*
X252340918Y-49861438D01*
X252354289Y-49873024D01*
X252493029Y-50011764D01*
X252504615Y-50025135D01*
X252622198Y-50182208D01*
X252631763Y-50197091D01*
X252725797Y-50369300D01*
X252733147Y-50385394D01*
X252801715Y-50569234D01*
X252806699Y-50586209D01*
X252848405Y-50777931D01*
X252850923Y-50795442D01*
X252865238Y-50995580D01*
X252865554Y-51004427D01*
X252865554Y-86995572D01*
X252865238Y-87004419D01*
X252850923Y-87204557D01*
X252848405Y-87222068D01*
X252806699Y-87413790D01*
X252801715Y-87430765D01*
X252733147Y-87614605D01*
X252725797Y-87630699D01*
X252631763Y-87802908D01*
X252622198Y-87817791D01*
X252504615Y-87974864D01*
X252493029Y-87988235D01*
X252354289Y-88126975D01*
X252340918Y-88138561D01*
X252183845Y-88256144D01*
X252168962Y-88265709D01*
X251996753Y-88359743D01*
X251980659Y-88367093D01*
X251796819Y-88435661D01*
X251779844Y-88440645D01*
X251588122Y-88482351D01*
X251570611Y-88484869D01*
X251389833Y-88497799D01*
X251370471Y-88499184D01*
X251361626Y-88499500D01*
X45370482Y-88499500D01*
X45361636Y-88499184D01*
X45339676Y-88497613D01*
X45161496Y-88484869D01*
X45143985Y-88482351D01*
X44952263Y-88440645D01*
X44935288Y-88435661D01*
X44751448Y-88367093D01*
X44735354Y-88359743D01*
X44563145Y-88265709D01*
X44548262Y-88256144D01*
X44391189Y-88138561D01*
X44377818Y-88126975D01*
X44239078Y-87988235D01*
X44227492Y-87974864D01*
X44109909Y-87817791D01*
X44100344Y-87802908D01*
X44006310Y-87630699D01*
X43998963Y-87614611D01*
X43930390Y-87430760D01*
X43925408Y-87413790D01*
X43911640Y-87350500D01*
X43883701Y-87222063D01*
X43881184Y-87204556D01*
X43877886Y-87158448D01*
X43866870Y-87004418D01*
X43866554Y-86995572D01*
X43866554Y-83835403D01*
X145015554Y-83835403D01*
X145015554Y-84164596D01*
X145047819Y-84492201D01*
X145047822Y-84492218D01*
X145112038Y-84815066D01*
X145112041Y-84815077D01*
X145207606Y-85130112D01*
X145333582Y-85434244D01*
X145333589Y-85434258D01*
X145488761Y-85724567D01*
X145488772Y-85724585D01*
X145671655Y-85998289D01*
X145671665Y-85998303D01*
X145880507Y-86252777D01*
X146113276Y-86485546D01*
X146113281Y-86485550D01*
X146113282Y-86485551D01*
X146367756Y-86694393D01*
X146641475Y-86877286D01*
X146931803Y-87032469D01*
X147235943Y-87158448D01*
X147550967Y-87254010D01*
X147550973Y-87254011D01*
X147550976Y-87254012D01*
X147550987Y-87254015D01*
X147731415Y-87289903D01*
X147873841Y-87318233D01*
X148201454Y-87350500D01*
X148201457Y-87350500D01*
X148530651Y-87350500D01*
X148530654Y-87350500D01*
X148858267Y-87318233D01*
X149035814Y-87282916D01*
X149181120Y-87254015D01*
X149181131Y-87254012D01*
X149181131Y-87254011D01*
X149181141Y-87254010D01*
X149496165Y-87158448D01*
X149800305Y-87032469D01*
X150090633Y-86877286D01*
X150364352Y-86694393D01*
X150618826Y-86485551D01*
X150851605Y-86252772D01*
X151060447Y-85998298D01*
X151243340Y-85724579D01*
X151398523Y-85434251D01*
X151524502Y-85130111D01*
X151620064Y-84815087D01*
X151620066Y-84815077D01*
X151620069Y-84815066D01*
X151648970Y-84669760D01*
X151684287Y-84492213D01*
X151716554Y-84164600D01*
X151716554Y-83835400D01*
X151684287Y-83507787D01*
X151655957Y-83365361D01*
X151620069Y-83184933D01*
X151620066Y-83184922D01*
X151620065Y-83184919D01*
X151620064Y-83184913D01*
X151524502Y-82869889D01*
X151398523Y-82565749D01*
X151243340Y-82275421D01*
X151060447Y-82001702D01*
X150851605Y-81747228D01*
X150851604Y-81747227D01*
X150851600Y-81747222D01*
X150618831Y-81514453D01*
X150364357Y-81305611D01*
X150364356Y-81305610D01*
X150364352Y-81305607D01*
X150090633Y-81122714D01*
X150090628Y-81122711D01*
X150090621Y-81122707D01*
X149800312Y-80967535D01*
X149800305Y-80967531D01*
X149800298Y-80967528D01*
X149496166Y-80841552D01*
X149181131Y-80745987D01*
X149181120Y-80745984D01*
X148858272Y-80681768D01*
X148858267Y-80681767D01*
X148858265Y-80681766D01*
X148858255Y-80681765D01*
X148617576Y-80658061D01*
X148530654Y-80649500D01*
X148201454Y-80649500D01*
X148121594Y-80657365D01*
X147873852Y-80681765D01*
X147873835Y-80681768D01*
X147550987Y-80745984D01*
X147550976Y-80745987D01*
X147235941Y-80841552D01*
X146931809Y-80967528D01*
X146931795Y-80967535D01*
X146641486Y-81122707D01*
X146641468Y-81122718D01*
X146367764Y-81305601D01*
X146367750Y-81305611D01*
X146113276Y-81514453D01*
X145880507Y-81747222D01*
X145671665Y-82001696D01*
X145671655Y-82001710D01*
X145488772Y-82275414D01*
X145488761Y-82275432D01*
X145333589Y-82565741D01*
X145333582Y-82565755D01*
X145207606Y-82869887D01*
X145112041Y-83184922D01*
X145112038Y-83184933D01*
X145047822Y-83507781D01*
X145047819Y-83507798D01*
X145015554Y-83835403D01*
X43866554Y-83835403D01*
X43866554Y-73835403D01*
X45015554Y-73835403D01*
X45015554Y-74164596D01*
X45047819Y-74492201D01*
X45047822Y-74492218D01*
X45112038Y-74815066D01*
X45112041Y-74815077D01*
X45207606Y-75130112D01*
X45333582Y-75434244D01*
X45333589Y-75434258D01*
X45488761Y-75724567D01*
X45488772Y-75724585D01*
X45671655Y-75998289D01*
X45671665Y-75998303D01*
X45880507Y-76252777D01*
X46113276Y-76485546D01*
X46113281Y-76485550D01*
X46113282Y-76485551D01*
X46367756Y-76694393D01*
X46641475Y-76877286D01*
X46931803Y-77032469D01*
X47235943Y-77158448D01*
X47550967Y-77254010D01*
X47550973Y-77254011D01*
X47550976Y-77254012D01*
X47550987Y-77254015D01*
X47731415Y-77289903D01*
X47873841Y-77318233D01*
X48201454Y-77350500D01*
X48201457Y-77350500D01*
X48530651Y-77350500D01*
X48530654Y-77350500D01*
X48858267Y-77318233D01*
X49035814Y-77282916D01*
X49181120Y-77254015D01*
X49181131Y-77254012D01*
X49181131Y-77254011D01*
X49181141Y-77254010D01*
X49496165Y-77158448D01*
X49800305Y-77032469D01*
X50090633Y-76877286D01*
X50364352Y-76694393D01*
X50618826Y-76485551D01*
X50851605Y-76252772D01*
X51060447Y-75998298D01*
X51243340Y-75724579D01*
X51398523Y-75434251D01*
X51524502Y-75130111D01*
X51620064Y-74815087D01*
X51620066Y-74815077D01*
X51620069Y-74815066D01*
X51648970Y-74669760D01*
X51684287Y-74492213D01*
X51716554Y-74164600D01*
X51716554Y-73835403D01*
X245015554Y-73835403D01*
X245015554Y-74164596D01*
X245047819Y-74492201D01*
X245047822Y-74492218D01*
X245112038Y-74815066D01*
X245112041Y-74815077D01*
X245207606Y-75130112D01*
X245333582Y-75434244D01*
X245333589Y-75434258D01*
X245488761Y-75724567D01*
X245488772Y-75724585D01*
X245671655Y-75998289D01*
X245671665Y-75998303D01*
X245880507Y-76252777D01*
X246113276Y-76485546D01*
X246113281Y-76485550D01*
X246113282Y-76485551D01*
X246367756Y-76694393D01*
X246641475Y-76877286D01*
X246931803Y-77032469D01*
X247235943Y-77158448D01*
X247550967Y-77254010D01*
X247550973Y-77254011D01*
X247550976Y-77254012D01*
X247550987Y-77254015D01*
X247731415Y-77289903D01*
X247873841Y-77318233D01*
X248201454Y-77350500D01*
X248201457Y-77350500D01*
X248530651Y-77350500D01*
X248530654Y-77350500D01*
X248858267Y-77318233D01*
X249035814Y-77282916D01*
X249181120Y-77254015D01*
X249181131Y-77254012D01*
X249181131Y-77254011D01*
X249181141Y-77254010D01*
X249496165Y-77158448D01*
X249800305Y-77032469D01*
X250090633Y-76877286D01*
X250364352Y-76694393D01*
X250618826Y-76485551D01*
X250851605Y-76252772D01*
X251060447Y-75998298D01*
X251243340Y-75724579D01*
X251398523Y-75434251D01*
X251524502Y-75130111D01*
X251620064Y-74815087D01*
X251620066Y-74815077D01*
X251620069Y-74815066D01*
X251648970Y-74669760D01*
X251684287Y-74492213D01*
X251716554Y-74164600D01*
X251716554Y-73835400D01*
X251684287Y-73507787D01*
X251655957Y-73365361D01*
X251620069Y-73184933D01*
X251620066Y-73184922D01*
X251620065Y-73184919D01*
X251620064Y-73184913D01*
X251524502Y-72869889D01*
X251398523Y-72565749D01*
X251243340Y-72275421D01*
X251060447Y-72001702D01*
X250851605Y-71747228D01*
X250851604Y-71747227D01*
X250851600Y-71747222D01*
X250618831Y-71514453D01*
X250364357Y-71305611D01*
X250364356Y-71305610D01*
X250364352Y-71305607D01*
X250090633Y-71122714D01*
X250090628Y-71122711D01*
X250090621Y-71122707D01*
X249800312Y-70967535D01*
X249800305Y-70967531D01*
X249800298Y-70967528D01*
X249496166Y-70841552D01*
X249181131Y-70745987D01*
X249181120Y-70745984D01*
X248858272Y-70681768D01*
X248858267Y-70681767D01*
X248858265Y-70681766D01*
X248858255Y-70681765D01*
X248617576Y-70658061D01*
X248530654Y-70649500D01*
X248201454Y-70649500D01*
X248121594Y-70657365D01*
X247873852Y-70681765D01*
X247873835Y-70681768D01*
X247550987Y-70745984D01*
X247550976Y-70745987D01*
X247235941Y-70841552D01*
X246931809Y-70967528D01*
X246931795Y-70967535D01*
X246641486Y-71122707D01*
X246641468Y-71122718D01*
X246367764Y-71305601D01*
X246367750Y-71305611D01*
X246113276Y-71514453D01*
X245880507Y-71747222D01*
X245671665Y-72001696D01*
X245671655Y-72001710D01*
X245488772Y-72275414D01*
X245488761Y-72275432D01*
X245333589Y-72565741D01*
X245333582Y-72565755D01*
X245207606Y-72869887D01*
X245112041Y-73184922D01*
X245112038Y-73184933D01*
X245047822Y-73507781D01*
X245047819Y-73507798D01*
X245015554Y-73835403D01*
X51716554Y-73835403D01*
X51716554Y-73835400D01*
X51684287Y-73507787D01*
X51655957Y-73365361D01*
X51620069Y-73184933D01*
X51620066Y-73184922D01*
X51620065Y-73184919D01*
X51620064Y-73184913D01*
X51524502Y-72869889D01*
X51398523Y-72565749D01*
X51243340Y-72275421D01*
X51060447Y-72001702D01*
X50851605Y-71747228D01*
X50851604Y-71747227D01*
X50851600Y-71747222D01*
X50618831Y-71514453D01*
X50364357Y-71305611D01*
X50364356Y-71305610D01*
X50364352Y-71305607D01*
X50090633Y-71122714D01*
X50090628Y-71122711D01*
X50090621Y-71122707D01*
X49800312Y-70967535D01*
X49800305Y-70967531D01*
X49800298Y-70967528D01*
X49496166Y-70841552D01*
X49181131Y-70745987D01*
X49181120Y-70745984D01*
X48858272Y-70681768D01*
X48858267Y-70681767D01*
X48858265Y-70681766D01*
X48858255Y-70681765D01*
X48617576Y-70658061D01*
X48530654Y-70649500D01*
X48201454Y-70649500D01*
X48121594Y-70657365D01*
X47873852Y-70681765D01*
X47873835Y-70681768D01*
X47550987Y-70745984D01*
X47550976Y-70745987D01*
X47235941Y-70841552D01*
X46931809Y-70967528D01*
X46931795Y-70967535D01*
X46641486Y-71122707D01*
X46641468Y-71122718D01*
X46367764Y-71305601D01*
X46367750Y-71305611D01*
X46113276Y-71514453D01*
X45880507Y-71747222D01*
X45671665Y-72001696D01*
X45671655Y-72001710D01*
X45488772Y-72275414D01*
X45488761Y-72275432D01*
X45333589Y-72565741D01*
X45333582Y-72565755D01*
X45207606Y-72869887D01*
X45112041Y-73184922D01*
X45112038Y-73184933D01*
X45047822Y-73507781D01*
X45047819Y-73507798D01*
X45015554Y-73835403D01*
X43866554Y-73835403D01*
X43866554Y-53835403D01*
X45015554Y-53835403D01*
X45015554Y-54164596D01*
X45047819Y-54492201D01*
X45047822Y-54492218D01*
X45112038Y-54815066D01*
X45112041Y-54815077D01*
X45207606Y-55130112D01*
X45333582Y-55434244D01*
X45333589Y-55434258D01*
X45488761Y-55724567D01*
X45488772Y-55724585D01*
X45671655Y-55998289D01*
X45671665Y-55998303D01*
X45880507Y-56252777D01*
X46113276Y-56485546D01*
X46113281Y-56485550D01*
X46113282Y-56485551D01*
X46367756Y-56694393D01*
X46641475Y-56877286D01*
X46900008Y-57015474D01*
X46949851Y-57064435D01*
X46965554Y-57124831D01*
X46965554Y-62885362D01*
X46965553Y-62885377D01*
X46965553Y-63110220D01*
X46989508Y-63261460D01*
X46989508Y-63261461D01*
X47000039Y-63327952D01*
X47068157Y-63537603D01*
X47068158Y-63537606D01*
X47168241Y-63734025D01*
X47297805Y-63912357D01*
X47297809Y-63912361D01*
X47297812Y-63912365D01*
X47453689Y-64068242D01*
X47458019Y-64072572D01*
X47458030Y-64072582D01*
X51294686Y-67909238D01*
X51294700Y-67909253D01*
X51297811Y-67912364D01*
X51297812Y-67912365D01*
X51453689Y-68068242D01*
X51453692Y-68068244D01*
X51453696Y-68068248D01*
X51615426Y-68185750D01*
X51632032Y-68197815D01*
X51760429Y-68263237D01*
X51828447Y-68297895D01*
X51828450Y-68297896D01*
X51933275Y-68331955D01*
X52038103Y-68366015D01*
X52255832Y-68400500D01*
X52476276Y-68400500D01*
X58900188Y-68400500D01*
X58919585Y-68402026D01*
X58934166Y-68404336D01*
X59004648Y-68415500D01*
X59004652Y-68415500D01*
X59227460Y-68415500D01*
X59297941Y-68404336D01*
X59312522Y-68402026D01*
X59331920Y-68400500D01*
X61900188Y-68400500D01*
X61919585Y-68402026D01*
X61934166Y-68404336D01*
X62004648Y-68415500D01*
X62004652Y-68415500D01*
X62227460Y-68415500D01*
X62297941Y-68404336D01*
X62312522Y-68402026D01*
X62331920Y-68400500D01*
X64900188Y-68400500D01*
X64919585Y-68402026D01*
X64934166Y-68404336D01*
X65004648Y-68415500D01*
X65004652Y-68415500D01*
X65227460Y-68415500D01*
X65297941Y-68404336D01*
X65312522Y-68402026D01*
X65331920Y-68400500D01*
X67900188Y-68400500D01*
X67919585Y-68402026D01*
X67934166Y-68404336D01*
X68004648Y-68415500D01*
X68004652Y-68415500D01*
X68227460Y-68415500D01*
X68297941Y-68404336D01*
X68312522Y-68402026D01*
X68331920Y-68400500D01*
X70900188Y-68400500D01*
X70919585Y-68402026D01*
X70934166Y-68404336D01*
X71004648Y-68415500D01*
X71004652Y-68415500D01*
X71227460Y-68415500D01*
X71297941Y-68404336D01*
X71312522Y-68402026D01*
X71331920Y-68400500D01*
X73900188Y-68400500D01*
X73919585Y-68402026D01*
X73934166Y-68404336D01*
X74004648Y-68415500D01*
X74004652Y-68415500D01*
X74227460Y-68415500D01*
X74297941Y-68404336D01*
X74312522Y-68402026D01*
X74331920Y-68400500D01*
X76900188Y-68400500D01*
X76919585Y-68402026D01*
X76934166Y-68404336D01*
X77004648Y-68415500D01*
X77004652Y-68415500D01*
X77227460Y-68415500D01*
X77297941Y-68404336D01*
X77312522Y-68402026D01*
X77331920Y-68400500D01*
X79900188Y-68400500D01*
X79919585Y-68402026D01*
X79934166Y-68404336D01*
X80004648Y-68415500D01*
X80004652Y-68415500D01*
X80227460Y-68415500D01*
X80297941Y-68404336D01*
X80312522Y-68402026D01*
X80331920Y-68400500D01*
X82900188Y-68400500D01*
X82919585Y-68402026D01*
X82934166Y-68404336D01*
X83004648Y-68415500D01*
X83004652Y-68415500D01*
X83227460Y-68415500D01*
X83297941Y-68404336D01*
X83312522Y-68402026D01*
X83331920Y-68400500D01*
X85900188Y-68400500D01*
X85919585Y-68402026D01*
X85934166Y-68404336D01*
X86004648Y-68415500D01*
X86004652Y-68415500D01*
X86227460Y-68415500D01*
X86297941Y-68404336D01*
X86312522Y-68402026D01*
X86331920Y-68400500D01*
X88900188Y-68400500D01*
X88919585Y-68402026D01*
X88934166Y-68404336D01*
X89004648Y-68415500D01*
X89004652Y-68415500D01*
X89227460Y-68415500D01*
X89297941Y-68404336D01*
X89312522Y-68402026D01*
X89331920Y-68400500D01*
X91900188Y-68400500D01*
X91919585Y-68402026D01*
X91934166Y-68404336D01*
X92004648Y-68415500D01*
X92004652Y-68415500D01*
X92227460Y-68415500D01*
X92297941Y-68404336D01*
X92312522Y-68402026D01*
X92331920Y-68400500D01*
X94900188Y-68400500D01*
X94919585Y-68402026D01*
X94934166Y-68404336D01*
X95004648Y-68415500D01*
X95004652Y-68415500D01*
X95227460Y-68415500D01*
X95297941Y-68404336D01*
X95312522Y-68402026D01*
X95331920Y-68400500D01*
X97900188Y-68400500D01*
X97919585Y-68402026D01*
X97934166Y-68404336D01*
X98004648Y-68415500D01*
X98004652Y-68415500D01*
X98227460Y-68415500D01*
X98297941Y-68404336D01*
X98312522Y-68402026D01*
X98331920Y-68400500D01*
X100900188Y-68400500D01*
X100919585Y-68402026D01*
X100934166Y-68404336D01*
X101004648Y-68415500D01*
X101004652Y-68415500D01*
X101227460Y-68415500D01*
X101297941Y-68404336D01*
X101312522Y-68402026D01*
X101331920Y-68400500D01*
X103900188Y-68400500D01*
X103919585Y-68402026D01*
X103934166Y-68404336D01*
X104004648Y-68415500D01*
X104004652Y-68415500D01*
X104227460Y-68415500D01*
X104297941Y-68404336D01*
X104312522Y-68402026D01*
X104331920Y-68400500D01*
X106900188Y-68400500D01*
X106919585Y-68402026D01*
X106934166Y-68404336D01*
X107004648Y-68415500D01*
X107004652Y-68415500D01*
X107227460Y-68415500D01*
X107297941Y-68404336D01*
X107312522Y-68402026D01*
X107331920Y-68400500D01*
X109900188Y-68400500D01*
X109919585Y-68402026D01*
X109934166Y-68404336D01*
X110004648Y-68415500D01*
X110004652Y-68415500D01*
X110227460Y-68415500D01*
X110297941Y-68404336D01*
X110312522Y-68402026D01*
X110331920Y-68400500D01*
X112900188Y-68400500D01*
X112919585Y-68402026D01*
X112934166Y-68404336D01*
X113004648Y-68415500D01*
X113004652Y-68415500D01*
X113227460Y-68415500D01*
X113297941Y-68404336D01*
X113312522Y-68402026D01*
X113331920Y-68400500D01*
X115900188Y-68400500D01*
X115919585Y-68402026D01*
X115934166Y-68404336D01*
X116004648Y-68415500D01*
X116004652Y-68415500D01*
X116227460Y-68415500D01*
X116297941Y-68404336D01*
X116312522Y-68402026D01*
X116331920Y-68400500D01*
X118900188Y-68400500D01*
X118919585Y-68402026D01*
X118934166Y-68404336D01*
X119004648Y-68415500D01*
X119004652Y-68415500D01*
X119227460Y-68415500D01*
X119297941Y-68404336D01*
X119312522Y-68402026D01*
X119331920Y-68400500D01*
X121900188Y-68400500D01*
X121919585Y-68402026D01*
X121934166Y-68404336D01*
X122004648Y-68415500D01*
X122004652Y-68415500D01*
X122227460Y-68415500D01*
X122297941Y-68404336D01*
X122312522Y-68402026D01*
X122331920Y-68400500D01*
X124900188Y-68400500D01*
X124919585Y-68402026D01*
X124934166Y-68404336D01*
X125004648Y-68415500D01*
X125004652Y-68415500D01*
X125227460Y-68415500D01*
X125297941Y-68404336D01*
X125312522Y-68402026D01*
X125331920Y-68400500D01*
X128025188Y-68400500D01*
X128044585Y-68402026D01*
X128059166Y-68404336D01*
X128129648Y-68415500D01*
X128129652Y-68415500D01*
X128352460Y-68415500D01*
X128422941Y-68404336D01*
X128437522Y-68402026D01*
X128456920Y-68400500D01*
X130900188Y-68400500D01*
X130919585Y-68402026D01*
X130934166Y-68404336D01*
X131004648Y-68415500D01*
X131004652Y-68415500D01*
X131227460Y-68415500D01*
X131297941Y-68404336D01*
X131312522Y-68402026D01*
X131331920Y-68400500D01*
X133900188Y-68400500D01*
X133919585Y-68402026D01*
X133934166Y-68404336D01*
X134004648Y-68415500D01*
X134004652Y-68415500D01*
X134227460Y-68415500D01*
X134297941Y-68404336D01*
X134312522Y-68402026D01*
X134331920Y-68400500D01*
X136900188Y-68400500D01*
X136919585Y-68402026D01*
X136934166Y-68404336D01*
X137004648Y-68415500D01*
X137004652Y-68415500D01*
X137227460Y-68415500D01*
X137297941Y-68404336D01*
X137312522Y-68402026D01*
X137331920Y-68400500D01*
X139900188Y-68400500D01*
X139919585Y-68402026D01*
X139934166Y-68404336D01*
X140004648Y-68415500D01*
X140004652Y-68415500D01*
X140227460Y-68415500D01*
X140297941Y-68404336D01*
X140312522Y-68402026D01*
X140331920Y-68400500D01*
X142900188Y-68400500D01*
X142919585Y-68402026D01*
X142934166Y-68404336D01*
X143004648Y-68415500D01*
X143004652Y-68415500D01*
X143227460Y-68415500D01*
X143297941Y-68404336D01*
X143312522Y-68402026D01*
X143331920Y-68400500D01*
X145900188Y-68400500D01*
X145919585Y-68402026D01*
X145934166Y-68404336D01*
X146004648Y-68415500D01*
X146004652Y-68415500D01*
X146227460Y-68415500D01*
X146297941Y-68404336D01*
X146312522Y-68402026D01*
X146331920Y-68400500D01*
X148900188Y-68400500D01*
X148919585Y-68402026D01*
X148934166Y-68404336D01*
X149004648Y-68415500D01*
X149004652Y-68415500D01*
X149227460Y-68415500D01*
X149297941Y-68404336D01*
X149312522Y-68402026D01*
X149331920Y-68400500D01*
X151900188Y-68400500D01*
X151919585Y-68402026D01*
X151934166Y-68404336D01*
X152004648Y-68415500D01*
X152004652Y-68415500D01*
X152227460Y-68415500D01*
X152297941Y-68404336D01*
X152312522Y-68402026D01*
X152331920Y-68400500D01*
X154900188Y-68400500D01*
X154919585Y-68402026D01*
X154934166Y-68404336D01*
X155004648Y-68415500D01*
X155004652Y-68415500D01*
X155227460Y-68415500D01*
X155297941Y-68404336D01*
X155312522Y-68402026D01*
X155331920Y-68400500D01*
X157900188Y-68400500D01*
X157919585Y-68402026D01*
X157934166Y-68404336D01*
X158004648Y-68415500D01*
X158004652Y-68415500D01*
X158227460Y-68415500D01*
X158297941Y-68404336D01*
X158312522Y-68402026D01*
X158331920Y-68400500D01*
X160900188Y-68400500D01*
X160919585Y-68402026D01*
X160934166Y-68404336D01*
X161004648Y-68415500D01*
X161004652Y-68415500D01*
X161227460Y-68415500D01*
X161297941Y-68404336D01*
X161312522Y-68402026D01*
X161331920Y-68400500D01*
X163900188Y-68400500D01*
X163919585Y-68402026D01*
X163934166Y-68404336D01*
X164004648Y-68415500D01*
X164004652Y-68415500D01*
X164227460Y-68415500D01*
X164297941Y-68404336D01*
X164312522Y-68402026D01*
X164331920Y-68400500D01*
X166900188Y-68400500D01*
X166919585Y-68402026D01*
X166934166Y-68404336D01*
X167004648Y-68415500D01*
X167004652Y-68415500D01*
X167227460Y-68415500D01*
X167297941Y-68404336D01*
X167312522Y-68402026D01*
X167331920Y-68400500D01*
X169900188Y-68400500D01*
X169919585Y-68402026D01*
X169934166Y-68404336D01*
X170004648Y-68415500D01*
X170004652Y-68415500D01*
X170227460Y-68415500D01*
X170297941Y-68404336D01*
X170312522Y-68402026D01*
X170331920Y-68400500D01*
X172900188Y-68400500D01*
X172919585Y-68402026D01*
X172934166Y-68404336D01*
X173004648Y-68415500D01*
X173004652Y-68415500D01*
X173227460Y-68415500D01*
X173297941Y-68404336D01*
X173312522Y-68402026D01*
X173331920Y-68400500D01*
X175900188Y-68400500D01*
X175919585Y-68402026D01*
X175934166Y-68404336D01*
X176004648Y-68415500D01*
X176004652Y-68415500D01*
X176227460Y-68415500D01*
X176297941Y-68404336D01*
X176312522Y-68402026D01*
X176331920Y-68400500D01*
X178900188Y-68400500D01*
X178919585Y-68402026D01*
X178934166Y-68404336D01*
X179004648Y-68415500D01*
X179004652Y-68415500D01*
X179227460Y-68415500D01*
X179297941Y-68404336D01*
X179312522Y-68402026D01*
X179331920Y-68400500D01*
X181900188Y-68400500D01*
X181919585Y-68402026D01*
X181934166Y-68404336D01*
X182004648Y-68415500D01*
X182004652Y-68415500D01*
X182227460Y-68415500D01*
X182297941Y-68404336D01*
X182312522Y-68402026D01*
X182331920Y-68400500D01*
X184900188Y-68400500D01*
X184919585Y-68402026D01*
X184934166Y-68404336D01*
X185004648Y-68415500D01*
X185004652Y-68415500D01*
X185227460Y-68415500D01*
X185297941Y-68404336D01*
X185312522Y-68402026D01*
X185331920Y-68400500D01*
X187900188Y-68400500D01*
X187919585Y-68402026D01*
X187934166Y-68404336D01*
X188004648Y-68415500D01*
X188004652Y-68415500D01*
X188227460Y-68415500D01*
X188297941Y-68404336D01*
X188312522Y-68402026D01*
X188331920Y-68400500D01*
X190900188Y-68400500D01*
X190919585Y-68402026D01*
X190934166Y-68404336D01*
X191004648Y-68415500D01*
X191004652Y-68415500D01*
X191227460Y-68415500D01*
X191297941Y-68404336D01*
X191312522Y-68402026D01*
X191331920Y-68400500D01*
X193900188Y-68400500D01*
X193919585Y-68402026D01*
X193934166Y-68404336D01*
X194004648Y-68415500D01*
X194004652Y-68415500D01*
X194227460Y-68415500D01*
X194297941Y-68404336D01*
X194312522Y-68402026D01*
X194331920Y-68400500D01*
X196900188Y-68400500D01*
X196919585Y-68402026D01*
X196934166Y-68404336D01*
X197004648Y-68415500D01*
X197004652Y-68415500D01*
X197227460Y-68415500D01*
X197297941Y-68404336D01*
X197312522Y-68402026D01*
X197331920Y-68400500D01*
X199900188Y-68400500D01*
X199919585Y-68402026D01*
X199934166Y-68404336D01*
X200004648Y-68415500D01*
X200004652Y-68415500D01*
X200227460Y-68415500D01*
X200297941Y-68404336D01*
X200312522Y-68402026D01*
X200331920Y-68400500D01*
X202900188Y-68400500D01*
X202919585Y-68402026D01*
X202934166Y-68404336D01*
X203004648Y-68415500D01*
X203004652Y-68415500D01*
X203227460Y-68415500D01*
X203297941Y-68404336D01*
X203312522Y-68402026D01*
X203331920Y-68400500D01*
X205900188Y-68400500D01*
X205919585Y-68402026D01*
X205934166Y-68404336D01*
X206004648Y-68415500D01*
X206004652Y-68415500D01*
X206227460Y-68415500D01*
X206297941Y-68404336D01*
X206312522Y-68402026D01*
X206331920Y-68400500D01*
X208900188Y-68400500D01*
X208919585Y-68402026D01*
X208934166Y-68404336D01*
X209004648Y-68415500D01*
X209004652Y-68415500D01*
X209227460Y-68415500D01*
X209297941Y-68404336D01*
X209312522Y-68402026D01*
X209331920Y-68400500D01*
X211900188Y-68400500D01*
X211919585Y-68402026D01*
X211934166Y-68404336D01*
X212004648Y-68415500D01*
X212004652Y-68415500D01*
X212227460Y-68415500D01*
X212297941Y-68404336D01*
X212312522Y-68402026D01*
X212331920Y-68400500D01*
X214900188Y-68400500D01*
X214919585Y-68402026D01*
X214934166Y-68404336D01*
X215004648Y-68415500D01*
X215004652Y-68415500D01*
X215227460Y-68415500D01*
X215297941Y-68404336D01*
X215312522Y-68402026D01*
X215331920Y-68400500D01*
X217900188Y-68400500D01*
X217919585Y-68402026D01*
X217934166Y-68404336D01*
X218004648Y-68415500D01*
X218004652Y-68415500D01*
X218227460Y-68415500D01*
X218297941Y-68404336D01*
X218312522Y-68402026D01*
X218331920Y-68400500D01*
X220900188Y-68400500D01*
X220919585Y-68402026D01*
X220934166Y-68404336D01*
X221004648Y-68415500D01*
X221004652Y-68415500D01*
X221227460Y-68415500D01*
X221297941Y-68404336D01*
X221312522Y-68402026D01*
X221331920Y-68400500D01*
X223900188Y-68400500D01*
X223919585Y-68402026D01*
X223934166Y-68404336D01*
X224004648Y-68415500D01*
X224004652Y-68415500D01*
X224227460Y-68415500D01*
X224297941Y-68404336D01*
X224312522Y-68402026D01*
X224331920Y-68400500D01*
X226900188Y-68400500D01*
X226919585Y-68402026D01*
X226934166Y-68404336D01*
X227004648Y-68415500D01*
X227004652Y-68415500D01*
X227227460Y-68415500D01*
X227297941Y-68404336D01*
X227312522Y-68402026D01*
X227331920Y-68400500D01*
X229900188Y-68400500D01*
X229919585Y-68402026D01*
X229934166Y-68404336D01*
X230004648Y-68415500D01*
X230004652Y-68415500D01*
X230227460Y-68415500D01*
X230297941Y-68404336D01*
X230312522Y-68402026D01*
X230331920Y-68400500D01*
X232900188Y-68400500D01*
X232919585Y-68402026D01*
X232934166Y-68404336D01*
X233004648Y-68415500D01*
X233004652Y-68415500D01*
X233227460Y-68415500D01*
X233297941Y-68404336D01*
X233312522Y-68402026D01*
X233331920Y-68400500D01*
X235900188Y-68400500D01*
X235919585Y-68402026D01*
X235934166Y-68404336D01*
X236004648Y-68415500D01*
X236004652Y-68415500D01*
X236227460Y-68415500D01*
X236297941Y-68404336D01*
X236312522Y-68402026D01*
X236331920Y-68400500D01*
X244250697Y-68400500D01*
X244250721Y-68400501D01*
X244255832Y-68400501D01*
X244476275Y-68400501D01*
X244476276Y-68400501D01*
X244694005Y-68366015D01*
X244903660Y-68297895D01*
X245100076Y-68197815D01*
X245278419Y-68068242D01*
X245434296Y-67912365D01*
X245434297Y-67912363D01*
X245441357Y-67905303D01*
X245441363Y-67905296D01*
X249271350Y-64075309D01*
X249271357Y-64075303D01*
X249278417Y-64068243D01*
X249278419Y-64068242D01*
X249434296Y-63912365D01*
X249563869Y-63734022D01*
X249663949Y-63537606D01*
X249732069Y-63327951D01*
X249766554Y-63110222D01*
X249766554Y-57124831D01*
X249786239Y-57057792D01*
X249832099Y-57015474D01*
X250090633Y-56877286D01*
X250364352Y-56694393D01*
X250618826Y-56485551D01*
X250851605Y-56252772D01*
X251060447Y-55998298D01*
X251243340Y-55724579D01*
X251398523Y-55434251D01*
X251524502Y-55130111D01*
X251620064Y-54815087D01*
X251620066Y-54815077D01*
X251620069Y-54815066D01*
X251648970Y-54669760D01*
X251684287Y-54492213D01*
X251716554Y-54164600D01*
X251716554Y-53835400D01*
X251684287Y-53507787D01*
X251655957Y-53365361D01*
X251620069Y-53184933D01*
X251620066Y-53184922D01*
X251620065Y-53184919D01*
X251620064Y-53184913D01*
X251524502Y-52869889D01*
X251398523Y-52565749D01*
X251243340Y-52275421D01*
X251060447Y-52001702D01*
X250851605Y-51747228D01*
X250851604Y-51747227D01*
X250851600Y-51747222D01*
X250618831Y-51514453D01*
X250364357Y-51305611D01*
X250364356Y-51305610D01*
X250364352Y-51305607D01*
X250090633Y-51122714D01*
X250090628Y-51122711D01*
X250090621Y-51122707D01*
X249800312Y-50967535D01*
X249800305Y-50967531D01*
X249719615Y-50934108D01*
X249496166Y-50841552D01*
X249181131Y-50745987D01*
X249181120Y-50745984D01*
X248858272Y-50681768D01*
X248858267Y-50681767D01*
X248858265Y-50681766D01*
X248858255Y-50681765D01*
X248617576Y-50658061D01*
X248530654Y-50649500D01*
X248201454Y-50649500D01*
X248121594Y-50657365D01*
X247873852Y-50681765D01*
X247873835Y-50681768D01*
X247550987Y-50745984D01*
X247550976Y-50745987D01*
X247235941Y-50841552D01*
X246931809Y-50967528D01*
X246931795Y-50967535D01*
X246641486Y-51122707D01*
X246641468Y-51122718D01*
X246367764Y-51305601D01*
X246367750Y-51305611D01*
X246113276Y-51514453D01*
X245880507Y-51747222D01*
X245671665Y-52001696D01*
X245671655Y-52001710D01*
X245488772Y-52275414D01*
X245488761Y-52275432D01*
X245333589Y-52565741D01*
X245333582Y-52565755D01*
X245207606Y-52869887D01*
X245112041Y-53184922D01*
X245112038Y-53184933D01*
X245047822Y-53507781D01*
X245047819Y-53507798D01*
X245015554Y-53835403D01*
X245015554Y-54164596D01*
X245047819Y-54492201D01*
X245047822Y-54492218D01*
X245112038Y-54815066D01*
X245112041Y-54815077D01*
X245207606Y-55130112D01*
X245333582Y-55434244D01*
X245333589Y-55434258D01*
X245488761Y-55724567D01*
X245488772Y-55724585D01*
X245671655Y-55998289D01*
X245671665Y-55998303D01*
X245880507Y-56252777D01*
X246113276Y-56485546D01*
X246113281Y-56485550D01*
X246113282Y-56485551D01*
X246367756Y-56694393D01*
X246641475Y-56877286D01*
X246900008Y-57015474D01*
X246949851Y-57064435D01*
X246965554Y-57124831D01*
X246965554Y-62368532D01*
X246945869Y-62435571D01*
X246929235Y-62456213D01*
X243822267Y-65563181D01*
X243760944Y-65596666D01*
X243734586Y-65599500D01*
X236331920Y-65599500D01*
X236312522Y-65597973D01*
X236297941Y-65595663D01*
X236227460Y-65584500D01*
X236227456Y-65584500D01*
X236004652Y-65584500D01*
X236004648Y-65584500D01*
X235934166Y-65595663D01*
X235919585Y-65597973D01*
X235900188Y-65599500D01*
X233331920Y-65599500D01*
X233312522Y-65597973D01*
X233297941Y-65595663D01*
X233227460Y-65584500D01*
X233227456Y-65584500D01*
X233004652Y-65584500D01*
X233004648Y-65584500D01*
X232934166Y-65595663D01*
X232919585Y-65597973D01*
X232900188Y-65599500D01*
X230331920Y-65599500D01*
X230312522Y-65597973D01*
X230297941Y-65595663D01*
X230227460Y-65584500D01*
X230227456Y-65584500D01*
X230004652Y-65584500D01*
X230004648Y-65584500D01*
X229934166Y-65595663D01*
X229919585Y-65597973D01*
X229900188Y-65599500D01*
X227331920Y-65599500D01*
X227312522Y-65597973D01*
X227297941Y-65595663D01*
X227227460Y-65584500D01*
X227227456Y-65584500D01*
X227004652Y-65584500D01*
X227004648Y-65584500D01*
X226934166Y-65595663D01*
X226919585Y-65597973D01*
X226900188Y-65599500D01*
X224331920Y-65599500D01*
X224312522Y-65597973D01*
X224297941Y-65595663D01*
X224227460Y-65584500D01*
X224227456Y-65584500D01*
X224004652Y-65584500D01*
X224004648Y-65584500D01*
X223934166Y-65595663D01*
X223919585Y-65597973D01*
X223900188Y-65599500D01*
X221331920Y-65599500D01*
X221312522Y-65597973D01*
X221297941Y-65595663D01*
X221227460Y-65584500D01*
X221227456Y-65584500D01*
X221004652Y-65584500D01*
X221004648Y-65584500D01*
X220934166Y-65595663D01*
X220919585Y-65597973D01*
X220900188Y-65599500D01*
X218331920Y-65599500D01*
X218312522Y-65597973D01*
X218297941Y-65595663D01*
X218227460Y-65584500D01*
X218227456Y-65584500D01*
X218004652Y-65584500D01*
X218004648Y-65584500D01*
X217934166Y-65595663D01*
X217919585Y-65597973D01*
X217900188Y-65599500D01*
X215331920Y-65599500D01*
X215312522Y-65597973D01*
X215297941Y-65595663D01*
X215227460Y-65584500D01*
X215227456Y-65584500D01*
X215004652Y-65584500D01*
X215004648Y-65584500D01*
X214934166Y-65595663D01*
X214919585Y-65597973D01*
X214900188Y-65599500D01*
X212331920Y-65599500D01*
X212312522Y-65597973D01*
X212297941Y-65595663D01*
X212227460Y-65584500D01*
X212227456Y-65584500D01*
X212004652Y-65584500D01*
X212004648Y-65584500D01*
X211934166Y-65595663D01*
X211919585Y-65597973D01*
X211900188Y-65599500D01*
X209331920Y-65599500D01*
X209312522Y-65597973D01*
X209297941Y-65595663D01*
X209227460Y-65584500D01*
X209227456Y-65584500D01*
X209004652Y-65584500D01*
X209004648Y-65584500D01*
X208934166Y-65595663D01*
X208919585Y-65597973D01*
X208900188Y-65599500D01*
X206331920Y-65599500D01*
X206312522Y-65597973D01*
X206297941Y-65595663D01*
X206227460Y-65584500D01*
X206227456Y-65584500D01*
X206004652Y-65584500D01*
X206004648Y-65584500D01*
X205934166Y-65595663D01*
X205919585Y-65597973D01*
X205900188Y-65599500D01*
X203331920Y-65599500D01*
X203312522Y-65597973D01*
X203297941Y-65595663D01*
X203227460Y-65584500D01*
X203227456Y-65584500D01*
X203004652Y-65584500D01*
X203004648Y-65584500D01*
X202934166Y-65595663D01*
X202919585Y-65597973D01*
X202900188Y-65599500D01*
X200331920Y-65599500D01*
X200312522Y-65597973D01*
X200297941Y-65595663D01*
X200227460Y-65584500D01*
X200227456Y-65584500D01*
X200004652Y-65584500D01*
X200004648Y-65584500D01*
X199934166Y-65595663D01*
X199919585Y-65597973D01*
X199900188Y-65599500D01*
X197331920Y-65599500D01*
X197312522Y-65597973D01*
X197297941Y-65595663D01*
X197227460Y-65584500D01*
X197227456Y-65584500D01*
X197004652Y-65584500D01*
X197004648Y-65584500D01*
X196934166Y-65595663D01*
X196919585Y-65597973D01*
X196900188Y-65599500D01*
X194331920Y-65599500D01*
X194312522Y-65597973D01*
X194297941Y-65595663D01*
X194227460Y-65584500D01*
X194227456Y-65584500D01*
X194004652Y-65584500D01*
X194004648Y-65584500D01*
X193934166Y-65595663D01*
X193919585Y-65597973D01*
X193900188Y-65599500D01*
X191331920Y-65599500D01*
X191312522Y-65597973D01*
X191297941Y-65595663D01*
X191227460Y-65584500D01*
X191227456Y-65584500D01*
X191004652Y-65584500D01*
X191004648Y-65584500D01*
X190934166Y-65595663D01*
X190919585Y-65597973D01*
X190900188Y-65599500D01*
X188331920Y-65599500D01*
X188312522Y-65597973D01*
X188297941Y-65595663D01*
X188227460Y-65584500D01*
X188227456Y-65584500D01*
X188004652Y-65584500D01*
X188004648Y-65584500D01*
X187934166Y-65595663D01*
X187919585Y-65597973D01*
X187900188Y-65599500D01*
X185331920Y-65599500D01*
X185312522Y-65597973D01*
X185297941Y-65595663D01*
X185227460Y-65584500D01*
X185227456Y-65584500D01*
X185004652Y-65584500D01*
X185004648Y-65584500D01*
X184934166Y-65595663D01*
X184919585Y-65597973D01*
X184900188Y-65599500D01*
X182331920Y-65599500D01*
X182312522Y-65597973D01*
X182297941Y-65595663D01*
X182227460Y-65584500D01*
X182227456Y-65584500D01*
X182004652Y-65584500D01*
X182004648Y-65584500D01*
X181934166Y-65595663D01*
X181919585Y-65597973D01*
X181900188Y-65599500D01*
X179331920Y-65599500D01*
X179312522Y-65597973D01*
X179297941Y-65595663D01*
X179227460Y-65584500D01*
X179227456Y-65584500D01*
X179004652Y-65584500D01*
X179004648Y-65584500D01*
X178934166Y-65595663D01*
X178919585Y-65597973D01*
X178900188Y-65599500D01*
X176331920Y-65599500D01*
X176312522Y-65597973D01*
X176297941Y-65595663D01*
X176227460Y-65584500D01*
X176227456Y-65584500D01*
X176004652Y-65584500D01*
X176004648Y-65584500D01*
X175934166Y-65595663D01*
X175919585Y-65597973D01*
X175900188Y-65599500D01*
X173331920Y-65599500D01*
X173312522Y-65597973D01*
X173297941Y-65595663D01*
X173227460Y-65584500D01*
X173227456Y-65584500D01*
X173004652Y-65584500D01*
X173004648Y-65584500D01*
X172934166Y-65595663D01*
X172919585Y-65597973D01*
X172900188Y-65599500D01*
X170331920Y-65599500D01*
X170312522Y-65597973D01*
X170297941Y-65595663D01*
X170227460Y-65584500D01*
X170227456Y-65584500D01*
X170004652Y-65584500D01*
X170004648Y-65584500D01*
X169934166Y-65595663D01*
X169919585Y-65597973D01*
X169900188Y-65599500D01*
X167331920Y-65599500D01*
X167312522Y-65597973D01*
X167297941Y-65595663D01*
X167227460Y-65584500D01*
X167227456Y-65584500D01*
X167004652Y-65584500D01*
X167004648Y-65584500D01*
X166934166Y-65595663D01*
X166919585Y-65597973D01*
X166900188Y-65599500D01*
X164331920Y-65599500D01*
X164312522Y-65597973D01*
X164297941Y-65595663D01*
X164227460Y-65584500D01*
X164227456Y-65584500D01*
X164004652Y-65584500D01*
X164004648Y-65584500D01*
X163934166Y-65595663D01*
X163919585Y-65597973D01*
X163900188Y-65599500D01*
X161331920Y-65599500D01*
X161312522Y-65597973D01*
X161297941Y-65595663D01*
X161227460Y-65584500D01*
X161227456Y-65584500D01*
X161004652Y-65584500D01*
X161004648Y-65584500D01*
X160934166Y-65595663D01*
X160919585Y-65597973D01*
X160900188Y-65599500D01*
X158331920Y-65599500D01*
X158312522Y-65597973D01*
X158297941Y-65595663D01*
X158227460Y-65584500D01*
X158227456Y-65584500D01*
X158004652Y-65584500D01*
X158004648Y-65584500D01*
X157934166Y-65595663D01*
X157919585Y-65597973D01*
X157900188Y-65599500D01*
X155331920Y-65599500D01*
X155312522Y-65597973D01*
X155297941Y-65595663D01*
X155227460Y-65584500D01*
X155227456Y-65584500D01*
X155004652Y-65584500D01*
X155004648Y-65584500D01*
X154934166Y-65595663D01*
X154919585Y-65597973D01*
X154900188Y-65599500D01*
X152331920Y-65599500D01*
X152312522Y-65597973D01*
X152297941Y-65595663D01*
X152227460Y-65584500D01*
X152227456Y-65584500D01*
X152004652Y-65584500D01*
X152004648Y-65584500D01*
X151934166Y-65595663D01*
X151919585Y-65597973D01*
X151900188Y-65599500D01*
X149331920Y-65599500D01*
X149312522Y-65597973D01*
X149297941Y-65595663D01*
X149227460Y-65584500D01*
X149227456Y-65584500D01*
X149004652Y-65584500D01*
X149004648Y-65584500D01*
X148934166Y-65595663D01*
X148919585Y-65597973D01*
X148900188Y-65599500D01*
X146331920Y-65599500D01*
X146312522Y-65597973D01*
X146297941Y-65595663D01*
X146227460Y-65584500D01*
X146227456Y-65584500D01*
X146004652Y-65584500D01*
X146004648Y-65584500D01*
X145934166Y-65595663D01*
X145919585Y-65597973D01*
X145900188Y-65599500D01*
X143331920Y-65599500D01*
X143312522Y-65597973D01*
X143297941Y-65595663D01*
X143227460Y-65584500D01*
X143227456Y-65584500D01*
X143004652Y-65584500D01*
X143004648Y-65584500D01*
X142934166Y-65595663D01*
X142919585Y-65597973D01*
X142900188Y-65599500D01*
X140331920Y-65599500D01*
X140312522Y-65597973D01*
X140297941Y-65595663D01*
X140227460Y-65584500D01*
X140227456Y-65584500D01*
X140004652Y-65584500D01*
X140004648Y-65584500D01*
X139934166Y-65595663D01*
X139919585Y-65597973D01*
X139900188Y-65599500D01*
X137331920Y-65599500D01*
X137312522Y-65597973D01*
X137297941Y-65595663D01*
X137227460Y-65584500D01*
X137227456Y-65584500D01*
X137004652Y-65584500D01*
X137004648Y-65584500D01*
X136934166Y-65595663D01*
X136919585Y-65597973D01*
X136900188Y-65599500D01*
X134331920Y-65599500D01*
X134312522Y-65597973D01*
X134297941Y-65595663D01*
X134227460Y-65584500D01*
X134227456Y-65584500D01*
X134004652Y-65584500D01*
X134004648Y-65584500D01*
X133934166Y-65595663D01*
X133919585Y-65597973D01*
X133900188Y-65599500D01*
X131331920Y-65599500D01*
X131312522Y-65597973D01*
X131297941Y-65595663D01*
X131227460Y-65584500D01*
X131227456Y-65584500D01*
X131004652Y-65584500D01*
X131004648Y-65584500D01*
X130934166Y-65595663D01*
X130919585Y-65597973D01*
X130900188Y-65599500D01*
X128456920Y-65599500D01*
X128437522Y-65597973D01*
X128422941Y-65595663D01*
X128352460Y-65584500D01*
X128352456Y-65584500D01*
X128129652Y-65584500D01*
X128129648Y-65584500D01*
X128059166Y-65595663D01*
X128044585Y-65597973D01*
X128025188Y-65599500D01*
X125331920Y-65599500D01*
X125312522Y-65597973D01*
X125297941Y-65595663D01*
X125227460Y-65584500D01*
X125227456Y-65584500D01*
X125004652Y-65584500D01*
X125004648Y-65584500D01*
X124934166Y-65595663D01*
X124919585Y-65597973D01*
X124900188Y-65599500D01*
X122331920Y-65599500D01*
X122312522Y-65597973D01*
X122297941Y-65595663D01*
X122227460Y-65584500D01*
X122227456Y-65584500D01*
X122004652Y-65584500D01*
X122004648Y-65584500D01*
X121934166Y-65595663D01*
X121919585Y-65597973D01*
X121900188Y-65599500D01*
X119331920Y-65599500D01*
X119312522Y-65597973D01*
X119297941Y-65595663D01*
X119227460Y-65584500D01*
X119227456Y-65584500D01*
X119004652Y-65584500D01*
X119004648Y-65584500D01*
X118934166Y-65595663D01*
X118919585Y-65597973D01*
X118900188Y-65599500D01*
X116331920Y-65599500D01*
X116312522Y-65597973D01*
X116297941Y-65595663D01*
X116227460Y-65584500D01*
X116227456Y-65584500D01*
X116004652Y-65584500D01*
X116004648Y-65584500D01*
X115934166Y-65595663D01*
X115919585Y-65597973D01*
X115900188Y-65599500D01*
X113331920Y-65599500D01*
X113312522Y-65597973D01*
X113297941Y-65595663D01*
X113227460Y-65584500D01*
X113227456Y-65584500D01*
X113004652Y-65584500D01*
X113004648Y-65584500D01*
X112934166Y-65595663D01*
X112919585Y-65597973D01*
X112900188Y-65599500D01*
X110331920Y-65599500D01*
X110312522Y-65597973D01*
X110297941Y-65595663D01*
X110227460Y-65584500D01*
X110227456Y-65584500D01*
X110004652Y-65584500D01*
X110004648Y-65584500D01*
X109934166Y-65595663D01*
X109919585Y-65597973D01*
X109900188Y-65599500D01*
X107331920Y-65599500D01*
X107312522Y-65597973D01*
X107297941Y-65595663D01*
X107227460Y-65584500D01*
X107227456Y-65584500D01*
X107004652Y-65584500D01*
X107004648Y-65584500D01*
X106934166Y-65595663D01*
X106919585Y-65597973D01*
X106900188Y-65599500D01*
X104331920Y-65599500D01*
X104312522Y-65597973D01*
X104297941Y-65595663D01*
X104227460Y-65584500D01*
X104227456Y-65584500D01*
X104004652Y-65584500D01*
X104004648Y-65584500D01*
X103934166Y-65595663D01*
X103919585Y-65597973D01*
X103900188Y-65599500D01*
X101331920Y-65599500D01*
X101312522Y-65597973D01*
X101297941Y-65595663D01*
X101227460Y-65584500D01*
X101227456Y-65584500D01*
X101004652Y-65584500D01*
X101004648Y-65584500D01*
X100934166Y-65595663D01*
X100919585Y-65597973D01*
X100900188Y-65599500D01*
X98331920Y-65599500D01*
X98312522Y-65597973D01*
X98297941Y-65595663D01*
X98227460Y-65584500D01*
X98227456Y-65584500D01*
X98004652Y-65584500D01*
X98004648Y-65584500D01*
X97934166Y-65595663D01*
X97919585Y-65597973D01*
X97900188Y-65599500D01*
X95331920Y-65599500D01*
X95312522Y-65597973D01*
X95297941Y-65595663D01*
X95227460Y-65584500D01*
X95227456Y-65584500D01*
X95004652Y-65584500D01*
X95004648Y-65584500D01*
X94934166Y-65595663D01*
X94919585Y-65597973D01*
X94900188Y-65599500D01*
X92331920Y-65599500D01*
X92312522Y-65597973D01*
X92297941Y-65595663D01*
X92227460Y-65584500D01*
X92227456Y-65584500D01*
X92004652Y-65584500D01*
X92004648Y-65584500D01*
X91934166Y-65595663D01*
X91919585Y-65597973D01*
X91900188Y-65599500D01*
X89331920Y-65599500D01*
X89312522Y-65597973D01*
X89297941Y-65595663D01*
X89227460Y-65584500D01*
X89227456Y-65584500D01*
X89004652Y-65584500D01*
X89004648Y-65584500D01*
X88934166Y-65595663D01*
X88919585Y-65597973D01*
X88900188Y-65599500D01*
X86331920Y-65599500D01*
X86312522Y-65597973D01*
X86297941Y-65595663D01*
X86227460Y-65584500D01*
X86227456Y-65584500D01*
X86004652Y-65584500D01*
X86004648Y-65584500D01*
X85934166Y-65595663D01*
X85919585Y-65597973D01*
X85900188Y-65599500D01*
X83331920Y-65599500D01*
X83312522Y-65597973D01*
X83297941Y-65595663D01*
X83227460Y-65584500D01*
X83227456Y-65584500D01*
X83004652Y-65584500D01*
X83004648Y-65584500D01*
X82934166Y-65595663D01*
X82919585Y-65597973D01*
X82900188Y-65599500D01*
X80331920Y-65599500D01*
X80312522Y-65597973D01*
X80297941Y-65595663D01*
X80227460Y-65584500D01*
X80227456Y-65584500D01*
X80004652Y-65584500D01*
X80004648Y-65584500D01*
X79934166Y-65595663D01*
X79919585Y-65597973D01*
X79900188Y-65599500D01*
X77331920Y-65599500D01*
X77312522Y-65597973D01*
X77297941Y-65595663D01*
X77227460Y-65584500D01*
X77227456Y-65584500D01*
X77004652Y-65584500D01*
X77004648Y-65584500D01*
X76934166Y-65595663D01*
X76919585Y-65597973D01*
X76900188Y-65599500D01*
X74331920Y-65599500D01*
X74312522Y-65597973D01*
X74297941Y-65595663D01*
X74227460Y-65584500D01*
X74227456Y-65584500D01*
X74004652Y-65584500D01*
X74004648Y-65584500D01*
X73934166Y-65595663D01*
X73919585Y-65597973D01*
X73900188Y-65599500D01*
X71331920Y-65599500D01*
X71312522Y-65597973D01*
X71297941Y-65595663D01*
X71227460Y-65584500D01*
X71227456Y-65584500D01*
X71004652Y-65584500D01*
X71004648Y-65584500D01*
X70934166Y-65595663D01*
X70919585Y-65597973D01*
X70900188Y-65599500D01*
X68331920Y-65599500D01*
X68312522Y-65597973D01*
X68297941Y-65595663D01*
X68227460Y-65584500D01*
X68227456Y-65584500D01*
X68004652Y-65584500D01*
X68004648Y-65584500D01*
X67934166Y-65595663D01*
X67919585Y-65597973D01*
X67900188Y-65599500D01*
X65331920Y-65599500D01*
X65312522Y-65597973D01*
X65297941Y-65595663D01*
X65227460Y-65584500D01*
X65227456Y-65584500D01*
X65004652Y-65584500D01*
X65004648Y-65584500D01*
X64934166Y-65595663D01*
X64919585Y-65597973D01*
X64900188Y-65599500D01*
X62331920Y-65599500D01*
X62312522Y-65597973D01*
X62297941Y-65595663D01*
X62227460Y-65584500D01*
X62227456Y-65584500D01*
X62004652Y-65584500D01*
X62004648Y-65584500D01*
X61934166Y-65595663D01*
X61919585Y-65597973D01*
X61900188Y-65599500D01*
X59331920Y-65599500D01*
X59312522Y-65597973D01*
X59297941Y-65595663D01*
X59227460Y-65584500D01*
X59227456Y-65584500D01*
X59004652Y-65584500D01*
X59004648Y-65584500D01*
X58934166Y-65595663D01*
X58919585Y-65597973D01*
X58900188Y-65599500D01*
X52997522Y-65599500D01*
X52930483Y-65579815D01*
X52909841Y-65563181D01*
X49802873Y-62456213D01*
X49769388Y-62394890D01*
X49766554Y-62368532D01*
X49766554Y-57124831D01*
X49786239Y-57057792D01*
X49832099Y-57015474D01*
X50090633Y-56877286D01*
X50364352Y-56694393D01*
X50618826Y-56485551D01*
X50851605Y-56252772D01*
X51060447Y-55998298D01*
X51243340Y-55724579D01*
X51398523Y-55434251D01*
X51524502Y-55130111D01*
X51620064Y-54815087D01*
X51620066Y-54815077D01*
X51620069Y-54815066D01*
X51648970Y-54669760D01*
X51684287Y-54492213D01*
X51716554Y-54164600D01*
X51716554Y-53835400D01*
X51684287Y-53507787D01*
X51655957Y-53365361D01*
X51620069Y-53184933D01*
X51620066Y-53184922D01*
X51620065Y-53184919D01*
X51620064Y-53184913D01*
X51524502Y-52869889D01*
X51398523Y-52565749D01*
X51243340Y-52275421D01*
X51060447Y-52001702D01*
X50851605Y-51747228D01*
X50851604Y-51747227D01*
X50851600Y-51747222D01*
X50618831Y-51514453D01*
X50364357Y-51305611D01*
X50364356Y-51305610D01*
X50364352Y-51305607D01*
X50090633Y-51122714D01*
X50090628Y-51122711D01*
X50090621Y-51122707D01*
X49800312Y-50967535D01*
X49800305Y-50967531D01*
X49719615Y-50934108D01*
X49496166Y-50841552D01*
X49181131Y-50745987D01*
X49181120Y-50745984D01*
X48858272Y-50681768D01*
X48858267Y-50681767D01*
X48858265Y-50681766D01*
X48858255Y-50681765D01*
X48617576Y-50658061D01*
X48530654Y-50649500D01*
X48201454Y-50649500D01*
X48121594Y-50657365D01*
X47873852Y-50681765D01*
X47873835Y-50681768D01*
X47550987Y-50745984D01*
X47550976Y-50745987D01*
X47235941Y-50841552D01*
X46931809Y-50967528D01*
X46931795Y-50967535D01*
X46641486Y-51122707D01*
X46641468Y-51122718D01*
X46367764Y-51305601D01*
X46367750Y-51305611D01*
X46113276Y-51514453D01*
X45880507Y-51747222D01*
X45671665Y-52001696D01*
X45671655Y-52001710D01*
X45488772Y-52275414D01*
X45488761Y-52275432D01*
X45333589Y-52565741D01*
X45333582Y-52565755D01*
X45207606Y-52869887D01*
X45112041Y-53184922D01*
X45112038Y-53184933D01*
X45047822Y-53507781D01*
X45047819Y-53507798D01*
X45015554Y-53835403D01*
X43866554Y-53835403D01*
X43866554Y-51004427D01*
X43866870Y-50995581D01*
X43877372Y-50848748D01*
X43881184Y-50795436D01*
X43883700Y-50777938D01*
X43925410Y-50586200D01*
X43930389Y-50569242D01*
X43998965Y-50385382D01*
X44006305Y-50369310D01*
X44100348Y-50197083D01*
X44109904Y-50182214D01*
X44227497Y-50025128D01*
X44239071Y-50011771D01*
X44377825Y-49873017D01*
X44391182Y-49861443D01*
X44548268Y-49743850D01*
X44563137Y-49734294D01*
X44735364Y-49640251D01*
X44751436Y-49632911D01*
X44935296Y-49564335D01*
X44952254Y-49559356D01*
X45143992Y-49517646D01*
X45161490Y-49515130D01*
X45361636Y-49500816D01*
X45370482Y-49500500D01*
X45431946Y-49500500D01*
X51300162Y-49500500D01*
X51361626Y-49500500D01*
X51370472Y-49500816D01*
G37*
%TD.AperFunction*%
M02*
