ISO-10303-21;
HEADER;
FILE_DESCRIPTION (( 'STEP AP214' ),
    '1' );
FILE_NAME ('0F5164DB-4D1C-4AD1-86A6-38D0CAFF95BC.STEP',
    '2023-05-09T15:26:12',
    ( '' ),
    ( '' ),
    'SwSTEP 2.0',
    'SolidWorks 2022',
    '' );
FILE_SCHEMA (( 'AUTOMOTIVE_DESIGN' ));
ENDSEC;

DATA;
#1 = LINE ( 'NONE', #33, #345 ) ;
#2 = ORIENTED_EDGE ( 'NONE', *, *, #251, .T. ) ;
#3 = DIRECTION ( 'NONE',  ( 0.0000000000000000000, 0.0000000000000000000, 1.000000000000000000 ) ) ;
#4 = DIRECTION ( 'NONE',  ( -1.000000000000000000, -0.0000000000000000000, -0.0000000000000000000 ) ) ;
#5 = DIRECTION ( 'NONE',  ( -1.000000000000000000, -0.0000000000000000000, -0.0000000000000000000 ) ) ;
#6 = LINE ( 'NONE', #173, #375 ) ;
#7 = AXIS2_PLACEMENT_3D ( 'NONE', #181, #175, #347 ) ;
#8 = VECTOR ( 'NONE', #235, 39.37007874015748143 ) ;
#9 = FILL_AREA_STYLE ('',( #151 ) ) ;
#10 = DIRECTION ( 'NONE',  ( 0.0000000000000000000, 0.0000000000000000000, 1.000000000000000000 ) ) ;
#11 = ORIENTED_EDGE ( 'NONE', *, *, #399, .T. ) ;
#12 = DIRECTION ( 'NONE',  ( 0.0000000000000000000, 0.0000000000000000000, 1.000000000000000000 ) ) ;
#13 = ADVANCED_FACE ( 'NONE', ( #166 ), #203, .T. ) ;
#14 = ORIENTED_EDGE ( 'NONE', *, *, #327, .T. ) ;
#15 = CARTESIAN_POINT ( 'NONE',  ( 0.1970000000000000084, 0.0000000000000000000, 0.0000000000000000000 ) ) ;
#16 = AXIS2_PLACEMENT_3D ( 'NONE', #499, #169, #280 ) ;
#17 = ORIENTED_EDGE ( 'NONE', *, *, #330, .T. ) ;
#18 = CARTESIAN_POINT ( 'NONE',  ( 0.1059999999999999970, 0.0000000000000000000, 0.0000000000000000000 ) ) ;
#19 =( NAMED_UNIT ( * ) PLANE_ANGLE_UNIT ( ) SI_UNIT ( $, .RADIAN. ) );
#20 = ORIENTED_EDGE ( 'NONE', *, *, #349, .F. ) ;
#21 = ORIENTED_EDGE ( 'NONE', *, *, #124, .T. ) ;
#22 = CIRCLE ( 'NONE', #326, 0.02089999999999999844 ) ;
#23 =( GEOMETRIC_REPRESENTATION_CONTEXT ( 3 ) GLOBAL_UNCERTAINTY_ASSIGNED_CONTEXT ( ( #453 ) ) GLOBAL_UNIT_ASSIGNED_CONTEXT ( ( #385, #252, #356 ) ) REPRESENTATION_CONTEXT ( 'NONE', 'WORKASPACE' ) );
#24 = PRESENTATION_STYLE_ASSIGNMENT (( #360 ) ) ;
#25 = ORIENTED_EDGE ( 'NONE', *, *, #379, .T. ) ;
#26 = ORIENTED_EDGE ( 'NONE', *, *, #251, .F. ) ;
#27 = EDGE_CURVE ( 'NONE', #102, #464, #284, .T. ) ;
#28 = CARTESIAN_POINT ( 'NONE',  ( 0.1819999999999999951, 2.559511810217967774E-18, -0.02089999999999999844 ) ) ;
#29 = ORIENTED_EDGE ( 'NONE', *, *, #363, .F. ) ;
#30 = MECHANICAL_DESIGN_GEOMETRIC_PRESENTATION_REPRESENTATION (  '', ( #302 ), #221 ) ;
#31 = DIRECTION ( 'NONE',  ( -1.000000000000000000, -0.0000000000000000000, -0.0000000000000000000 ) ) ;
#32 = ORIENTED_EDGE ( 'NONE', *, *, #55, .F. ) ;
#33 = CARTESIAN_POINT ( 'NONE',  ( 0.1970000000000000084, 0.0000000000000000000, 0.01799999999999999864 ) ) ;
#34 = CARTESIAN_POINT ( 'NONE',  ( 0.1970000000000000084, 0.0000000000000000000, 0.01799999999999999864 ) ) ;
#35 = ADVANCED_FACE ( 'NONE', ( #123 ), #412, .T. ) ;
#36 = CARTESIAN_POINT ( 'NONE',  ( 0.0000000000000000000, 4.408728476930468717E-18, -0.03599999999999996952 ) ) ;
#37 = VERTEX_POINT ( 'NONE', #161 ) ;
#38 = AXIS2_PLACEMENT_3D ( 'NONE', #209, #88, #170 ) ;
#39 = CIRCLE ( 'NONE', #171, 0.01799999999999999864 ) ;
#40 = CARTESIAN_POINT ( 'NONE',  ( 0.1029999999999999943, 0.0000000000000000000, 0.0000000000000000000 ) ) ;
#41 = STYLED_ITEM ( 'NONE', ( #215 ), #142 ) ;
#42 = PRODUCT_RELATED_PRODUCT_CATEGORY ( 'part', '', ( #268 ) ) ;
#43 = DIRECTION ( 'NONE',  ( -1.000000000000000000, -0.0000000000000000000, -0.0000000000000000000 ) ) ;
#44 = CARTESIAN_POINT ( 'NONE',  ( 0.05333012701892225066, 3.612708057484690125E-18, -0.02949999999999998110 ) ) ;
#45 = ORIENTED_EDGE ( 'NONE', *, *, #379, .F. ) ;
#46 = EDGE_CURVE ( 'NONE', #37, #332, #323, .T. ) ;
#47 =( NAMED_UNIT ( * ) SI_UNIT ( $, .STERADIAN. ) SOLID_ANGLE_UNIT ( ) );
#48 = CARTESIAN_POINT ( 'NONE',  ( 0.0000000000000000000, 0.0000000000000000000, 0.0000000000000000000 ) ) ;
#49 =( LENGTH_UNIT ( ) NAMED_UNIT ( * ) SI_UNIT ( $, .METRE. ) );
#50 = DIRECTION ( 'NONE',  ( 0.0000000000000000000, 0.0000000000000000000, 1.000000000000000000 ) ) ;
#51 = VECTOR ( 'NONE', #229, 39.37007874015748143 ) ;
#52 = DIRECTION ( 'NONE',  ( -1.000000000000000000, -0.0000000000000000000, -0.0000000000000000000 ) ) ;
#53 = ORIENTED_EDGE ( 'NONE', *, *, #428, .F. ) ;
#54 = LENGTH_MEASURE_WITH_UNIT ( LENGTH_MEASURE( 0.02539999999999999897 ), #49 );
#55 = EDGE_CURVE ( 'NONE', #224, #315, #497, .T. ) ;
#56 = CARTESIAN_POINT ( 'NONE',  ( 0.0000000000000000000, 3.612708057484690895E-18, -0.02949999999999999151 ) ) ;
#57 = DIRECTION ( 'NONE',  ( -0.0000000000000000000, 0.0000000000000000000, 1.000000000000000000 ) ) ;
#58 = AXIS2_PLACEMENT_3D ( 'NONE', #132, #145, #392 ) ;
#59 = AXIS2_PLACEMENT_3D ( 'NONE', #434, #222, #12 ) ;
#60 = AXIS2_PLACEMENT_3D ( 'NONE', #471, #473, #95 ) ;
#61 = DIRECTION ( 'NONE',  ( -1.000000000000000000, -0.0000000000000000000, -0.0000000000000000000 ) ) ;
#62 = EDGE_LOOP ( 'NONE', ( #53, #234 ) ) ;
#63 = SURFACE_STYLE_FILL_AREA ( #489 ) ;
#64 = ORIENTED_EDGE ( 'NONE', *, *, #359, .T. ) ;
#65 = CARTESIAN_POINT ( 'NONE',  ( 0.0000000000000000000, 0.0000000000000000000, 0.03049999999999999586 ) ) ;
#66 = ORIENTED_EDGE ( 'NONE', *, *, #293, .F. ) ;
#67 = AXIS2_PLACEMENT_3D ( 'NONE', #505, #414, #196 ) ;
#68 = CIRCLE ( 'NONE', #157, 0.02949999999999999845 ) ;
#69 = APPLICATION_CONTEXT ( 'automotive_design' ) ;
#70 = DIRECTION ( 'NONE',  ( -0.9659258262890682012, 3.169619151431773569E-17, -0.2588190451025214611 ) ) ;
#71 = ORIENTED_EDGE ( 'NONE', *, *, #144, .T. ) ;
#72 = EDGE_LOOP ( 'NONE', ( #504, #443, #257, #232 ) ) ;
#73 = FACE_OUTER_BOUND ( 'NONE', #532, .T. ) ;
#74 = VERTEX_POINT ( 'NONE', #34 ) ;
#75 = CIRCLE ( 'NONE', #230, 0.02089999999999999844 ) ;
#76 = CARTESIAN_POINT ( 'NONE',  ( 0.1029999999999999943, 0.0000000000000000000, 0.0000000000000000000 ) ) ;
#77 = DIRECTION ( 'NONE',  ( -1.000000000000000000, -0.0000000000000000000, -0.0000000000000000000 ) ) ;
#78 = ADVANCED_FACE ( 'NONE', ( #539 ), #335, .T. ) ;
#79 = CARTESIAN_POINT ( 'NONE',  ( 0.0000000000000000000, 0.0000000000000000000, 0.03599999999999998340 ) ) ;
#80 = DIRECTION ( 'NONE',  ( -0.8660254037844417052, 0.0000000000000000000, 0.4999999999999946709 ) ) ;
#81 = DIRECTION ( 'NONE',  ( -1.000000000000000000, -0.0000000000000000000, -0.0000000000000000000 ) ) ;
#82 = ORIENTED_EDGE ( 'NONE', *, *, #420, .T. ) ;
#83 = CIRCLE ( 'NONE', #408, 0.02949999999999999845 ) ;
#84 = DIRECTION ( 'NONE',  ( -1.000000000000000000, -0.0000000000000000000, -0.0000000000000000000 ) ) ;
#85 = PRESENTATION_LAYER_ASSIGNMENT (  '', '', ( #41 ) ) ;
#86 = EDGE_CURVE ( 'NONE', #464, #409, #466, .T. ) ;
#87 = VERTEX_POINT ( 'NONE', #294 ) ;
#88 = DIRECTION ( 'NONE',  ( -1.000000000000000000, -0.0000000000000000000, -0.0000000000000000000 ) ) ;
#89 = CARTESIAN_POINT ( 'NONE',  ( 0.1819999999999999951, 0.0000000000000000000, 0.02089999999999999844 ) ) ;
#90 = EDGE_LOOP ( 'NONE', ( #526, #109 ) ) ;
#91 = CIRCLE ( 'NONE', #290, 0.03049999999999999239 ) ;
#92 = DIRECTION ( 'NONE',  ( 0.0000000000000000000, 0.0000000000000000000, 1.000000000000000000 ) ) ;
#93 =( GEOMETRIC_REPRESENTATION_CONTEXT ( 3 ) GLOBAL_UNCERTAINTY_ASSIGNED_CONTEXT ( ( #447 ) ) GLOBAL_UNIT_ASSIGNED_CONTEXT ( ( #422, #518, #47 ) ) REPRESENTATION_CONTEXT ( 'NONE', 'WORKASPACE' ) );
#94 = ORIENTED_EDGE ( 'NONE', *, *, #124, .F. ) ;
#95 = DIRECTION ( 'NONE',  ( 1.000000000000000000, 0.0000000000000000000, 0.0000000000000000000 ) ) ;
#96 = FACE_OUTER_BOUND ( 'NONE', #90, .T. ) ;
#97 = ORIENTED_EDGE ( 'NONE', *, *, #228, .F. ) ;
#98 = CYLINDRICAL_SURFACE ( 'NONE', #247, 0.03599999999999998340 ) ;
#99 = DIRECTION ( 'NONE',  ( 0.0000000000000000000, 0.0000000000000000000, 1.000000000000000000 ) ) ;
#100 = CARTESIAN_POINT ( 'NONE',  ( 0.1059999999999999970, 3.400593009739713712E-18, -0.02776794919243115098 ) ) ;
#101 = AXIS2_PLACEMENT_3D ( 'NONE', #474, #463, #265 ) ;
#102 = VERTEX_POINT ( 'NONE', #496 ) ;
#103 = DIRECTION ( 'NONE',  ( -0.0000000000000000000, 0.0000000000000000000, 1.000000000000000000 ) ) ;
#104 = EDGE_LOOP ( 'NONE', ( #516, #437, #260, #310 ) ) ;
#105 = DIRECTION ( 'NONE',  ( 0.0000000000000000000, 0.0000000000000000000, 1.000000000000000000 ) ) ;
#106 = VERTEX_POINT ( 'NONE', #207 ) ;
#107 = ADVANCED_FACE ( 'NONE', ( #117 ), #514, .T. ) ;
#108 = DIRECTION ( 'NONE',  ( 0.0000000000000000000, 0.0000000000000000000, 1.000000000000000000 ) ) ;
#109 = ORIENTED_EDGE ( 'NONE', *, *, #330, .F. ) ;
#110 = CIRCLE ( 'NONE', #179, 0.03599999999999996952 ) ;
#111 = PRODUCT_DEFINITION_FORMATION_WITH_SPECIFIED_SOURCE ( 'ANY', '', #268, .NOT_KNOWN. ) ;
#112 = FACE_OUTER_BOUND ( 'NONE', #194, .T. ) ;
#113 = EDGE_LOOP ( 'NONE', ( #511, #480, #2, #94 ) ) ;
#114 = SURFACE_SIDE_STYLE ('',( #63 ) ) ;
#115 = UNCERTAINTY_MEASURE_WITH_UNIT (LENGTH_MEASURE( 1.000000000000000082E-05 ), #365, 'distance_accuracy_value', 'NONE');
#116 = DIRECTION ( 'NONE',  ( 0.0000000000000000000, 0.0000000000000000000, 1.000000000000000000 ) ) ;
#117 = FACE_OUTER_BOUND ( 'NONE', #482, .T. ) ;
#118 = EDGE_CURVE ( 'NONE', #367, #318, #417, .T. ) ;
#119 = VECTOR ( 'NONE', #77, 39.37007874015748143 ) ;
#120 = CIRCLE ( 'NONE', #424, 0.02776794919243115098 ) ;
#121 = CONICAL_SURFACE ( 'NONE', #67, 0.02949999999999998110, 0.2617993877991501295 ) ;
#122 = FACE_OUTER_BOUND ( 'NONE', #485, .T. ) ;
#123 = FACE_OUTER_BOUND ( 'NONE', #341, .T. ) ;
#124 = EDGE_CURVE ( 'NONE', #441, #367, #245, .T. ) ;
#125 = CARTESIAN_POINT ( 'NONE',  ( 0.04400000000000000439, 0.03049999999999999239, 0.0000000000000000000 ) ) ;
#126 = CARTESIAN_POINT ( 'NONE',  ( 0.05333012701892225066, 0.0000000000000000000, 0.0000000000000000000 ) ) ;
#127 = CARTESIAN_POINT ( 'NONE',  ( 0.04400000000000000439, 0.0000000000000000000, 0.03049999999999999239 ) ) ;
#128 = EDGE_LOOP ( 'NONE', ( #227, #277, #263, #26 ) ) ;
#129 = AXIS2_PLACEMENT_3D ( 'NONE', #510, #340, #10 ) ;
#130 = CYLINDRICAL_SURFACE ( 'NONE', #137, 0.03599999999999998340 ) ;
#131 = DIRECTION ( 'NONE',  ( 0.0000000000000000000, 0.0000000000000000000, 1.000000000000000000 ) ) ;
#132 = CARTESIAN_POINT ( 'NONE',  ( 0.04400000000000000439, 0.0000000000000000000, 0.0000000000000000000 ) ) ;
#133 = CARTESIAN_POINT ( 'NONE',  ( 0.01600000000000000033, 0.0000000000000000000, 0.03049999999999999586 ) ) ;
#134 = ORIENTED_EDGE ( 'NONE', *, *, #363, .T. ) ;
#135 = ADVANCED_FACE ( 'NONE', ( #461 ), #421, .F. ) ;
#136 = AXIS2_PLACEMENT_3D ( 'NONE', #250, #288, #502 ) ;
#137 = AXIS2_PLACEMENT_3D ( 'NONE', #328, #81, #292 ) ;
#138 = LINE ( 'NONE', #520, #439 ) ;
#139 = AXIS2_PLACEMENT_3D ( 'NONE', #239, #165, #116 ) ;
#140 = ADVANCED_FACE ( 'NONE', ( #200 ), #220, .T. ) ;
#141 = DIRECTION ( 'NONE',  ( -1.000000000000000000, 0.0000000000000000000, -0.0000000000000000000 ) ) ;
#142 = ADVANCED_BREP_SHAPE_REPRESENTATION ( '0F5164DB-4D1C-4AD1-86A6-38D0CAFF95BC', ( #320, #60 ), #23 ) ;
#143 = EDGE_CURVE ( 'NONE', #318, #148, #458, .T. ) ;
#144 = EDGE_CURVE ( 'NONE', #197, #435, #364, .T. ) ;
#145 = DIRECTION ( 'NONE',  ( -1.000000000000000000, -0.0000000000000000000, -0.0000000000000000000 ) ) ;
#146 = DIRECTION ( 'NONE',  ( 0.0000000000000000000, 0.0000000000000000000, 1.000000000000000000 ) ) ;
#147 = AXIS2_PLACEMENT_3D ( 'NONE', #476, #382, #92 ) ;
#148 = VERTEX_POINT ( 'NONE', #262 ) ;
#149 = CARTESIAN_POINT ( 'NONE',  ( 0.0000000000000000000, 0.0000000000000000000, 0.0000000000000000000 ) ) ;
#150 = ORIENTED_EDGE ( 'NONE', *, *, #301, .T. ) ;
#151 = FILL_AREA_STYLE_COLOUR ( '', #488 ) ;
#152 = DIRECTION ( 'NONE',  ( -1.000000000000000000, -0.0000000000000000000, -0.0000000000000000000 ) ) ;
#153 = VERTEX_POINT ( 'NONE', #388 ) ;
#154 = EDGE_CURVE ( 'NONE', #351, #441, #216, .T. ) ;
#155 =( NAMED_UNIT ( * ) SI_UNIT ( $, .STERADIAN. ) SOLID_ANGLE_UNIT ( ) );
#156 = ORIENTED_EDGE ( 'NONE', *, *, #309, .F. ) ;
#157 = AXIS2_PLACEMENT_3D ( 'NONE', #76, #406, #287 ) ;
#158 = DIRECTION ( 'NONE',  ( -1.000000000000000000, -0.0000000000000000000, -0.0000000000000000000 ) ) ;
#159 = ORIENTED_EDGE ( 'NONE', *, *, #46, .F. ) ;
#160 = DIRECTION ( 'NONE',  ( -1.000000000000000000, -0.0000000000000000000, -0.0000000000000000000 ) ) ;
#161 = CARTESIAN_POINT ( 'NONE',  ( 0.1059999999999999970, 0.0000000000000000000, 0.02776794919243115098 ) ) ;
#162 = FACE_BOUND ( 'NONE', #394, .T. ) ;
#163 = CARTESIAN_POINT ( 'NONE',  ( 0.0000000000000000000, 4.408728476930470258E-18, -0.03599999999999998340 ) ) ;
#164 = PRESENTATION_LAYER_ASSIGNMENT (  '', '', ( #302 ) ) ;
#165 = DIRECTION ( 'NONE',  ( -1.000000000000000000, -0.0000000000000000000, -0.0000000000000000000 ) ) ;
#166 = FACE_OUTER_BOUND ( 'NONE', #113, .T. ) ;
#167 = DIRECTION ( 'NONE',  ( -1.000000000000000000, -0.0000000000000000000, -0.0000000000000000000 ) ) ;
#168 = ORIENTED_EDGE ( 'NONE', *, *, #399, .F. ) ;
#169 = DIRECTION ( 'NONE',  ( -1.000000000000000000, -0.0000000000000000000, -0.0000000000000000000 ) ) ;
#170 = DIRECTION ( 'NONE',  ( 0.0000000000000000000, 0.0000000000000000000, 1.000000000000000000 ) ) ;
#171 = AXIS2_PLACEMENT_3D ( 'NONE', #190, #152, #108 ) ;
#172 = AXIS2_PLACEMENT_3D ( 'NONE', #331, #416, #283 ) ;
#173 = CARTESIAN_POINT ( 'NONE',  ( 0.0000000000000000000, 3.735172737399426715E-18, -0.03049999999999999586 ) ) ;
#174 = SURFACE_STYLE_FILL_AREA ( #9 ) ;
#175 = DIRECTION ( 'NONE',  ( -1.000000000000000000, -0.0000000000000000000, -0.0000000000000000000 ) ) ;
#176 = CARTESIAN_POINT ( 'NONE',  ( 0.04400000000000000439, 3.735172737399426715E-18, -0.03049999999999999239 ) ) ;
#177 = APPLICATION_CONTEXT ( 'automotive_design' ) ;
#178 =( LENGTH_UNIT ( ) NAMED_UNIT ( * ) SI_UNIT ( $, .METRE. ) );
#179 = AXIS2_PLACEMENT_3D ( 'NONE', #455, #533, #377 ) ;
#180 = DIRECTION ( 'NONE',  ( 0.0000000000000000000, 0.0000000000000000000, 1.000000000000000000 ) ) ;
#181 = CARTESIAN_POINT ( 'NONE',  ( 0.1970000000000000084, 0.0000000000000000000, 0.0000000000000000000 ) ) ;
#182 = ORIENTED_EDGE ( 'NONE', *, *, #301, .F. ) ;
#183 = LINE ( 'NONE', #65, #51 ) ;
#184 = ORIENTED_EDGE ( 'NONE', *, *, #143, .F. ) ;
#185 = PRODUCT_DEFINITION_SHAPE ( 'NONE', 'NONE',  #486 ) ;
#186 = VECTOR ( 'NONE', #80, 39.37007874015748143 ) ;
#187 = CARTESIAN_POINT ( 'NONE',  ( 0.1819999999999999951, 0.0000000000000000000, 0.0000000000000000000 ) ) ;
#188 = DIMENSIONAL_EXPONENTS ( 1.000000000000000000, 0.0000000000000000000, 0.0000000000000000000, 0.0000000000000000000, 0.0000000000000000000, 0.0000000000000000000, 0.0000000000000000000 ) ;
#189 = ORIENTED_EDGE ( 'NONE', *, *, #517, .T. ) ;
#190 = CARTESIAN_POINT ( 'NONE',  ( 0.1970000000000000084, 0.0000000000000000000, 0.0000000000000000000 ) ) ;
#191 = ORIENTED_EDGE ( 'NONE', *, *, #495, .T. ) ;
#192 = ORIENTED_EDGE ( 'NONE', *, *, #211, .T. ) ;
#193 = CARTESIAN_POINT ( 'NONE',  ( 0.1059999999999999970, 0.02776794919243115098, 0.0000000000000000000 ) ) ;
#194 = EDGE_LOOP ( 'NONE', ( #150, #271, #438, #20 ) ) ;
#195 = CONICAL_SURFACE ( 'NONE', #246, 0.01799999999999999864, 0.1909771627508957959 ) ;
#196 = DIRECTION ( 'NONE',  ( 0.0000000000000000000, 0.0000000000000000000, 1.000000000000000000 ) ) ;
#197 = VERTEX_POINT ( 'NONE', #133 ) ;
#198 = EDGE_CURVE ( 'NONE', #286, #37, #383, .T. ) ;
#199 = FACE_OUTER_BOUND ( 'NONE', #389, .T. ) ;
#200 = FACE_OUTER_BOUND ( 'NONE', #307, .T. ) ;
#201 = DIRECTION ( 'NONE',  ( -1.000000000000000000, -0.0000000000000000000, -0.0000000000000000000 ) ) ;
#202 = EDGE_CURVE ( 'NONE', #298, #477, #537, .T. ) ;
#203 = CYLINDRICAL_SURFACE ( 'NONE', #352, 0.02949999999999999151 ) ;
#204 = VECTOR ( 'NONE', #419, 39.37007874015747433 ) ;
#205 = AXIS2_PLACEMENT_3D ( 'NONE', #324, #167, #501 ) ;
#206 = CARTESIAN_POINT ( 'NONE',  ( 0.0000000000000000000, 0.0000000000000000000, 0.02089999999999999844 ) ) ;
#207 = CARTESIAN_POINT ( 'NONE',  ( 0.01600000000000000033, 0.0000000000000000000, 0.03599999999999999728 ) ) ;
#208 = LINE ( 'NONE', #206, #8 ) ;
#209 = CARTESIAN_POINT ( 'NONE',  ( 0.05333012701892225066, 0.0000000000000000000, 0.0000000000000000000 ) ) ;
#210 = CARTESIAN_POINT ( 'NONE',  ( 0.0000000000000000000, 0.0000000000000000000, 0.0000000000000000000 ) ) ;
#211 = EDGE_CURVE ( 'NONE', #286, #351, #429, .T. ) ;
#212 = CIRCLE ( 'NONE', #7, 0.01799999999999999864 ) ;
#213 = FACE_OUTER_BOUND ( 'NONE', #62, .T. ) ;
#214 = ADVANCED_FACE ( 'NONE', ( #513 ), #195, .T. ) ;
#215 = PRESENTATION_STYLE_ASSIGNMENT (( #217 ) ) ;
#216 = LINE ( 'NONE', #56, #255 ) ;
#217 = SURFACE_STYLE_USAGE ( .BOTH. , #339 ) ;
#218 = DIRECTION ( 'NONE',  ( -1.000000000000000000, -0.0000000000000000000, -0.0000000000000000000 ) ) ;
#219 = ADVANCED_FACE ( 'NONE', ( #213, #519 ), #346, .F. ) ;
#220 = CONICAL_SURFACE ( 'NONE', #529, 0.02776794919243115098, 0.5235987755982927094 ) ;
#221 =( GEOMETRIC_REPRESENTATION_CONTEXT ( 3 ) GLOBAL_UNCERTAINTY_ASSIGNED_CONTEXT ( ( #115 ) ) GLOBAL_UNIT_ASSIGNED_CONTEXT ( ( #365, #19, #155 ) ) REPRESENTATION_CONTEXT ( 'NONE', 'WORKASPACE' ) );
#222 = DIRECTION ( 'NONE',  ( -1.000000000000000000, -0.0000000000000000000, -0.0000000000000000000 ) ) ;
#223 = CONICAL_SURFACE ( 'NONE', #139, 0.02776794919243115098, 0.5235987755982927094 ) ;
#224 = VERTEX_POINT ( 'NONE', #89 ) ;
#225 = DIMENSIONAL_EXPONENTS ( 1.000000000000000000, 0.0000000000000000000, 0.0000000000000000000, 0.0000000000000000000, 0.0000000000000000000, 0.0000000000000000000, 0.0000000000000000000 ) ;
#226 = ORIENTED_EDGE ( 'NONE', *, *, #349, .T. ) ;
#227 = ORIENTED_EDGE ( 'NONE', *, *, #483, .T. ) ;
#228 = EDGE_CURVE ( 'NONE', #435, #197, #237, .T. ) ;
#229 = DIRECTION ( 'NONE',  ( -1.000000000000000000, -0.0000000000000000000, -0.0000000000000000000 ) ) ;
#230 = AXIS2_PLACEMENT_3D ( 'NONE', #314, #484, #146 ) ;
#231 = AXIS2_PLACEMENT_3D ( 'NONE', #372, #160, #322 ) ;
#232 = ORIENTED_EDGE ( 'NONE', *, *, #517, .F. ) ;
#233 = EDGE_CURVE ( 'NONE', #348, #153, #22, .T. ) ;
#234 = ORIENTED_EDGE ( 'NONE', *, *, #410, .F. ) ;
#235 = DIRECTION ( 'NONE',  ( -1.000000000000000000, -0.0000000000000000000, -0.0000000000000000000 ) ) ;
#236 = ORIENTED_EDGE ( 'NONE', *, *, #483, .F. ) ;
#237 = CIRCLE ( 'NONE', #59, 0.03049999999999999586 ) ;
#238 = EDGE_CURVE ( 'NONE', #74, #87, #212, .T. ) ;
#239 = CARTESIAN_POINT ( 'NONE',  ( 0.1059999999999999970, 0.0000000000000000000, 0.0000000000000000000 ) ) ;
#240 = DIRECTION ( 'NONE',  ( 0.0000000000000000000, 0.0000000000000000000, 1.000000000000000000 ) ) ;
#241 = DIRECTION ( 'NONE',  ( -1.000000000000000000, -0.0000000000000000000, -0.0000000000000000000 ) ) ;
#242 = CARTESIAN_POINT ( 'NONE',  ( 0.1819999999999999951, 0.0000000000000000000, 0.0000000000000000000 ) ) ;
#243 = DIRECTION ( 'NONE',  ( 1.000000000000000000, 0.0000000000000000000, 0.0000000000000000000 ) ) ;
#244 = DIRECTION ( 'NONE',  ( -1.000000000000000000, -0.0000000000000000000, -0.0000000000000000000 ) ) ;
#245 = CIRCLE ( 'NONE', #38, 0.02949999999999998110 ) ;
#246 = AXIS2_PLACEMENT_3D ( 'NONE', #15, #259, #50 ) ;
#247 = AXIS2_PLACEMENT_3D ( 'NONE', #261, #5, #337 ) ;
#248 = CYLINDRICAL_SURFACE ( 'NONE', #470, 0.02949999999999999151 ) ;
#249 = DIRECTION ( 'NONE',  ( -1.000000000000000000, -0.0000000000000000000, -0.0000000000000000000 ) ) ;
#250 = CARTESIAN_POINT ( 'NONE',  ( 0.0000000000000000000, 0.0000000000000000000, 0.0000000000000000000 ) ) ;
#251 = EDGE_CURVE ( 'NONE', #332, #367, #138, .T. ) ;
#252 =( NAMED_UNIT ( * ) PLANE_ANGLE_UNIT ( ) SI_UNIT ( $, .RADIAN. ) );
#253 = FACE_OUTER_BOUND ( 'NONE', #361, .T. ) ;
#254 = AXIS2_PLACEMENT_3D ( 'NONE', #242, #374, #240 ) ;
#255 = VECTOR ( 'NONE', #61, 39.37007874015748143 ) ;
#256 = CARTESIAN_POINT ( 'NONE',  ( 0.1970000000000000084, 0.0000000000000000000, 0.0000000000000000000 ) ) ;
#257 = ORIENTED_EDGE ( 'NONE', *, *, #420, .F. ) ;
#258 = APPLICATION_PROTOCOL_DEFINITION ( 'draft international standard', 'automotive_design', 1998, #177 ) ;
#259 = DIRECTION ( 'NONE',  ( -1.000000000000000000, -0.0000000000000000000, -0.0000000000000000000 ) ) ;
#260 = ORIENTED_EDGE ( 'NONE', *, *, #46, .T. ) ;
#261 = CARTESIAN_POINT ( 'NONE',  ( 0.0000000000000000000, 0.0000000000000000000, 0.0000000000000000000 ) ) ;
#262 = CARTESIAN_POINT ( 'NONE',  ( 0.04400000000000000439, 3.918869757271530830E-18, -0.03200000000000000067 ) ) ;
#263 = ORIENTED_EDGE ( 'NONE', *, *, #495, .F. ) ;
#264 = AXIS2_PLACEMENT_3D ( 'NONE', #256, #426, #387 ) ;
#265 = DIRECTION ( 'NONE',  ( 0.0000000000000000000, 0.0000000000000000000, 1.000000000000000000 ) ) ;
#266 = EDGE_LOOP ( 'NONE', ( #168, #312 ) ) ;
#267 = LINE ( 'NONE', #436, #449 ) ;
#268 = PRODUCT ( '0F5164DB-4D1C-4AD1-86A6-38D0CAFF95BC', '0F5164DB-4D1C-4AD1-86A6-38D0CAFF95BC', '', ( #524 ) ) ;
#269 = ORIENTED_EDGE ( 'NONE', *, *, #238, .T. ) ;
#270 = FILL_AREA_STYLE_COLOUR ( '', #336 ) ;
#271 = ORIENTED_EDGE ( 'NONE', *, *, #293, .T. ) ;
#272 = CARTESIAN_POINT ( 'NONE',  ( 0.05333012701892225066, 0.0000000000000000000, 0.02949999999999998110 ) ) ;
#273 = VECTOR ( 'NONE', #201, 39.37007874015748143 ) ;
#274 = EDGE_LOOP ( 'NONE', ( #134, #430 ) ) ;
#275 = ADVANCED_FACE ( 'NONE', ( #253 ), #465, .T. ) ;
#276 =( LENGTH_UNIT ( ) NAMED_UNIT ( * ) SI_UNIT ( $, .METRE. ) );
#277 = ORIENTED_EDGE ( 'NONE', *, *, #154, .T. ) ;
#278 = CARTESIAN_POINT ( 'NONE',  ( 0.1059999999999999970, 2.559511810217967774E-18, -0.02089999999999999844 ) ) ;
#279 = ORIENTED_EDGE ( 'NONE', *, *, #359, .F. ) ;
#280 = DIRECTION ( 'NONE',  ( 0.0000000000000000000, 0.0000000000000000000, 1.000000000000000000 ) ) ;
#281 = DIRECTION ( 'NONE',  ( 1.000000000000000000, 0.0000000000000000000, 0.0000000000000000000 ) ) ;
#282 = AXIS2_PLACEMENT_3D ( 'NONE', #149, #492, #105 ) ;
#283 = DIRECTION ( 'NONE',  ( 0.0000000000000000000, 0.0000000000000000000, 1.000000000000000000 ) ) ;
#284 = LINE ( 'NONE', #163, #119 ) ;
#285 = DIRECTION ( 'NONE',  ( 0.0000000000000000000, 0.0000000000000000000, -1.000000000000000000 ) ) ;
#286 = VERTEX_POINT ( 'NONE', #423 ) ;
#287 = DIRECTION ( 'NONE',  ( 0.0000000000000000000, 0.0000000000000000000, 1.000000000000000000 ) ) ;
#288 = DIRECTION ( 'NONE',  ( -1.000000000000000000, -0.0000000000000000000, -0.0000000000000000000 ) ) ;
#289 = AXIS2_PLACEMENT_3D ( 'NONE', #126, #249, #456 ) ;
#290 = AXIS2_PLACEMENT_3D ( 'NONE', #342, #303, #531 ) ;
#291 = MECHANICAL_DESIGN_GEOMETRIC_PRESENTATION_REPRESENTATION (  '', ( #41 ), #93 ) ;
#292 = DIRECTION ( 'NONE',  ( 0.0000000000000000000, 0.0000000000000000000, 1.000000000000000000 ) ) ;
#293 = EDGE_CURVE ( 'NONE', #298, #435, #6, .T. ) ;
#294 = CARTESIAN_POINT ( 'NONE',  ( 0.1970000000000000084, 2.381938024341602029E-18, -0.01799999999999999864 ) ) ;
#295 = APPLICATION_PROTOCOL_DEFINITION ( 'draft international standard', 'automotive_design', 1998, #69 ) ;
#296 = PLANE ( 'NONE',  #264 ) ;
#297 = ADVANCED_FACE ( 'NONE', ( #96 ), #296, .F. ) ;
#298 = VERTEX_POINT ( 'NONE', #176 ) ;
#299 = DIRECTION ( 'NONE',  ( -1.000000000000000000, -0.0000000000000000000, -0.0000000000000000000 ) ) ;
#300 = AXIS2_PLACEMENT_3D ( 'NONE', #329, #244, #131 ) ;
#301 = EDGE_CURVE ( 'NONE', #477, #298, #91, .T. ) ;
#302 = STYLED_ITEM ( 'NONE', ( #24 ), #320 ) ;
#303 = DIRECTION ( 'NONE',  ( -1.000000000000000000, -0.0000000000000000000, -0.0000000000000000000 ) ) ;
#304 = ORIENTED_EDGE ( 'NONE', *, *, #228, .T. ) ;
#305 = DIRECTION ( 'NONE',  ( -0.8660254037844417052, 6.123233995736700708E-17, -0.4999999999999946709 ) ) ;
#306 = DIRECTION ( 'NONE',  ( -1.000000000000000000, -0.0000000000000000000, -0.0000000000000000000 ) ) ;
#307 = EDGE_LOOP ( 'NONE', ( #11, #192, #236, #159 ) ) ;
#308 = DIRECTION ( 'NONE',  ( -1.000000000000000000, 0.0000000000000000000, -0.0000000000000000000 ) ) ;
#309 = EDGE_CURVE ( 'NONE', #148, #318, #398, .T. ) ;
#310 = ORIENTED_EDGE ( 'NONE', *, *, #446, .F. ) ;
#311 = FACE_OUTER_BOUND ( 'NONE', #266, .T. ) ;
#312 = ORIENTED_EDGE ( 'NONE', *, *, #198, .F. ) ;
#313 = EDGE_CURVE ( 'NONE', #315, #224, #390, .T. ) ;
#314 = CARTESIAN_POINT ( 'NONE',  ( 0.1059999999999999970, 0.0000000000000000000, 0.0000000000000000000 ) ) ;
#315 = VERTEX_POINT ( 'NONE', #28 ) ;
#316 = ADVANCED_FACE ( 'NONE', ( #311, #357 ), #404, .F. ) ;
#317 = LINE ( 'NONE', #525, #433 ) ;
#318 = VERTEX_POINT ( 'NONE', #481 ) ;
#319 = CARTESIAN_POINT ( 'NONE',  ( 0.1029999999999999943, 0.0000000000000000000, 0.02949999999999999845 ) ) ;
#320 = MANIFOLD_SOLID_BREP ( 'Revolve1', #397 ) ;
#321 = ORIENTED_EDGE ( 'NONE', *, *, #313, .F. ) ;
#322 = DIRECTION ( 'NONE',  ( 0.0000000000000000000, 0.0000000000000000000, 1.000000000000000000 ) ) ;
#323 = LINE ( 'NONE', #452, #186 ) ;
#324 = CARTESIAN_POINT ( 'NONE',  ( 0.01600000000000000033, 0.0000000000000000000, 0.0000000000000000000 ) ) ;
#325 = DIRECTION ( 'NONE',  ( 0.0000000000000000000, 0.0000000000000000000, 1.000000000000000000 ) ) ;
#326 = AXIS2_PLACEMENT_3D ( 'NONE', #18, #299, #509 ) ;
#327 = EDGE_CURVE ( 'NONE', #315, #348, #317, .T. ) ;
#328 = CARTESIAN_POINT ( 'NONE',  ( 0.0000000000000000000, 0.0000000000000000000, 0.0000000000000000000 ) ) ;
#329 = CARTESIAN_POINT ( 'NONE',  ( 0.0000000000000000000, 0.0000000000000000000, 0.0000000000000000000 ) ) ;
#330 = EDGE_CURVE ( 'NONE', #87, #74, #39, .T. ) ;
#331 = CARTESIAN_POINT ( 'NONE',  ( 0.1970000000000000084, 0.0000000000000000000, 0.0000000000000000000 ) ) ;
#332 = VERTEX_POINT ( 'NONE', #319 ) ;
#333 = ADVANCED_FACE ( 'NONE', ( #112 ), #442, .T. ) ;
#334 = FACE_OUTER_BOUND ( 'NONE', #104, .T. ) ;
#335 = CYLINDRICAL_SURFACE ( 'NONE', #300, 0.02089999999999999844 ) ;
#336 = COLOUR_RGB ( '',1.000000000000000000, 0.8078431372549019773, 0.4980392156862745168 ) ;
#337 = DIRECTION ( 'NONE',  ( 0.0000000000000000000, 0.0000000000000000000, 1.000000000000000000 ) ) ;
#338 = DIRECTION ( 'NONE',  ( -1.000000000000000000, -0.0000000000000000000, -0.0000000000000000000 ) ) ;
#339 = SURFACE_SIDE_STYLE ('',( #174 ) ) ;
#340 = DIRECTION ( 'NONE',  ( -1.000000000000000000, -0.0000000000000000000, -0.0000000000000000000 ) ) ;
#341 = EDGE_LOOP ( 'NONE', ( #66, #355, #226, #97 ) ) ;
#342 = CARTESIAN_POINT ( 'NONE',  ( 0.04400000000000000439, 0.0000000000000000000, 0.0000000000000000000 ) ) ;
#343 = ORIENTED_EDGE ( 'NONE', *, *, #309, .T. ) ;
#344 = AXIS2_PLACEMENT_3D ( 'NONE', #48, #281, #450 ) ;
#345 = VECTOR ( 'NONE', #370, 39.37007874015748143 ) ;
#346 = PLANE ( 'NONE',  #407 ) ;
#347 = DIRECTION ( 'NONE',  ( 0.0000000000000000000, 0.0000000000000000000, 1.000000000000000000 ) ) ;
#348 = VERTEX_POINT ( 'NONE', #278 ) ;
#349 = EDGE_CURVE ( 'NONE', #477, #197, #183, .T. ) ;
#350 = CARTESIAN_POINT ( 'NONE',  ( 0.1029999999999999943, 3.612708057484691665E-18, -0.02949999999999999845 ) ) ;
#351 = VERTEX_POINT ( 'NONE', #350 ) ;
#352 = AXIS2_PLACEMENT_3D ( 'NONE', #210, #4, #325 ) ;
#353 = AXIS2_PLACEMENT_3D ( 'NONE', #125, #243, #285 ) ;
#354 = DIRECTION ( 'NONE',  ( 0.0000000000000000000, 0.0000000000000000000, 1.000000000000000000 ) ) ;
#355 = ORIENTED_EDGE ( 'NONE', *, *, #202, .T. ) ;
#356 =( NAMED_UNIT ( * ) SI_UNIT ( $, .STERADIAN. ) SOLID_ANGLE_UNIT ( ) );
#357 = FACE_BOUND ( 'NONE', #274, .T. ) ;
#358 = ORIENTED_EDGE ( 'NONE', *, *, #410, .T. ) ;
#359 = EDGE_CURVE ( 'NONE', #87, #315, #400, .T. ) ;
#360 = SURFACE_STYLE_USAGE ( .BOTH. , #114 ) ;
#361 = EDGE_LOOP ( 'NONE', ( #371, #14, #29, #427 ) ) ;
#362 = PRODUCT_DEFINITION_CONTEXT ( 'detailed design', #69, 'design' ) ;
#363 = EDGE_CURVE ( 'NONE', #153, #348, #75, .T. ) ;
#364 = CIRCLE ( 'NONE', #129, 0.03049999999999999586 ) ;
#365 =( CONVERSION_BASED_UNIT ( 'INCH', #479 ) LENGTH_UNIT ( ) NAMED_UNIT ( #467 ) );
#366 = AXIS2_PLACEMENT_3D ( 'NONE', #187, #527, #522 ) ;
#367 = VERTEX_POINT ( 'NONE', #272 ) ;
#368 = CARTESIAN_POINT ( 'NONE',  ( 0.0000000000000000000, 0.0000000000000000000, 0.03599999999999996952 ) ) ;
#369 = ORIENTED_EDGE ( 'NONE', *, *, #118, .T. ) ;
#370 = DIRECTION ( 'NONE',  ( -0.9818192204374105447, 0.0000000000000000000, 0.1898183826178993228 ) ) ;
#371 = ORIENTED_EDGE ( 'NONE', *, *, #55, .T. ) ;
#372 = CARTESIAN_POINT ( 'NONE',  ( 0.05333012701892225066, 0.0000000000000000000, 0.0000000000000000000 ) ) ;
#373 = AXIS2_PLACEMENT_3D ( 'NONE', #459, #43, #534 ) ;
#374 = DIRECTION ( 'NONE',  ( -1.000000000000000000, -0.0000000000000000000, -0.0000000000000000000 ) ) ;
#375 = VECTOR ( 'NONE', #338, 39.37007874015748143 ) ;
#376 = CIRCLE ( 'NONE', #231, 0.02949999999999998110 ) ;
#377 = DIRECTION ( 'NONE',  ( 0.0000000000000000000, 0.0000000000000000000, 1.000000000000000000 ) ) ;
#378 = ORIENTED_EDGE ( 'NONE', *, *, #327, .F. ) ;
#379 = EDGE_CURVE ( 'NONE', #441, #148, #267, .T. ) ;
#380 = CARTESIAN_POINT ( 'NONE',  ( 0.0000000000000000000, 0.0000000000000000000, 0.0000000000000000000 ) ) ;
#381 = EDGE_LOOP ( 'NONE', ( #378, #536, #425, #403 ) ) ;
#382 = DIRECTION ( 'NONE',  ( -1.000000000000000000, -0.0000000000000000000, -0.0000000000000000000 ) ) ;
#383 = CIRCLE ( 'NONE', #101, 0.02776794919243115098 ) ;
#384 = CARTESIAN_POINT ( 'NONE',  ( 0.1059999999999999970, 0.0000000000000000000, 0.0000000000000000000 ) ) ;
#385 =( CONVERSION_BASED_UNIT ( 'INCH', #54 ) LENGTH_UNIT ( ) NAMED_UNIT ( #188 ) );
#386 = ADVANCED_FACE ( 'NONE', ( #162, #199 ), #535, .F. ) ;
#387 = DIRECTION ( 'NONE',  ( -0.0000000000000000000, 0.0000000000000000000, 1.000000000000000000 ) ) ;
#388 = CARTESIAN_POINT ( 'NONE',  ( 0.1059999999999999970, 0.0000000000000000000, 0.02089999999999999844 ) ) ;
#389 = EDGE_LOOP ( 'NONE', ( #469, #343 ) ) ;
#390 = CIRCLE ( 'NONE', #366, 0.02089999999999999844 ) ;
#391 = CONICAL_SURFACE ( 'NONE', #172, 0.01799999999999999864, 0.1909771627508957959 ) ;
#392 = DIRECTION ( 'NONE',  ( 0.0000000000000000000, 0.0000000000000000000, 1.000000000000000000 ) ) ;
#393 = ADVANCED_FACE ( 'NONE', ( #73 ), #121, .T. ) ;
#394 = EDGE_LOOP ( 'NONE', ( #182, #396 ) ) ;
#395 = ADVANCED_FACE ( 'NONE', ( #448 ), #130, .T. ) ;
#396 = ORIENTED_EDGE ( 'NONE', *, *, #202, .F. ) ;
#397 = CLOSED_SHELL ( 'NONE', ( #530, #333, #107, #491, #140, #275, #214, #297, #432, #78, #316, #508, #13, #393, #386, #35, #219, #395, #135 ) ) ;
#398 = CIRCLE ( 'NONE', #515, 0.03200000000000000067 ) ;
#399 = EDGE_CURVE ( 'NONE', #37, #286, #120, .T. ) ;
#400 = LINE ( 'NONE', #521, #478 ) ;
#401 = ORIENTED_EDGE ( 'NONE', *, *, #413, .T. ) ;
#402 = DIRECTION ( 'NONE',  ( -1.000000000000000000, -0.0000000000000000000, -0.0000000000000000000 ) ) ;
#403 = ORIENTED_EDGE ( 'NONE', *, *, #233, .F. ) ;
#404 = PLANE ( 'NONE',  #460 ) ;
#405 = ORIENTED_EDGE ( 'NONE', *, *, #86, .F. ) ;
#406 = DIRECTION ( 'NONE',  ( -1.000000000000000000, -0.0000000000000000000, -0.0000000000000000000 ) ) ;
#407 = AXIS2_PLACEMENT_3D ( 'NONE', #431, #141, #57 ) ;
#408 = AXIS2_PLACEMENT_3D ( 'NONE', #40, #241, #494 ) ;
#409 = VERTEX_POINT ( 'NONE', #368 ) ;
#410 = EDGE_CURVE ( 'NONE', #102, #106, #468, .T. ) ;
#411 = CARTESIAN_POINT ( 'NONE',  ( 0.1059999999999999970, 0.0000000000000000000, 0.0000000000000000000 ) ) ;
#412 = CYLINDRICAL_SURFACE ( 'NONE', #373, 0.03049999999999999586 ) ;
#413 = EDGE_CURVE ( 'NONE', #74, #224, #1, .T. ) ;
#414 = DIRECTION ( 'NONE',  ( -1.000000000000000000, -0.0000000000000000000, -0.0000000000000000000 ) ) ;
#415 = EDGE_LOOP ( 'NONE', ( #528, #358, #189, #405 ) ) ;
#416 = DIRECTION ( 'NONE',  ( -1.000000000000000000, -0.0000000000000000000, -0.0000000000000000000 ) ) ;
#417 = LINE ( 'NONE', #506, #204 ) ;
#418 = DIRECTION ( 'NONE',  ( 0.0000000000000000000, 0.0000000000000000000, 1.000000000000000000 ) ) ;
#419 = DIRECTION ( 'NONE',  ( -0.9659258262890682012, 0.0000000000000000000, 0.2588190451025214611 ) ) ;
#420 = EDGE_CURVE ( 'NONE', #409, #464, #110, .T. ) ;
#421 = PLANE ( 'NONE',  #344 ) ;
#422 =( CONVERSION_BASED_UNIT ( 'INCH', #512 ) LENGTH_UNIT ( ) NAMED_UNIT ( #225 ) );
#423 = CARTESIAN_POINT ( 'NONE',  ( 0.1059999999999999970, 3.506650533612202496E-18, -0.02776794919243115098 ) ) ;
#424 = AXIS2_PLACEMENT_3D ( 'NONE', #411, #84, #418 ) ;
#425 = ORIENTED_EDGE ( 'NONE', *, *, #454, .T. ) ;
#426 = DIRECTION ( 'NONE',  ( -1.000000000000000000, 0.0000000000000000000, -0.0000000000000000000 ) ) ;
#427 = ORIENTED_EDGE ( 'NONE', *, *, #454, .F. ) ;
#428 = EDGE_CURVE ( 'NONE', #106, #102, #487, .T. ) ;
#429 = LINE ( 'NONE', #100, #498 ) ;
#430 = ORIENTED_EDGE ( 'NONE', *, *, #233, .T. ) ;
#431 = CARTESIAN_POINT ( 'NONE',  ( 0.01600000000000000033, 0.03599999999999999728, 0.0000000000000000000 ) ) ;
#432 = ADVANCED_FACE ( 'NONE', ( #122 ), #391, .T. ) ;
#433 = VECTOR ( 'NONE', #402, 39.37007874015748143 ) ;
#434 = CARTESIAN_POINT ( 'NONE',  ( 0.01600000000000000033, 0.0000000000000000000, 0.0000000000000000000 ) ) ;
#435 = VERTEX_POINT ( 'NONE', #503 ) ;
#436 = CARTESIAN_POINT ( 'NONE',  ( 0.05333012701892225066, 3.612708057484689354E-18, -0.02949999999999998110 ) ) ;
#437 = ORIENTED_EDGE ( 'NONE', *, *, #198, .T. ) ;
#438 = ORIENTED_EDGE ( 'NONE', *, *, #144, .F. ) ;
#439 = VECTOR ( 'NONE', #306, 39.37007874015748143 ) ;
#440 = DIRECTION ( 'NONE',  ( -0.9818192204374105447, 2.324604746923380388E-17, -0.1898183826178993228 ) ) ;
#441 = VERTEX_POINT ( 'NONE', #44 ) ;
#442 = CYLINDRICAL_SURFACE ( 'NONE', #282, 0.03049999999999999586 ) ;
#443 = ORIENTED_EDGE ( 'NONE', *, *, #27, .T. ) ;
#444 = CARTESIAN_POINT ( 'NONE',  ( 0.04400000000000000439, 0.0000000000000000000, 0.0000000000000000000 ) ) ;
#445 = EDGE_LOOP ( 'NONE', ( #269, #64, #32, #493 ) ) ;
#446 = EDGE_CURVE ( 'NONE', #351, #332, #83, .T. ) ;
#447 = UNCERTAINTY_MEASURE_WITH_UNIT (LENGTH_MEASURE( 1.000000000000000082E-05 ), #422, 'distance_accuracy_value', 'NONE');
#448 = FACE_OUTER_BOUND ( 'NONE', #415, .T. ) ;
#449 = VECTOR ( 'NONE', #70, 39.37007874015747433 ) ;
#450 = DIRECTION ( 'NONE',  ( 0.0000000000000000000, 0.0000000000000000000, -1.000000000000000000 ) ) ;
#451 = LINE ( 'NONE', #79, #273 ) ;
#452 = CARTESIAN_POINT ( 'NONE',  ( 0.1059999999999999970, 0.0000000000000000000, 0.02776794919243115098 ) ) ;
#453 = UNCERTAINTY_MEASURE_WITH_UNIT (LENGTH_MEASURE( 1.000000000000000082E-05 ), #385, 'distance_accuracy_value', 'NONE');
#454 = EDGE_CURVE ( 'NONE', #224, #153, #208, .T. ) ;
#455 = CARTESIAN_POINT ( 'NONE',  ( 0.0000000000000000000, 0.0000000000000000000, 0.0000000000000000000 ) ) ;
#456 = DIRECTION ( 'NONE',  ( 0.0000000000000000000, 0.0000000000000000000, 1.000000000000000000 ) ) ;
#457 = FACE_OUTER_BOUND ( 'NONE', #128, .T. ) ;
#458 = CIRCLE ( 'NONE', #58, 0.03200000000000000067 ) ;
#459 = CARTESIAN_POINT ( 'NONE',  ( 0.0000000000000000000, 0.0000000000000000000, 0.0000000000000000000 ) ) ;
#460 = AXIS2_PLACEMENT_3D ( 'NONE', #193, #308, #103 ) ;
#461 = FACE_OUTER_BOUND ( 'NONE', #523, .T. ) ;
#462 = SHAPE_DEFINITION_REPRESENTATION ( #185, #142 ) ;
#463 = DIRECTION ( 'NONE',  ( -1.000000000000000000, -0.0000000000000000000, -0.0000000000000000000 ) ) ;
#464 = VERTEX_POINT ( 'NONE', #36 ) ;
#465 = CYLINDRICAL_SURFACE ( 'NONE', #147, 0.02089999999999999844 ) ;
#466 = CIRCLE ( 'NONE', #136, 0.03599999999999996952 ) ;
#467 = DIMENSIONAL_EXPONENTS ( 1.000000000000000000, 0.0000000000000000000, 0.0000000000000000000, 0.0000000000000000000, 0.0000000000000000000, 0.0000000000000000000, 0.0000000000000000000 ) ;
#468 = CIRCLE ( 'NONE', #205, 0.03599999999999999728 ) ;
#469 = ORIENTED_EDGE ( 'NONE', *, *, #143, .T. ) ;
#470 = AXIS2_PLACEMENT_3D ( 'NONE', #380, #31, #3 ) ;
#471 = CARTESIAN_POINT ( 'NONE',  ( 0.0000000000000000000, 0.0000000000000000000, 0.0000000000000000000 ) ) ;
#472 = CARTESIAN_POINT ( 'NONE',  ( 0.04400000000000000439, 0.0000000000000000000, 0.0000000000000000000 ) ) ;
#473 = DIRECTION ( 'NONE',  ( 0.0000000000000000000, 0.0000000000000000000, 1.000000000000000000 ) ) ;
#474 = CARTESIAN_POINT ( 'NONE',  ( 0.1059999999999999970, 0.0000000000000000000, 0.0000000000000000000 ) ) ;
#475 = ORIENTED_EDGE ( 'NONE', *, *, #118, .F. ) ;
#476 = CARTESIAN_POINT ( 'NONE',  ( 0.0000000000000000000, 0.0000000000000000000, 0.0000000000000000000 ) ) ;
#477 = VERTEX_POINT ( 'NONE', #127 ) ;
#478 = VECTOR ( 'NONE', #440, 39.37007874015748143 ) ;
#479 = LENGTH_MEASURE_WITH_UNIT ( LENGTH_MEASURE( 0.02539999999999999897 ), #276 );
#480 = ORIENTED_EDGE ( 'NONE', *, *, #446, .T. ) ;
#481 = CARTESIAN_POINT ( 'NONE',  ( 0.04400000000000000439, 0.0000000000000000000, 0.03200000000000000067 ) ) ;
#482 = EDGE_LOOP ( 'NONE', ( #191, #25, #184, #475 ) ) ;
#483 = EDGE_CURVE ( 'NONE', #332, #351, #68, .T. ) ;
#484 = DIRECTION ( 'NONE',  ( -1.000000000000000000, -0.0000000000000000000, -0.0000000000000000000 ) ) ;
#485 = EDGE_LOOP ( 'NONE', ( #279, #17, #401, #321 ) ) ;
#486 = PRODUCT_DEFINITION ( 'UNKNOWN', '', #111, #362 ) ;
#487 = CIRCLE ( 'NONE', #16, 0.03599999999999999728 ) ;
#488 = COLOUR_RGB ( '',1.000000000000000000, 0.8078431372549019773, 0.4980392156862745168 ) ;
#489 = FILL_AREA_STYLE ('',( #270 ) ) ;
#490 = ORIENTED_EDGE ( 'NONE', *, *, #86, .T. ) ;
#491 = ADVANCED_FACE ( 'NONE', ( #457 ), #248, .T. ) ;
#492 = DIRECTION ( 'NONE',  ( -1.000000000000000000, -0.0000000000000000000, -0.0000000000000000000 ) ) ;
#493 = ORIENTED_EDGE ( 'NONE', *, *, #413, .F. ) ;
#494 = DIRECTION ( 'NONE',  ( 0.0000000000000000000, 0.0000000000000000000, 1.000000000000000000 ) ) ;
#495 = EDGE_CURVE ( 'NONE', #367, #441, #376, .T. ) ;
#496 = CARTESIAN_POINT ( 'NONE',  ( 0.01600000000000000033, 4.408728476930471799E-18, -0.03600000000000000422 ) ) ;
#497 = CIRCLE ( 'NONE', #254, 0.02089999999999999844 ) ;
#498 = VECTOR ( 'NONE', #305, 39.37007874015748143 ) ;
#499 = CARTESIAN_POINT ( 'NONE',  ( 0.01600000000000000033, 0.0000000000000000000, 0.0000000000000000000 ) ) ;
#500 = EDGE_LOOP ( 'NONE', ( #71, #304 ) ) ;
#501 = DIRECTION ( 'NONE',  ( 0.0000000000000000000, 0.0000000000000000000, 1.000000000000000000 ) ) ;
#502 = DIRECTION ( 'NONE',  ( 0.0000000000000000000, 0.0000000000000000000, 1.000000000000000000 ) ) ;
#503 = CARTESIAN_POINT ( 'NONE',  ( 0.01600000000000000033, 3.735172737399426715E-18, -0.03049999999999999586 ) ) ;
#504 = ORIENTED_EDGE ( 'NONE', *, *, #428, .T. ) ;
#505 = CARTESIAN_POINT ( 'NONE',  ( 0.05333012701892225066, 0.0000000000000000000, 0.0000000000000000000 ) ) ;
#506 = CARTESIAN_POINT ( 'NONE',  ( 0.05333012701892225066, 0.0000000000000000000, 0.02949999999999998110 ) ) ;
#507 = AXIS2_PLACEMENT_3D ( 'NONE', #472, #218, #99 ) ;
#508 = ADVANCED_FACE ( 'NONE', ( #334 ), #223, .T. ) ;
#509 = DIRECTION ( 'NONE',  ( 0.0000000000000000000, 0.0000000000000000000, 1.000000000000000000 ) ) ;
#510 = CARTESIAN_POINT ( 'NONE',  ( 0.01600000000000000033, 0.0000000000000000000, 0.0000000000000000000 ) ) ;
#511 = ORIENTED_EDGE ( 'NONE', *, *, #154, .F. ) ;
#512 = LENGTH_MEASURE_WITH_UNIT ( LENGTH_MEASURE( 0.02539999999999999897 ), #178 );
#513 = FACE_OUTER_BOUND ( 'NONE', #445, .T. ) ;
#514 = CONICAL_SURFACE ( 'NONE', #289, 0.02949999999999998110, 0.2617993877991501295 ) ;
#515 = AXIS2_PLACEMENT_3D ( 'NONE', #444, #158, #354 ) ;
#516 = ORIENTED_EDGE ( 'NONE', *, *, #211, .F. ) ;
#517 = EDGE_CURVE ( 'NONE', #106, #409, #451, .T. ) ;
#518 =( NAMED_UNIT ( * ) PLANE_ANGLE_UNIT ( ) SI_UNIT ( $, .RADIAN. ) );
#519 = FACE_BOUND ( 'NONE', #500, .T. ) ;
#520 = CARTESIAN_POINT ( 'NONE',  ( 0.0000000000000000000, 0.0000000000000000000, 0.02949999999999999151 ) ) ;
#521 = CARTESIAN_POINT ( 'NONE',  ( 0.1970000000000000084, 2.204364238465235514E-18, -0.01799999999999999864 ) ) ;
#522 = DIRECTION ( 'NONE',  ( 0.0000000000000000000, 0.0000000000000000000, 1.000000000000000000 ) ) ;
#523 = EDGE_LOOP ( 'NONE', ( #82, #490 ) ) ;
#524 = PRODUCT_CONTEXT ( 'NONE', #177, 'mechanical' ) ;
#525 = CARTESIAN_POINT ( 'NONE',  ( 0.0000000000000000000, 2.559511810217967774E-18, -0.02089999999999999844 ) ) ;
#526 = ORIENTED_EDGE ( 'NONE', *, *, #238, .F. ) ;
#527 = DIRECTION ( 'NONE',  ( -1.000000000000000000, -0.0000000000000000000, -0.0000000000000000000 ) ) ;
#528 = ORIENTED_EDGE ( 'NONE', *, *, #27, .F. ) ;
#529 = AXIS2_PLACEMENT_3D ( 'NONE', #384, #52, #180 ) ;
#530 = ADVANCED_FACE ( 'NONE', ( #538 ), #98, .T. ) ;
#531 = DIRECTION ( 'NONE',  ( 0.0000000000000000000, 0.0000000000000000000, 1.000000000000000000 ) ) ;
#532 = EDGE_LOOP ( 'NONE', ( #45, #21, #369, #156 ) ) ;
#533 = DIRECTION ( 'NONE',  ( -1.000000000000000000, -0.0000000000000000000, -0.0000000000000000000 ) ) ;
#534 = DIRECTION ( 'NONE',  ( 0.0000000000000000000, 0.0000000000000000000, 1.000000000000000000 ) ) ;
#535 = PLANE ( 'NONE',  #353 ) ;
#536 = ORIENTED_EDGE ( 'NONE', *, *, #313, .T. ) ;
#537 = CIRCLE ( 'NONE', #507, 0.03049999999999999239 ) ;
#538 = FACE_OUTER_BOUND ( 'NONE', #72, .T. ) ;
#539 = FACE_OUTER_BOUND ( 'NONE', #381, .T. ) ;
ENDSEC;
END-ISO-10303-21;
